/* XPM */
static char *result[] = {
/* columns rows colors chars-per-pixel */
"50 50 197 2 ",
"   c #77A35C",
".  c #78A058",
"X  c #79A058",
"o  c #78A158",
"O  c #79A158",
"+  c #78A059",
"@  c #78A159",
"#  c #79A35B",
"$  c #79A25C",
"%  c #7AA25C",
"&  c #7BA96A",
"*  c #7DA86A",
"=  c #7DA96A",
"-  c #7EA96A",
";  c #7EA86B",
":  c #7DAA6A",
">  c #7FAD70",
",  c #83A85A",
"<  c #82A95A",
"1  c #83A95A",
"2  c #82A85B",
"3  c #83A85B",
"4  c #82A95B",
"5  c #83A95B",
"6  c #98B860",
"7  c #99B860",
"8  c #98B960",
"9  c #99B960",
"0  c #99B861",
"q  c #98B961",
"w  c #9DBC60",
"e  c #9CBC61",
"r  c #9CBD61",
"t  c #9DBD61",
"y  c #80AC70",
"u  c #80AD70",
"i  c #81AD70",
"p  c #80AD71",
"a  c #81AE71",
"s  c #82AE70",
"d  c #83AE71",
"f  c #80AC72",
"g  c #80AD72",
"h  c #80AC73",
"j  c #81AC73",
"k  c #80AD73",
"l  c #81AD73",
"z  c #81AE72",
"x  c #82AE72",
"c  c #83AE72",
"v  c #A4C262",
"b  c #A5C262",
"n  c #A4C362",
"m  c #A5C362",
"M  c #A4C263",
"N  c #A5C263",
"B  c #A4C363",
"V  c #A5C363",
"C  c #AAC664",
"Z  c #ABC664",
"A  c #AAC764",
"S  c #AAC665",
"D  c #ABC665",
"F  c #AAC765",
"G  c #ABC765",
"H  c #B0CB68",
"J  c #B1CB68",
"K  c #B0CA69",
"L  c #B1CA69",
"P  c #B0CB69",
"I  c #B1CB69",
"U  c #BAD06C",
"Y  c #BBD06C",
"T  c #BAD16C",
"R  c #BBD16C",
"E  c #BAD06D",
"W  c #BBD06D",
"Q  c #BAD16D",
"!  c #BBD16D",
"~  c #C0D470",
"^  c #C1D470",
"/  c #C0D570",
"(  c #C1D570",
")  c #C0D471",
"_  c #C1D471",
"`  c #C0D571",
"'  c #C1D571",
"]  c #87B886",
"[  c #87B986",
"{  c #87B887",
"}  c #89B886",
"|  c #8EBF93",
" . c #8BBE94",
".. c #8DBE94",
"X. c #8CBE95",
"o. c #92C9A7",
"O. c #96CAA6",
"+. c #98CAA7",
"@. c #90C7A8",
"#. c #91C7A8",
"$. c #91C6A9",
"%. c #91C7A9",
"&. c #92C6A8",
"*. c #93C6A8",
"=. c #92C7A8",
"-. c #93C7A8",
";. c #92C7A9",
":. c #93C7A9",
">. c #94C7A8",
",. c #92C8A8",
"<. c #93C8A8",
"1. c #94C8A8",
"2. c #95C8A8",
"3. c #95C9A8",
"4. c #95C8A9",
"5. c #97C8A8",
"6. c #94CBB0",
"7. c #95CBB0",
"8. c #94CAB1",
"9. c #94CBB1",
"0. c #95CBB1",
"q. c #97CBB1",
"w. c #97CCB1",
"e. c #99CDB1",
"r. c #99D2BE",
"t. c #98D3BE",
"y. c #98D2BF",
"u. c #99D3BF",
"i. c #9AD3BE",
"p. c #ACDDBE",
"a. c #ADDDBE",
"s. c #ACDCBF",
"d. c #ACDDBF",
"f. c #AEDEBE",
"g. c #AFDEBE",
"h. c #AEDFBE",
"j. c #AEDEBF",
"k. c #AFDEBF",
"l. c #AEDFBF",
"z. c #AFDFBF",
"x. c #B0E0BE",
"c. c #B1E0BE",
"v. c #B1E1BE",
"b. c #B0E0BF",
"n. c #B1E0BF",
"m. c #9AD4C2",
"M. c #9BD4C2",
"N. c #9AD5C2",
"B. c #9BD5C2",
"V. c #9AD4C3",
"C. c #9BD4C3",
"Z. c #9AD5C3",
"A. c #9BD5C3",
"S. c #9CD4C2",
"D. c #9DD4C2",
"F. c #9CD5C2",
"G. c #9DD5C2",
"H. c #9CD4C3",
"J. c #9DD4C3",
"K. c #9CD5C3",
"L. c #9DD5C3",
"P. c #9ED4C2",
"I. c #9ED5C2",
"U. c #9FD5C2",
"Y. c #9ED4C3",
"T. c #9ED5C3",
"R. c #9FD5C3",
"E. c #9ED6C2",
"W. c #9FD6C2",
"Q. c #9ED7C2",
"!. c #9ED6C3",
"~. c #9ED7C3",
"^. c #A0D6C2",
"/. c #A0D7C2",
"(. c #A1D7C2",
"). c #A0D6C3",
"_. c #A0D7C3",
"`. c #A2D8C0",
"'. c #A3D8C0",
"]. c #A3D9C0",
"[. c #A2D8C1",
"{. c #A3D8C1",
"}. c #A2D9C1",
"|. c #A3D9C1",
" X c #A4D8C0",
".X c #A4D9C0",
"XX c #A4D9C1",
"oX c #A6DAC0",
"OX c #A6DBC0",
"+X c #A7DBC0",
"@X c #A7DAC1",
"#X c #A7DBC1",
"$X c #A9DAC0",
"%X c #A8DBC0",
"&X c #A9DBC0",
"*X c #A9DAC1",
"=X c #A9DBC1",
/* pixels */
"C.M.V.V.V.C.C.B.m.C.V.C.M.C.C.C.Z.A.C.C.A.;.g , 8 B B G ! ~ ~ ~ ) / / / ^ ~ ^ ' ` ) ~ ( / ^ ~ ~ ` ~ ",
"V.V.C.A.m.A.V.m.A.C.Z.C.C.M.M.C.C.C.C.C.A.=.f 1 8 B B Z U ~ / _ ~ ~ / ~ ' ~ ~ ~ ~ ~ / ~ ^ ) ^ ) ) ~ ",
"C.C.C.C.C.C.V.V.C.Z.C.C.C.M.m.V.V.A.C.C.A.=.l , 8 B M S W ~ / ^ ^ ` ` ~ ^ _ ~ ( ` ` ~ / ~ ^ ` ( ( ( ",
"C.A.B.C.C.V.A.A.C.V.A.V.M.C.C.A.M.C.N.A.m.=.h 4 8 n n S I ! ) ^ Q ! _ ~ / ~ / / ~ / ^ ~ ) ~ ~ ^ ) / ",
"C.C.M.m.C.C.C.C.C.A.M.M.M.C.A.C.C.C.V.C.m.$.h 4 q B V B S I W W L I ! ~ ~ / / _ ^ / / ) ~ ~ / ( ^ ^ ",
"C.C.C.B.C.V.Z.M.C.B.C.C.C.C.C.A.C.C.C.C.F.3.l 4 6 V M B n S U ! I P W ~ ` ^ ' / ` ~ _ / R T ~ ~ / ~ ",
"V.C.C.B.C.C.M.Z.V.C.M.B.C.V.V.B.V.C.Z.V.K.5.z 1 8 V B B B S E / T ! ~ ) ( ~ ) / ^ ) ~ W J P ! / ~ ( ",
"C.m.C.C.M.V.V.C.M.C.V.C.C.V.C.C.Z.M.V.C.G.+.c 1 8 V B v B F ! ^ ^ ~ ^ ( ~ / _ ) ^ ) ` W H K T ) ~ ~ ",
"M.M.m.Z.A.C.V.C.M.M.C.M.V.M.M.C.C.A.M.C.K.O.x < 8 m M B B D ! ~ ~ ) / / / ~ ~ ~ ) ( ) ) T Q / ~ ) / ",
"V.C.C.M.A.M.C.A.V.B.C.C.C.C.V.V.B.C.C.M.L.1.j 2 8 r M B V C I ! W ! ^ ` / ~ ~ ~ ~ ^ _ / ^ _ ^ ^ ~ _ ",
"V.Z.Z.V.C.C.M.A.C.m.C.A.A.A.C.V.C.C.Z.m.A.<.f O 3 1 r V V B F C Z L Y ) / / ~ ^ ) ` ~ / / ~ _ ~ ~ ~ ",
"V.V.C.C.A.C.C.C.M.V.M.C.V.V.M.C.N.A.Z.V.m.:.k . O 2 7 v M v N B S I Q / _ ( ( / ~ ~ ~ ) ^ ~ ) / ~ ) ",
"C.A.M.B.M.A.C.M.M.A.m.M.C.V.C.A.M.C.B.A.A.=.k O . 1 6 v V n B G H R ~ ) ~ ( / / ^ ~ / ~ ( ^ ~ ~ ^ ) ",
"C.A.A.V.C.M.m.A.Z.M.V.C.C.C.V.M.C.Z.Z.A.V.;.y . . 4 8 r m B B S L ! ~ ' ) ~ / ~ ~ ~ ~ ~ / ~ ) ~ ~ ) ",
"C.A.V.M.C.B.C.C.M.C.C.C.J.D.T.I.P.K.J.H.N.#.i + O . , 1 w B v B C L R ) / ~ ~ / ^ ' / ` ^ ( ~ ) ~ ) ",
"C.C.V.m.C.C.V.V.M.C.A.K.).|.'.{.|.}./.!.C.q.[ * # @ o 2 9 m N B B D H W ~ ~ / ( ~ / ~ ) Y E ` ~ _ ^ ",
"V.M.A.V.C.C.V.A.M.C.C.L.+Xp.f.j.g.s.OX`.B.t.8.X.& @ @ 4 q M N n B M D I W ` ~ / ~ ~ / E J J E ^ ~ ~ ",
"A.C.N.A.M.A.V.V.C.C.C.L.OXs.j.l.j.a.+X[.V.C.M.@.l + 3 4 t B n V v N V D J ! ~ ^ ! W ( Y P I ! / ( ~ ",
"B.C.m.C.V.m.M.C.C.V.C.L.XX@X%X=X&XoXXX/.C.m.C.@.l 5 8 r B M B n M B n V S J R ! I L R ~ ! T / ^ ) ~ ",
"B.C.M.C.M.C.M.C.M.C.V.F._.|.{.|.}.[.^.Q.M.C.M.=.y 5 8 w b B V B v V M M b F J P A G L R R ! Q U ! ! ",
"C.M.C.C.V.V.C.m.M.m.C.B.C.Z.Z.C.C.C.Z.A.M.C.C.=.u o 5 1 w n n v n M m M m B Z C v B D C S C S D A S ",
"C.Z.C.C.Z.A.V.m.M.C.C.V.C.m.C.M.M.M.M.A.C.V.m.0.{ =   1 9 t V B n V B M n B N v B n B N M m B B B V ",
"A.M.C.C.A.M.V.C.C.C.V.m.M.C.C.C.C.Z.C.C.N.B.A.r.7. .: o 1 5 t B B N V B M B v N B M M V V B B m n m ",
"m.C.M.N.C.Z.V.V.C.V.C.M.M.C.C.V.V.C.Z.C.C.V.M.C.C.9.[ ; $ 1 8 8 9 q 8 6 q 8 8 r B N v M N B B B m N ",
"A.C.M.A.C.C.C.C.Z.C.A.A.C.m.C.Z.M.A.V.A.V.V.C.C.A.y.7.| ; X 4 5 , 4 4 1 3 5 5 5 e N V B M n M M M V ",
"C.m.V.V.M.M.C.M.C.C.M.Z.V.C.C.C.m.M.C.m.A.C.A.C.C.C.M.e.} s d x x - % O + @ . 1 9 0 6 6 8 q 8 8 6 8 ",
"M.C.V.V.C.V.C.Z.V.m.A.m.B.A.C.C.C.B.C.C.V.V.m.B.C.C.C.i.w.>.4.2.2...= . O @ o @ < 4 1 5 3 5 1 4 5 3 ",
"A.C.C.M.V.M.V.m.M.C.C.B.N.C.C.A.V.N.V.C.V.A.C.C.Z.V.C.C.C.C.V.Z.C.9.] a > p k k k k k k p k h k k l ",
"V.C.C.C.C.A.A.Z.C.C.Z.V.A.Z.C.C.M.V.C.A.A.M.C.m.C.C.C.A.C.C.B.C.V.u.6.,.*.&.=.,.;.-.#.=.%.=.*.=.o.;.",
"C.B.C.m.C.V.V.B.A.M.C.V.C.C.A.C.C.A.M.B.N.C.A.C.M.C.C.M.Z.Z.C.V.M.Z.C.A.M.A.C.C.V.C.C.C.C.Z.V.C.V.C.",
"'.'.'.|.{.`.{.}.}.Q.K.M.V.C.A.A.C.A.V.C.A.C.M.M.M.V.B.A.C.A.C.B.C.C.B.Z.M.M.M.m.M.M.M.Z.A.L.~./.}.[.",
"&X&X%X&X$X$X%X%X+X/.L.C.V.M.A.A.C.C.Z.A.Z.C.C.m.C.A.C.B.C.A.C.C.C.C.M.A.C.C.C.M.V.V.V.V.V.L./..X=X%X",
"l.l.j.j.j.j.j.k.p.`.G.Z.C.C.C.V.B.m.m.C.M.C.C.V.V.V.A.V.V.C.V.C.C.C.N.Z.Z.C.C.C.A.V.C.A.m.F.[.+Xf.g.",
"j.j.g.j.k.h.l.k.d.{.D.M.A.A.C.C.m.A.V.C.A.M.C.C.C.Z.C.C.A.Z.C.C.m.A.C.m.M.m.m.M.C.C.Z.M.A.K.[.oXh.z.",
"[.[.'.{.].|.{.[.[.!.K.C.A.M.V.m.V.C.C.m.C.M.Z.A.m.C.C.m.C.V.V.C.C.N.V.B.M.V.C.M.m.V.m.m.N.K.E./.`.{.",
"R.Y.P.P.I.U.I.I.G.H.C.C.C.A.C.C.V.A.A.A.C.C.C.M.m.V.A.C.B.C.V.V.C.C.B.V.C.A.C.M.M.A.A.A.C.C.F.G.T.I.",
"m.C.M.M.C.C.C.A.V.C.A.A.C.C.Z.C.M.N.N.M.V.V.C.V.V.V.M.C.M.C.M.C.V.M.C.M.N.C.A.B.A.V.V.m.C.M.C.C.m.V.",
"M.C.M.C.A.V.m.C.C.C.Z.C.C.C.C.M.C.V.A.M.V.C.m.A.C.A.C.M.C.M.B.B.V.C.M.M.M.A.C.B.A.C.Z.M.A.C.Z.C.M.C.",
"C.C.M.A.M.V.M.M.V.N.M.C.C.C.C.V.C.B.C.B.V.M.A.M.C.m.C.M.V.m.C.C.V.A.A.C.A.C.C.M.V.C.C.V.M.C.C.C.N.B.",
"V.m.C.C.B.C.V.A.m.C.A.m.C.C.M.C.C.M.M.M.C.H.J.I.P.T.U.T.I.I.J.S.C.M.m.C.M.C.V.A.M.A.A.B.C.C.M.C.M.B.",
"C.C.Z.C.A.A.V.A.C.V.m.C.C.A.Z.V.M.V.M.C.S.Q.(.'.[.{.}.'.{.{./.W.F.V.C.C.N.C.M.A.C.B.C.C.B.V.C.C.C.A.",
"M.A.C.C.V.B.M.C.B.B.C.m.m.A.V.C.C.V.Z.M.G.[.#Xf.g.l.k.k.l.j.+X[.G.C.m.C.N.V.A.C.C.M.B.N.C.V.C.A.m.N.",
"M.M.M.Z.A.Z.C.C.C.M.C.C.C.C.N.A.C.Z.V.C.G.}.#Xj.z.h.f.j.l.j.+X}.G.C.C.C.B.M.C.C.Z.C.m.C.M.B.M.C.C.A.",
"C.C.A.V.C.C.A.C.C.C.C.C.A.M.C.V.B.A.M.C.F./. X&X=X%X&X&X*X$XXX).G.A.C.C.A.C.M.C.C.C.V.M.Z.C.V.C.m.M.",
"C.C.A.C.C.C.N.V.V.C.C.M.C.V.Z.V.V.A.C.B.S.W./.'.{.{.[.`.[.}._.Q.K.m.C.m.C.C.B.C.C.N.C.V.C.C.M.C.B.A.",
"C.A.C.C.N.V.V.A.C.A.V.A.C.C.V.V.C.M.V.M.M.m.C.C.B.C.C.M.V.V.Z.M.V.M.C.M.C.A.Z.C.F.G.P.T.U.R.I.I.I.U.",
"C.C.V.C.M.C.C.A.M.m.C.A.C.B.V.C.V.A.Z.A.B.m.C.M.C.m.M.A.B.C.C.M.M.m.M.C.C.V.V.F.Q.[.].].{.`.|.`.{.{.",
"B.A.V.V.C.A.B.A.C.Z.M.C.M.C.Z.Z.C.A.V.M.V.Z.C.C.C.C.C.A.Z.M.C.V.m.C.V.C.A.C.C.J./.+X=X%X$X&X*X&X&X&X",
"V.M.A.Z.C.V.C.C.V.C.V.Z.A.M.B.V.A.A.B.Z.V.B.C.A.Z.C.A.C.C.C.C.C.M.C.M.C.A.B.C.U.{.j.v.c.c.c.n.c.c.c.",
"C.M.C.C.C.C.C.B.V.C.Z.C.C.C.M.V.A.C.A.C.C.V.A.C.m.B.B.A.M.A.V.m.A.V.C.V.C.m.M.I.{.j.n.c.c.b.n.x.b.c."
};
