/* XPM */
static char *result[] = {
/* columns rows colors chars-per-pixel */
"50 50 173 2 ",
"   c #79A159",
".  c #78A258",
"X  c #79A258",
"o  c #78A259",
"O  c #79A259",
"+  c #79A359",
"@  c #7AA259",
"#  c #78A25A",
"$  c #79A25A",
"%  c #83A95B",
"&  c #83AA5A",
"*  c #83AB5A",
"=  c #83AA5B",
"-  c #81AA5C",
";  c #82AA5C",
":  c #83AA5C",
">  c #82AB5C",
",  c #83AB5C",
"<  c #83AA5D",
"1  c #84AA5C",
"2  c #8EB15C",
"3  c #8EB05D",
"4  c #8EB15D",
"5  c #8FB15D",
"6  c #9ABA60",
"7  c #9BBA60",
"8  c #9ABB60",
"9  c #9ABA61",
"0  c #9BBA61",
"q  c #9ABB61",
"w  c #80AE73",
"e  c #80AF73",
"r  c #82AE73",
"t  c #83AE73",
"y  c #82AF73",
"u  c #83AF73",
"i  c #80AE74",
"p  c #80AF74",
"a  c #81AF74",
"s  c #80AE75",
"d  c #82AF74",
"f  c #82AF75",
"g  c #83B073",
"h  c #84B072",
"j  c #84B073",
"k  c #84B173",
"l  c #85B173",
"z  c #84B075",
"x  c #A4C262",
"c  c #A5C262",
"v  c #A4C362",
"b  c #A5C362",
"n  c #A4C263",
"m  c #A5C263",
"M  c #A4C363",
"N  c #A5C363",
"B  c #AAC664",
"V  c #AAC665",
"C  c #ABC665",
"Z  c #AAC765",
"A  c #B4CC68",
"S  c #B5CC68",
"D  c #B5CD68",
"F  c #B4CC69",
"G  c #B5CC69",
"H  c #B4CD69",
"J  c #B5CD69",
"K  c #C0D470",
"L  c #C1D470",
"P  c #C0D570",
"I  c #C1D570",
"U  c #C0D471",
"Y  c #C1D471",
"T  c #C0D571",
"R  c #C1D571",
"E  c #91C6A7",
"W  c #90C7A7",
"Q  c #91C7A7",
"!  c #92C7A7",
"~  c #91C8A7",
"^  c #97C8A5",
"/  c #96C9A5",
"(  c #97C9A5",
")  c #94C8A7",
"_  c #95C8A7",
"`  c #96C9A6",
"'  c #97C9A6",
"]  c #96C9A7",
"[  c #96CAA6",
"{  c #98C9A5",
"}  c #98CAA6",
"|  c #91C5A8",
" . c #90C6A8",
".. c #91C6A8",
"X. c #90C7A8",
"o. c #91C7A8",
"O. c #91C7A9",
"+. c #92C6A8",
"@. c #92C7A8",
"#. c #93C7A8",
"$. c #91C8A8",
"%. c #92C8A8",
"&. c #93C8A8",
"*. c #ACDDBE",
"=. c #ADDDBE",
"-. c #ACDCBF",
";. c #ADDDBF",
":. c #AEDEBE",
">. c #AFDEBE",
",. c #AEDFBE",
"<. c #AFDFBE",
"1. c #AEDEBF",
"2. c #AFDEBF",
"3. c #AEDFBF",
"4. c #AFDFBF",
"5. c #9AD4C2",
"6. c #9BD4C2",
"7. c #9AD5C2",
"8. c #9BD5C2",
"9. c #9AD4C3",
"0. c #9BD4C3",
"q. c #9AD5C3",
"w. c #9BD5C3",
"e. c #9CD4C2",
"r. c #9DD4C2",
"t. c #9CD5C2",
"y. c #9DD5C2",
"u. c #9CD4C3",
"i. c #9DD4C3",
"p. c #9CD5C3",
"a. c #9DD5C3",
"s. c #9ED4C2",
"d. c #9FD4C2",
"f. c #9ED5C2",
"g. c #9FD5C2",
"h. c #9ED4C3",
"j. c #9FD4C3",
"k. c #9ED5C3",
"l. c #9FD5C3",
"z. c #9ED6C2",
"x. c #9FD6C2",
"c. c #9ED7C2",
"v. c #9ED7C3",
"b. c #A0D6C2",
"n. c #A1D6C2",
"m. c #A0D7C2",
"M. c #A1D7C2",
"N. c #A1D6C3",
"B. c #A0D7C3",
"V. c #A2D8C0",
"C. c #A3D8C0",
"Z. c #A2D9C0",
"A. c #A3D9C0",
"S. c #A2D8C1",
"D. c #A3D8C1",
"F. c #A2D9C1",
"G. c #A3D9C1",
"H. c #A4D8C0",
"J. c #A5D9C0",
"K. c #A4D8C1",
"L. c #A4D9C1",
"P. c #A6DAC0",
"I. c #A6DBC0",
"U. c #A7DBC0",
"Y. c #A6DAC1",
"T. c #A7DAC1",
"R. c #A8DAC0",
"E. c #A9DAC0",
"W. c #A8DBC0",
"Q. c #A9DBC0",
"!. c #A9DAC1",
"~. c #A8DBC1",
"^. c #A9DBC1",
/* pixels */
"K K P U I K U U L T U T P K U K L K U U P P L K K Y K P L P L L K K K U P K K K K U K I K P K K U K ",
"K L I P K I K K K U P I L U I L K I K P L K U U K U K K K K I L K Y L K K I K K K U K K L K K U U K ",
"K K K K K K T K L K P U Y K K P U K L U U K K L L K P K K K K L K K K K K P T K L K K K U K U P U K ",
"K K K K U K K L L K K K R K K K T K K K K P K K U U L K K Y U K K K K K U K P L L K U K U K P K L K ",
"K K K R K U L U L K K T P L K U K K K K K U K I K U K K U Y K K U K K Y K U K K L Y K T P L K K K K ",
"K T L T U K K K U K P K I K U U U L P U U K K K L K K Y I P K K L P L K U P K U U P K K Y K Y T U K ",
"U K K I K K K L P T U T Y U L U L P K K U K K K K K U K K K K K K K K I K K K K K U U I Y U K K K P ",
"K K U K P P K L Y K K K K P K K P U K I L K P K U K K K K K K U L K K K K K K K K K U U K T K L K K ",
"L K K P L L P U P Y K K R Y I K K K K L K K K K L U K U P L L Y L K K P L L P U P L K K R L I K K K ",
"K K K K K K K L T K K K U K K U K K K K U K K K K K K L K P K L K K K K K K K K L P K L U K K U L K ",
"U K K K L K K L K K K K K K L K U L L L K L R U U L K Y L K K P U L L K L K K K K K K K K K L P K L ",
"K L K K K K K K K U U U U L K L K K L K K K J K P L U K I K K I K K K L K K U K K U K U U U K L K K ",
"K K K K K K P P K D J H F T U P T K L K P K V A K K U K K K K K K P K L K K P K K H G F F U U K P P ",
"P K K T K P U K K K B J K P K K P K K P R U F V P P L L U K K L P U K U K T U K K K V F K K K K P K ",
"K K K K Y K T U K K I F U K U L Y U P K K K F K K K K P K U K K K K K K U K U K K K T F U K U K K L ",
"U K U K K Y U U P T K K K K L K K K K K K K K K L K K Y K P K S U K K K K T U U P P K K K K I U K K ",
"K P I K P K K K K K U K L L U P U L L P P K K U K K K K K K V F K P I L K K K L K K U K L U U K K I ",
"H P K K P K F I K L P K F K I P K L K K L L K P F K K L K K A G F I K K P L F Y K K P K F K L I K K ",
"U K P U K U H F K U U L G A K K K U U L L K U K A V G U U K F K Y K R U K K H F K U U K H A K K K K ",
"L Y K L S A v V F G F A Z M G K P K K K T K P F V b A H F K K U L L K Y F A c V F F H A V M G K P K ",
"K I K U F v b M V V V B N b c F P P K K L K Z V N N V V V F U K K Y K K H M N m Z Z V V N N b F T K ",
"U T F J N c m M b v n m N b N m V I K U F H V M N b N N b Z H K U K F H N N N M b M M n N N N N V L ",
"b V V N M b N N N N N x m N N N N B Z V C b M N b N N N b N N V b V V N N b b N N N N x N N N N N V ",
"N N N M b M 9 8 6 7 6 q N m m c N N N N n N 7 6 6 6 7 6 6 N N m m N N N N M 9 6 6 9 9 8 M N N N N N ",
"N N N m M 6 2 : 1 : * 3 6 N c M M c N N N 9 5 : , : : 4 7 M m N N n N m N 7 2 : 1 ; & 2 6 M N M N n ",
"0 6 7 7 6 4 :   $ X # @ 4 6 6 6 6 9 6 6 6 4 - O o @ @ + 4 6 6 6 7 6 7 6 6 4 : O O X O @ 3 6 6 6 6 6 ",
": % < : : : O X . $ + O : : : : : : < < = : + O o o O + , : > ; : & ; ; : < o O o O O O : : : , : : ",
"i i p i w w i y d d d i i w i i a i i p w e i d d d u r t g j h j k j z j j k l k f d i s i i s i i ",
"E o.E ..E O.+.@.! &.@.! | W E o.E E E  .E ..+.Q $.! ~ ) _ ` [ ( ( ^ ' ' / ^ { } ] #.%.Q +.X.E O.o...",
"w.0.0.8.q.9.7.0.5.7.9.6.5.w.w.0.6.9.0.8.7.9.9.q.0.9.q.e.y.a.s.l.d.s.d.k.k.f.s.u.e.0.w.0.0.5.0.9.8.0.",
"7.7.5.0.8.9.6.0.9.0.w.e.m.C.S.C.V.F.m.v.8.0.w.7.0.6.0.8.q.0.8.0.0.q.6.w.9.0.7.q.5.8.6.5.0.w.5.w.0.0.",
"7.0.w.0.7.6.8.6.0.8.0.p.L.T.~.R.W.T.J.M.0.6.5.9.9.w.0.5.8.0.w.5.6.5.9.7.q.0.q.9.9.0.6.9.9.w.w.9.w.0.",
"q.9.7.0.8.9.q.0.w.w.0.r.Y.=.1.4.1.;.U.A.9.w.6.9.q.8.5.w.5.w.8.5.q.w.0.5.0.6.9.9.6.w.7.0.7.0.w.6.5.q.",
"0.0.6.6.8.0.0.0.5.0.9.i.U.-.1.3.>.*.P.C.6.9.7.w.0.9.6.9.0.0.9.7.8.6.0.5.0.5.q.7.6.9.q.5.5.w.6.6.w.5.",
"5.0.6.6.0.9.0.q.7.6.8.i.N.D.G.S.D.S.b.x.9.8.w.q.5.w.0.9.0.8.w.6.5.9.0.0.0.9.7.9.8.9.w.0.q.w.0.6.6.q.",
"w.6.9.8.9.0.0.0.8.5.0.w.e.a.s.g.k.t.a.t.9.9.5.0.6.9.9.0.6.9.9.7.9.0.q.6.5.7.0.6.0.0.8.q.w.q.q.6.9.q.",
"8.0.w.9.8.w.6.w.8.8.6.8.w.0.0.6.5.6.9.0.q.0.5.w.w.9.9.6.w.5.q.8.0.6.5.w.0.9.0.9.a.y.h.g.k.g.k.s.s.k.",
"0.q.0.q.9.6.8.6.0.q.0.w.0.w.6.0.8.0.w.8.6.6.6.9.0.0.0.7.7.w.q.9.6.5.6.9.7.9.7.a.M.I.R.^.W.W.Q.W.E.W.",
"5.9.8.7.9.q.w.0.0.7.w.0.9.0.6.9.8.6.5.7.6.0.8.q.5.w.8.w.6.q.5.0.0.9.0.9.6.6.5.r.Z.;.<.:.<.:.>.<.:.1.",
"5.6.5.0.9.0.5.q.8.8.6.w.0.q.6.9.0.0.7.6.w.a.a.f.s.g.g.f.j.g.y.u.w.w.0.6.q.7.9.a.V.-.2.4.2.>.2.4.1.,.",
"7.9.6.8.w.6.9.6.7.8.0.6.w.0.9.0.w.0.0.8.u.z.n.S.C.A.G.F.C.V.B.c.u.8.w.8.w.8.8.y.B.U.E.Q.W.R.R.W.E.E.",
"6.0.9.7.q.6.5.9.6.0.6.5.9.0.0.w.0.w.6.8.t.V.I.:.<.4.4.,.>.2.I.A.t.0.0.q.q.0.8.8.a.r.f.k.h.d.f.j.f.h.",
"0.5.6.q.8.6.w.6.6.9.9.0.0.w.0.6.0.9.5.6.y.C.U.3.1.:.:.1.1.<.T.F.r.0.q.q.0.q.5.0.q.q.8.8.0.0.w.0.0.q.",
"9.0.0.6.0.0.0.7.0.0.0.q.9.w.6.0.9.6.9.0.y.N.H.E.E.~.^.!.W.^.K.m.r.7.0.w.0.9.8.0.0.w.0.q.0.9.q.6.q.q.",
"9.w.7.6.6.7.6.6.w.6.6.5.5.8.0.q.0.q.6.0.t.c.B.D.F.C.V.V.V.S.n.x.p.0.0.6.w.7.8.0.q.9.0.0.9.0.9.6.0.8.",
"0.w.w.7.w.0.9.8.0.8.6.0.6.q.6.6.6.7.5.9.w.7.0.0.q.w.0.8.6.5.w.0.w.0.5.0.9.0.w.9.8.0.0.q.w.0.9.q.w.6.",
"w.6.7.0.0.0.6.w.5.0.9.5.8.9.9.w.9.0.5.0.8.0.9.w.9.6.q.0.0.6.9.8.6.9.0.0.q.9.0.0.9.8.5.0.7.w.6.0.w.0.",
"w.9.0.8.0.w.0.7.7.5.0.w.q.0.6.9.0.w.q.0.q.w.6.w.w.9.q.9.6.0.8.q.8.w.w.9.6.7.5.0.w.9.w.5.w.8.6.0.q.8.",
"0.9.7.w.0.0.9.w.w.q.w.w.q.w.w.0.7.0.0.8.0.6.q.5.5.9.6.9.w.q.w.9.q.9.w.6.5.8.9.6.6.7.9.5.9.w.w.9.8.6.",
"6.w.9.8.0.7.9.6.w.w.q.w.0.5.5.5.q.8.6.0.6.w.9.w.8.0.0.w.6.0.6.9.7.9.5.0.0.w.5.q.9.0.6.w.w.5.6.6.5.9."
};
