/* XPM */
static char *result[] = {
/* columns rows colors chars-per-pixel */
"50 50 137 2 ",
"   c #76A058",
".  c #77A058",
"X  c #76A158",
"o  c #77A158",
"O  c #77A159",
"+  c #82A85A",
"@  c #82A95A",
"#  c #83A95A",
"$  c #82A85B",
"%  c #83A85B",
"&  c #82A95B",
"*  c #83A95B",
"=  c #98BA60",
"-  c #99BA60",
";  c #98BB60",
":  c #99BB60",
">  c #99BA61",
",  c #98BB61",
"<  c #99BB61",
"1  c #80AD71",
"2  c #83AE71",
"3  c #83AF71",
"4  c #80AD72",
"5  c #81AD72",
"6  c #80AC73",
"7  c #80AD73",
"8  c #81AD73",
"9  c #82AD73",
"0  c #81AE73",
"q  c #80AF73",
"w  c #83AE72",
"e  c #82AF72",
"r  c #83AF72",
"t  c #82AE73",
"y  c #A5C262",
"u  c #A4C362",
"i  c #A5C362",
"p  c #A4C263",
"a  c #A5C263",
"s  c #A4C363",
"d  c #A5C363",
"f  c #ADC866",
"g  c #ADC966",
"h  c #ACC867",
"j  c #ADC867",
"k  c #ACC967",
"l  c #ADC967",
"z  c #BAD06C",
"x  c #BBD06C",
"c  c #BAD16C",
"v  c #BAD06D",
"b  c #BBD06D",
"n  c #BAD16D",
"m  c #C0D470",
"M  c #C1D470",
"N  c #C0D570",
"B  c #C1D570",
"V  c #C0D471",
"C  c #C1D471",
"Z  c #C0D571",
"A  c #C1D571",
"S  c #98CAA6",
"D  c #99CAA7",
"F  c #91C7A8",
"G  c #91C6A9",
"H  c #92C6A8",
"J  c #92C7A8",
"K  c #93C7A8",
"L  c #92C6A9",
"P  c #92C7A9",
"I  c #91C8A8",
"U  c #92C8A8",
"Y  c #93C8A8",
"T  c #92C9A8",
"R  c #95C8A8",
"E  c #94C9A8",
"W  c #95C9A8",
"Q  c #96C9A8",
"!  c #97C9A8",
"~  c #95CAA8",
"^  c #ACDCBE",
"/  c #ACDDBE",
"(  c #ACDCBF",
")  c #ACDDBF",
"_  c #AEDEBE",
"`  c #AFDEBE",
"'  c #AEDEBF",
"]  c #AFDEBF",
"[  c #AEDFBF",
"{  c #AFDFBF",
"}  c #9AD4C2",
"|  c #9BD4C2",
" . c #9AD5C2",
".. c #9BD5C2",
"X. c #9AD4C3",
"o. c #9BD4C3",
"O. c #9AD5C3",
"+. c #9BD5C3",
"@. c #9CD4C2",
"#. c #9CD5C2",
"$. c #9DD5C2",
"%. c #9CD4C3",
"&. c #9DD4C3",
"*. c #9CD5C3",
"=. c #9DD5C3",
"-. c #9FD4C2",
";. c #9ED5C2",
":. c #9FD5C2",
">. c #9ED4C3",
",. c #9ED5C3",
"<. c #9FD5C3",
"1. c #9ED7C2",
"2. c #9ED6C3",
"3. c #9FD6C3",
"4. c #9ED7C3",
"5. c #A0D6C2",
"6. c #A0D7C2",
"7. c #A1D7C2",
"8. c #A1D7C3",
"9. c #A2D8C0",
"0. c #A3D8C0",
"q. c #A2D9C0",
"w. c #A3D9C0",
"e. c #A2D8C1",
"r. c #A3D8C1",
"t. c #A2D9C1",
"y. c #A3D9C1",
"u. c #A4D9C1",
"i. c #A7DAC0",
"p. c #A7DBC0",
"a. c #A6DAC1",
"s. c #A7DAC1",
"d. c #A7DBC1",
"f. c #A9DAC0",
"g. c #A9DBC0",
"h. c #A8DBC1",
"j. c #A9DBC1",
/* pixels */
"o.o.X.o.o.+.+.+.X.X.+.| o.o.| +.| o.+.o.o.F 7 * - a i s v v m V m V n v N m V m M m N m m m m V A m ",
"O.| | o.+.X.o.X.O.X.X.X.+.X.o.X.| o...X.o.J 7 * = d i j z M N N m m m Z m N m m B m m m V M N m m m ",
"| o.} o.o.+.+.+.o.o.| | } +.X.+.o.| o.o.X.J 7 * = s a l v m M m m V m M V N N A m m m C M m m V m m ",
"o.o.o.+.o.o.| o.| ..o.o.o...o.o.o.+.X.o.+.J 7 * - u d d n v N M C m V m M m m m N m m m m m V m m Z ",
"o.+.o.o.o.} o.| o.+.o.+.o.o.X.X.o.o.| o. .J 8 @ - d s d d f z m m m m M V m m m m V V m N m m m N M ",
"| o.o.X.| | ..X.O...X.| o.X.| o.o.O.o.o.*.E 8 & : - i d d l b m m m m m m N B N V N C m M M m C N m ",
"| o.+.X.o.o.+.o.o.o.o.o.+.o.| X.| +.+.o.*.Q w O * * = u a j v B m C m m m N N m m N M m m m m m M V ",
"| | | O.+.O.o.o.+.| +.O.+.+.| o.X.o.O.o.$.D r O . # = i d j b m m M N m m m V m Z N B m M M V m m m ",
"} o.o.o.X.o.| o.} o.o.X.X.+.O.o.X.X. .+.$.S 3 o o % > a d g v m M N M V M V V m V m N V m C N Z m m ",
"o.+.O.| +...o.X.o.+.X.o.X.o.O.o.o.+.+.o.*.R t o & % - d d s v v m M V m b v V m M m m m m m M V m V ",
"X.} +.o.o.O.X.o.| o...+.+.o.| o.o.o.X.| +.Y 7 * ; = s a p a p l v C V n j j b m m M m m m m m M m m ",
"X.o.o...+.X.| o.| +.| o.+.| o.o.X.+.X.| } G 1 & - d d i s y l j x N m v j j n V V m M m N m M m m M ",
"| X.o.o.+.o.} +.o.o.O.X.X...o...o...o.| X.J 7 $ : d i s d d j z N m V m v v m m M m m m m V m Z V m ",
"X.o.+.| +.+.+.o.X.o.O.+.X.+. .| X.O.O.| O.I 7 * - d a d s k v N V V N m m M m M m m N M m m N m Z M ",
"-.>.;.:.;.:.-.:.$.%.o.X.X.X.o.| X.+.+.+.X.J 7 * - d i d n v m V V m m N M M M m V m m B M M m V V V ",
"r.r.0.r.0.0.y.r.9.2.*.o.O.| o...} o.o.o.o.K 6 % - a i d z v m M m m m V m m V M m N m Z V m m m N M ",
"] ' ' ' ] _ ' ] ( w.$.o...o.o.o. .+.+.o.o.F 4 * - i i i p j n m M N M m m V m M m m N N m N m m m m ",
"[ ' _ [ ' ' { ] / 9.$.+.o.o.o.o.| o.O.+.+.P 7 + , s d a d j v m m N m m m m m m N m m m M m N m m A ",
"g.j.h.g.f.g.g.j.i.6.=.o.X.| o.o.o.o.o.o.+.J 7 % = s i d a j v N m V V B N V m m m m m m m m M m m m ",
"9.r.r.r.e.q.r.e.t.4.*.| o.o...O.o.O.+.o.+.J 7 * - d d d d j v N v v m V m m m m m m N m V m M m V m ",
"+.| +.o.| | o.| O.o.o.| X.o.o.| o.| o.o. .J 7 * - p d d v v M v l j v m V m m Z m V m M m m V m M m ",
"| | o.o.o...} X.o.o.} X.+.| +.o.o.X.o.+.+.H 7 % - d d j b m N b g l v m N N m m m V m m M N B m m N ",
"+.o.o.o.o.X.} | | o.o.+.O.} o.+.o.| X.X.| Y 7 * - d d j c m m m v v m m V m N V V N M V m C m M M m ",
"o.o.o.o.o.o.O.| O.| +.O...o.o.| | ..o.X.O.F 7 * > - a s n b m m N N V m V m m N v v M N M m m V m m ",
"+.| +.X.+.+.o.o.o.o.| X.+.o.o.o.| +.o.| +.J q o & + - d d l v N m m m m m Z m c j j n m N m N M m m ",
" .o.o.+.o.+.o.o.o.| o.} o.| o.X.o.X.o.+.o.F 8 o o * - y i l j v M m m M m m m v h j b m M V m m V M ",
"o.X.o...o...o.o.o.+.o.o.| | o.o.+.| O.o.X.F 5 X . * - p a d d j z N N m C m m m v v m m m m m N m m ",
"o.o.o.o.O.} o.} o.o.+.X.o.} o.| o.o.+.+.| L 9 o o % - d s u j l b m m m m m m m m N m V m M M m m N ",
"o...o.o.o.+.X.} | +.o.| X. .o.+.| | | o.o.F 8 X O & > d d d b z N m m m M m m N m V m N m m V m m m ",
"o.o.o.| } o.| | |  .o.| o.| +.o. .o.X.o. .J 8 o * * - d d j v m m M v v m m m B m m m m m M m m m m ",
"....} o.| o.| O.o.o.+.#.6.y.r.r.r.e.5.1.o.J 7 * - - a s d d v m m c l f v m m m m M m m N m M m M M ",
"o.+.| o.X.| | o.X.X.o.=.u.s.h.j.f.i.u.7.o.J 7 * - d i d u f v m m v j j b m m m m B m N m m N m M N ",
"+.o.O.+...X.X.X.+.+.o.$.d.) ' ' ' ) p.e.X.T 7 * - i y s v v N V m m v b m m m N m m N m m N V V A m ",
"O.o...X.+.o.+.X.} o.o.*.p.) _ ' ` ^ a.r.} F 7 * ; d d j v m N m N m V V m m m m M M N m m m m m m V ",
"| X.O.| o.o.X.} | o.+.=.8.r.r.r.r.t.6.3.X.J 6 * = d a k v m m m m N m N V N m B m m m m m m m m m m ",
"o.o.X.} +.o.o.o.+.o.+.X.&.$.;.,.<.#.&.=. .F 7 * : s d d v b m m C m m m V m m V m N m M m m m m C m ",
"o.X.O.X.o.| } +.+...o.+.o.o.o.| } X.X.+.X.U 7 # - i s d a f x N m m m m m m m m m m m m M m m m N m ",
"o.| o.+.| +.+.| +.+.X.| X.O.| +.| +.o...o.U 7 * - = i d d l b N m N m m Z N B N V N m M B m m M N m ",
"| X.+.o.o.o...o.+.X.o.o.X.| | X.O...+.X.X.H 0 o * * = a d j v N N M m m m m M m m m M m m V m m M m ",
"} X.O.| +.o.| o.o.| X.+.+.o.o.o.o.X.o.o.o.Y 0 o o * = d d j z m m m m m m m m N N N m m m m m m V m ",
"} o.o.| o.| X.+.X.o.| o.o.+.X.o.+.+.o...*.W t O   * > d d g v m M N M m m m V m V m N V m C m V M m ",
"| | X.O.+.} X.+...| o.| X.| o.o.o.+...| @.S e o % * - d d s v v m m m m v v m m M m B m V m V V m V ",
"o.X...o.| | o.o.o.+.o.| o.} o.o.| o.X.X.$.S w % - ; s d i s s j v m m v j l b m m V m m m m m m m m ",
"X.| o...o.o.o.O.o.o.o.X.o.o...+.X.| O.+.$.! 2 * - s a i s d k j z V m v j j n m m m m V N m M m m M ",
"o.o.| | | o.X.| ..o.o.+.X.o.o.+.| o.X.+.%.~ 8 % - d a u d d j v M m V m v z m m M V m m m V N m m m ",
"o.o.o.o.X.o.+...| O.o.| | X.| | | } o.X...K 7 * - d i d s k v m V m N m m V m M m m m B m m m m V C ",
"o.o. .o.X.o.+.+.} X.o. .| X.o.o.o.|  .+.o.J 5 * = i d d v v m V m m m m M M B V C m V M M m m V m V ",
"o.X.o.o.| X.+.O.X.+.o.o.X.} | } o.+.o.+.O.J 6 % - d d d v n m M m N m N m m Z m m M m N m m M m m m ",
"| o.o.+.X.o.+.| o.X.+.O.X.o.| o.o.+.o.o.O.J 7 * < d i i d f n m m m m m m V m m m N N N m N m m m m ",
"| | X.o.X.X.o.| | o.| o.+.o.| o.O.+.o.X.+.J 6 * = s d d d j v m V m m m m m m m m m m m B m m m m A "
};
