/* XPM */
static char *result[] = {
/* columns rows colors chars-per-pixel */
"50 50 207 2 ",
"   c #76A058",
".  c #77A058",
"X  c #76A158",
"o  c #77A158",
"O  c #77A059",
"+  c #76A159",
"@  c #77A159",
"#  c #78A25C",
"$  c #79A25C",
"%  c #79A35C",
"&  c #78A25D",
"*  c #7DA86A",
"=  c #7DA96A",
"-  c #7DA96B",
";  c #7DAA6A",
":  c #7FAC71",
">  c #7FAD72",
",  c #83A85A",
"<  c #82A95A",
"1  c #83A95A",
"2  c #82A85B",
"3  c #83A85B",
"4  c #82A95B",
"5  c #83A95B",
"6  c #97B85E",
"7  c #96B95E",
"8  c #97B95E",
"9  c #96B85F",
"0  c #97B85F",
"q  c #96B95F",
"w  c #97B95F",
"e  c #80AC6F",
"r  c #9CBC60",
"t  c #9CBC61",
"y  c #9DBC61",
"u  c #80AC70",
"i  c #80AC71",
"p  c #81AC71",
"a  c #80AD71",
"s  c #82AD71",
"d  c #82AE70",
"f  c #80AC72",
"g  c #81AC72",
"h  c #80AD72",
"j  c #81AD72",
"k  c #80AC73",
"l  c #80AD73",
"z  c #84AF70",
"x  c #85AF73",
"c  c #A4C262",
"v  c #A5C262",
"b  c #A4C362",
"n  c #A5C362",
"m  c #A4C263",
"M  c #A5C263",
"N  c #A4C363",
"B  c #A5C363",
"V  c #A9C464",
"C  c #A9C564",
"Z  c #A9C465",
"A  c #A8C565",
"S  c #A9C565",
"D  c #AAC666",
"F  c #ABC666",
"G  c #AAC766",
"H  c #ABC766",
"J  c #AAC767",
"K  c #ABC767",
"L  c #B0CA68",
"P  c #B1CA68",
"I  c #B0CA69",
"U  c #B1CA69",
"Y  c #B1CB69",
"T  c #BAD06C",
"R  c #BAD16C",
"E  c #BBD16C",
"W  c #BAD06D",
"Q  c #BBD06D",
"!  c #BAD16D",
"~  c #BBD16D",
"^  c #C0D470",
"/  c #C1D470",
"(  c #C0D570",
")  c #C1D570",
"_  c #C0D471",
"`  c #C1D471",
"'  c #C0D571",
"]  c #C1D571",
"[  c #87B886",
"{  c #87B987",
"}  c #88B886",
"|  c #8BBF93",
" . c #8BBE94",
".. c #8BBF94",
"X. c #8CBE95",
"o. c #98CBA6",
"O. c #98CAA7",
"+. c #9DCCA7",
"@. c #91C6A8",
"#. c #91C7A8",
"$. c #92C6A8",
"%. c #92C7A8",
"&. c #93C7A8",
"*. c #91C8A8",
"=. c #92C8A8",
"-. c #93C9A8",
";. c #92C8A9",
":. c #95C8A8",
">. c #95CBB0",
",. c #95CAB1",
"<. c #94CBB1",
"1. c #95CBB1",
"2. c #96CBB1",
"3. c #94CCB1",
"4. c #95CCB1",
"5. c #96CCB1",
"6. c #98D2BE",
"7. c #99D2BE",
"8. c #99D3BE",
"9. c #99D2BF",
"0. c #A1CFA5",
"q. c #A1D0A5",
"w. c #ADDCBE",
"e. c #ACDDBE",
"r. c #ACDCBF",
"t. c #ADDCBF",
"y. c #ADDDBF",
"u. c #AEDEBE",
"i. c #AFDEBE",
"p. c #AEDFBE",
"a. c #AFDFBE",
"s. c #AEDEBF",
"d. c #AFDEBF",
"f. c #AEDFBF",
"g. c #AFDFBF",
"h. c #B0E0BE",
"j. c #B1E0BE",
"k. c #B1E1BE",
"l. c #B1E0BF",
"z. c #B0E1BF",
"x. c #B1E1BF",
"c. c #9AD4C2",
"v. c #9BD4C2",
"b. c #9AD5C2",
"n. c #9BD5C2",
"m. c #9AD4C3",
"M. c #9BD4C3",
"N. c #9AD5C3",
"B. c #9BD5C3",
"V. c #9CD4C2",
"C. c #9DD4C2",
"Z. c #9CD5C2",
"A. c #9DD5C2",
"S. c #9CD4C3",
"D. c #9DD4C3",
"F. c #9CD5C3",
"G. c #9DD5C3",
"H. c #9ED4C2",
"J. c #9FD4C2",
"K. c #9ED5C2",
"L. c #9FD5C2",
"P. c #9ED4C3",
"I. c #9FD4C3",
"U. c #9ED5C3",
"Y. c #9FD5C3",
"T. c #9ED6C2",
"R. c #9FD6C2",
"E. c #9ED7C2",
"W. c #9FD7C2",
"Q. c #9ED7C3",
"!. c #A0D6C2",
"~. c #A1D6C2",
"^. c #A0D7C2",
"/. c #A1D7C2",
"(. c #A0D6C3",
"). c #A1D6C3",
"_. c #A0D7C3",
"`. c #A1D7C3",
"'. c #A2D8C0",
"]. c #A3D8C0",
"[. c #A2D9C0",
"{. c #A3D9C0",
"}. c #A2D8C1",
"|. c #A3D8C1",
" X c #A2D9C1",
".X c #A3D9C1",
"XX c #A4D8C0",
"oX c #A4D9C0",
"OX c #A5D9C0",
"+X c #A4D8C1",
"@X c #A5D8C1",
"#X c #A4D9C1",
"$X c #A6DAC0",
"%X c #A7DAC0",
"&X c #A6DBC0",
"*X c #A7DBC0",
"=X c #A7DAC1",
"-X c #A6DBC1",
";X c #A7DBC1",
":X c #A8DAC0",
">X c #A9DAC0",
",X c #A8DBC0",
"<X c #A9DBC0",
"1X c #A8DAC1",
"2X c #A9DAC1",
"3X c #A8DBC1",
"4X c #A9DBC1",
/* pixels */
"/ ^ ] ( ' ^ ) ^ ^ ^ ^ / ^ ^ ^ _ ^ _ ^ R H B B w 5 o . j #.b.m.M.v.v.m.b.M.b.c.J.|.s.k.z.x.j.h.z.j.x.",
"( ^ / ^ / ^ ^ ( ^ ^ ^ ^ / _ ^ ^ / _ ( Q H B v q 5 . o u %.n.m.B.m.b.b.N.N.n.m.U.}.s.j.h.k.l.k.k.j.h.",
"^ ^ ^ ^ ^ ^ ^ ^ ^ ^ ^ _ ^ / ^ ^ / ^ ^ ~ H b B w < o   p #.M.B.m.v.b.B.M.M.v.N.D.(.%X>X1X>X4X:X,X,X<X",
"^ ^ _ ^ ^ ^ ^ ^ _ ^ ~ ~ ^ ^ ^ ^ ( _ ~ P S N B t 5 5 o f %.c.n.b.c.M.c.B.m.M.M.C.E. X|.[..X|..X|..X].",
"^ ^ ` ) ^ ^ ( ^ _ ~ U Y ~ ^ ^ ( ' ~ U S M M n n y w 4 i &.n.m.b.b.n.v.v.n.c.M.M.G.F.I.P.H.L.U.Y.K.I.",
"^ ( / ` ' ( ^ ^ / ~ P L ! / ^ ( ^ E U C n M B B B 0 5 s o.}.(.W.Z.v.v.B.n.M.M.B.m.n.B.M.m.N.B.b.n.n.",
"' ( ^ ^ ^ ^ / ^ ^ ^ ~ T ( ^ ^ / ( ( Q U S B B M B w 3 d +.<X#X^.D.v.m.B.B.M.n.v.m.n.v.B.N.B.m.v.N.M.",
"/ ^ / ^ ^ ^ ^ ^ ^ ( ^ / ^ ^ ^ ^ ^ ^ ~ Y V B M B B w 5 z q.f.*X'.G.B.m.M.b.n.m.N.v.c.M.B.M.v.v.v.B.M.",
"^ ^ _ ( _ ^ ) ^ _ ^ / ^ ^ _ ^ ( ( ~ U A B B n M n w 5 x 0.f.%X XD.B.n.m.M.B.B.v.M.v.M.b.M.N.v.M.N.c.",
"^ ^ / ^ ^ ^ / ^ / / ^ ^ ^ ^ ^ ^ / Q U S B B B m y w 5 s O.[.`.R.S.m.m.c.c.m.c.n.B.M.B.M.v.M.M.N.m.M.",
"^ ^ _ ^ _ ^ ( ^ ^ ^ ^ ) ( ^ ^ ^ ^ ^ ~ P S b N t 5 5 X j :.J.S.C.N.n.B.b.N.m.N.M.B.B.n.c.M.M.v.m.M.v.",
"( ^ _ _ ^ ( ^ ( ^ / / / ^ ^ ^ ^ ) ( ^ E G B c w 5 o o f @.n.m.M.c.m.B.M.N.N.M.M.M.m.v.c.N.B.v.M.v.b.",
"^ ' ( ( ( ) ^ ( ^ _ _ ^ ^ / _ ^ ^ ^ ^ ~ H M N 9 5 O o e $.b.n.n.m.b.b.v.c.B.m.n.m.m.N.M.M.M.c.v.m.M.",
"^ ^ ^ ( ^ ^ R Q ^ ^ ^ _ ! ~ ( ^ _ ^ ~ U S B B 0 5   o g #.M.M.n.c.v.m.n.N.v.v.v.n.N.M.v.B.M.m.N.m.m.",
"^ _ ( ^ ^ ~ Y U ~ ^ ^ ~ U U Q ^ ^ ~ U A B M M y 5 X + h =.v.B.v.M.B.c.N.M.c.v.v.B.N.B.N.M.B.Z.A.P.Y.",
"^ ^ ^ _ ' E U I ~ _ ^ ! P U W ( ^ ~ K B B B y q 5 # = [ 3.M.M.B.N.N.M.M.M.B.M.B.N.m.N.v.m.C.Q.!.[.'.",
"_ _ ^ ^ ^ ^ ~ ! ^ ^ ^ ^ ~ ~ ^ ^ ] ~ F B n t 5 5 o = X.<.9.B.v.n.m.v.m.c.v.n.v.M.n.b.b.c.B.G.}.$Xf.i.",
"/ ^ ^ ^ ) ^ _ ( ^ ^ ^ ^ _ ( ^ ( ~ U S M B w 5 + @ i *.v.c.N.v.M.M.M.v.B.N.M.v.B.v.c.B.v.m.A.{.%Xd.d.",
"^ ^ ^ ` ^ ( ^ ^ ( ^ _ / ^ ^ ^ ~ P S n B N w 5 o o g #.c.N.B.M.c.m.M.M.M.m.B.c.v.c.M.b.c.m.D.^.OX>X2X",
"^ / ^ ^ ~ ! / ^ ) ^ ~ ~ ~ E ~ Y S b M B B q 4 o o : =.B.M.c.c.v.m.B.N.m.M.M.n.c.b.M.M.B.N.A.T.^..X].",
"^ ^ ] ~ U U ~ ^ ^ E P F D H F S B B B M B t 1 . @ f #.m.v.B.N.M.m.N.M.b.n.M.m.c.m.M.n.b.B.B.M.n.v.N.",
"~ ! ~ U S A U ~ ~ U S c B v B B B B M B t 7 5 $ * { >.v.M.M.c.M.m.B.N.M.m.c.n.n.m.v.m.N.M.c.n.n.B.N.",
"H K H A n M G H J Z n B B B M B B B B t 5 1 o * | 2.6.M.v.B.c.m.v.c.n.M.m.M.m.m.B.N.c.m.M.M.M.M.b.m.",
"m N B N t 8 w t B M N B y 6 q w q w 8 w < & = [ <.c.B.F.S.C.L.P.I.H.P.L.K.U.P.D.D.v.B.v.B.M.b.c.B.B.",
"B B B r 5 5 5 5 t B n t 5 5 5 5 , 5 5 < @ ;  .4.8.M.B.R.!..X'.|. X|.|.{.|.}.|.}./.S.v.m.m.B.m.m.c.M.",
"0 0 0 q 2 o o 4 0 t t q 5 o . % = k : h f [ ,.n.c.c.n.~.@X%X>X<X,X,X:X3X1X,X<X-X#XG.M.m.N.M.n.N.N.M.",
"5 1 4 , o @ O o 5 < 5 5 o o . - ..#.;.*.#.1.9.M.m.N.m.|.=Xr.p.s.s.g.f.d.d.s.g.y.%XA.v.m.v.B.m.M.m.v.",
"> h f f a i h i g k h h f i l } >.M.B.B.v.v.B.M.M.M.v.^.@X;X3X4X:X<X<X<X3X<X,X;X#XG.N.B.M.M.M.n.M.N.",
"%.-.%.&.%.=.#.$.%.%.#.=.#.*.=.5.7.n.v.M.v.v.B.v.N.v.n.T./.}. X].].].}.|.'.{.].|./.S.n.b.m.M.n.M.M.B.",
"B.M.M.n.N.M.b.m.c.b.B.n.v.M.N.B.v.m.m.n.b.m.m.M.M.m.N.V.G.V.H.Y.J.H.J.U.U.K.K.S.C.N.B.v.M.m.M.m.v.B.",
"n.b.c.M.n.M.v.m.m.v.B.Z.^.].}.|. X X_.Q.n.m.B.n.M.v.M.n.B.M.B.M.M.N.v.B.N.M.m.B.M.n.M.m.M.B.m.N.N.M.",
"b.M.B.M.b.c.n.B.M.n.M.F.oX=X3X,X<X=XOX/.M.v.c.v.m.B.m.m.M.M.B.c.v.c.m.b.v.m.m.m.m.v.M.m.m.B.n.N.B.M.",
"N.c.b.B.b.m.n.M.M.B.M.S.=Xe.d.g.s.y.*X].m.B.M.m.N.n.c.M.c.M.B.c.n.B.M.m.M.c.m.M.M.B.v.M.b.v.B.v.m.N.",
"M.M.v.c.n.M.M.M.m.M.M.D.*Xt.p.f.i.w.$X|.v.m.b.M.M.b.v.m.B.M.m.b.n.v.B.c.B.b.N.b.v.m.N.b.m.M.v.c.N.m.",
"c.N.c.c.M.m.M.N.b.v.B.D.`.}..X}..X}.!.R.m.n.n.M.c.M.M.m.m.M.B.c.v.m.M.M.M.m.m.m.v.m.n.M.N.M.M.v.v.N.",
"B.v.m.b.m.v.M.M.n.c.M.v.V.G.H.U.Y.Z.G.Z.N.c.v.M.M.m.m.v.v.m.c.c.M.v.M.v.c.n.v.v.M.M.n.N.B.N.N.v.M.N.",
"M.M.B.M.n.B.n.n.B.n.M.v.B.M.m.v.v.M.m.N.m.M.v.B.B.m.m.v.B.v.N.n.M.v.c.B.M.m.v.m.G.A.U.J.U.L.U.H.H.P.",
"M.N.M.M.m.n.n.v.M.m.v.n.M.B.c.N.n.M.B.n.v.c.v.m.M.M.M.b.n.B.N.M.M.m.v.m.b.m.b.G./.&X:X4X,X,X<X<X>X,X",
"m.c.n.b.M.N.B.M.M.b.B.c.m.M.v.c.B.v.v.b.M.M.v.B.b.n.v.B.c.N.c.B.m.M.v.B.v.v.v.C.[.y.a.u.g.s.i.g.d.s.",
"b.n.m.M.m.M.c.N.N.v.v.B.M.B.M.n.M.M.c.v.b.G.D.K.H.L.L.K.I.L.A.S.B.B.M.v.N.b.m.G.].r.d.d.d.f.i.g.s.s.",
"n.c.v.v.B.v.m.v.N.n.M.v.B.M.m.M.n.M.M.M.S.T.~.}.|.{..X.X].]._.E.D.n.n.n.B.n.n.C.!.%X>X,X,X>X:X,X<X:X",
"v.M.m.b.B.b.m.m.v.c.v.v.m.M.B.N.M.B.n.n.Z.].-Xf.a.g.d.p.d.s.&X{.Z.M.M.N.N.n.M.B.G.V.U.U.P.J.U.H.K.K.",
"M.c.M.N.n.v.B.M.c.m.m.B.M.N.v.c.M.m.c.m.A.{.*Xf.s.u.u.u.s.a.$X XA.B.B.N.M.N.c.M.N.B.b.n.M.B.B.m.M.N.",
"b.B.M.v.m.M.M.N.m.M.v.N.N.B.v.B.m.v.N.c.A.).XX>X>X3X4X2X4X4X+X^.A.b.M.n.M.N.n.v.v.M.M.b.M.m.N.v.m.N.",
"m.n.b.v.v.m.n.v.B.v.v.m.c.n.M.B.M.N.c.M.Z.W.^.|. X{.'.'.}.}.~.T.A.M.M.v.b.c.B.M.B.m.M.n.m.M.m.n.M.B.",
"B.B.B.b.B.M.B.n.M.b.M.M.v.m.v.v.v.c.c.m.n.v.M.c.m.M.M.n.v.c.M.M.B.M.c.m.m.M.B.m.B.M.M.N.B.M.N.b.B.n.",
"B.v.n.M.M.M.v.B.c.M.m.c.n.m.m.m.m.M.c.B.n.M.m.B.M.n.N.m.M.v.m.n.v.N.B.M.N.m.M.M.m.n.c.M.B.B.n.M.B.m.",
"B.m.M.v.m.M.M.b.m.c.B.B.N.M.n.n.M.B.n.M.c.B.v.M.N.m.N.b.v.B.n.N.v.B.n.c.v.m.m.v.B.m.B.c.B.B.v.B.N.n.",
"M.N.c.n.M.M.M.M.B.N.n.B.N.B.B.B.c.m.v.v.M.v.N.m.m.m.v.M.B.N.B.m.b.m.B.v.c.n.M.v.v.b.m.v.m.B.B.m.n.v.",
"v.b.m.n.M.c.m.b.M.B.N.B.M.c.c.m.c.n.v.M.v.n.m.B.n.M.M.B.c.M.n.b.N.m.c.v.c.N.c.N.m.M.M.B.B.c.v.c.M.M."
};
