/* XPM */
static char *result[] = {
/* columns rows colors chars-per-pixel */
"50 50 164 2 ",
"   c #7CA359",
".  c #7DA359",
"X  c #7BA459",
"o  c #7CA458",
"O  c #7DA458",
"+  c #7CA459",
"@  c #7CA559",
"#  c #7DA45A",
"$  c #84AA5A",
"%  c #84AB5A",
"&  c #84AA5B",
"*  c #85AA5B",
"=  c #84AB5B",
"-  c #85AB5B",
";  c #8CB05C",
":  c #8DB05C",
">  c #8CB15C",
",  c #8DB15C",
"<  c #8DB05D",
"1  c #80AE73",
"2  c #80AF73",
"3  c #82AE73",
"4  c #80AE74",
"5  c #80AF74",
"6  c #80AE75",
"7  c #80AF75",
"8  c #82AE74",
"9  c #82AF74",
"0  c #82AE75",
"q  c #80AE76",
"w  c #80AF76",
"e  c #82AE76",
"r  c #A0C062",
"t  c #A1C062",
"y  c #A0C162",
"u  c #A1C162",
"i  c #A0C063",
"p  c #A1C063",
"a  c #A0C163",
"s  c #A1C163",
"d  c #A8C464",
"f  c #A9C464",
"g  c #A8C564",
"h  c #A9C564",
"j  c #A8C465",
"k  c #A9C465",
"l  c #A9C565",
"z  c #B0CA66",
"x  c #B1CA66",
"c  c #B0CB66",
"v  c #B0CA67",
"b  c #B1CA67",
"n  c #B0CB67",
"m  c #B1CB67",
"M  c #BAD06C",
"N  c #BAD16C",
"B  c #BBD16C",
"V  c #BAD06D",
"C  c #BBD06D",
"Z  c #BAD16D",
"A  c #BBD16D",
"S  c #C0D470",
"D  c #C1D470",
"F  c #C0D570",
"G  c #C1D570",
"H  c #C0D471",
"J  c #C1D471",
"K  c #C0D571",
"L  c #C1D571",
"P  c #90C4A6",
"I  c #91C4A6",
"U  c #91C5A6",
"Y  c #91C5A7",
"T  c #90C6A6",
"R  c #91C6A6",
"E  c #91C7A6",
"W  c #91C6A7",
"Q  c #92C6A6",
"!  c #9AD4BF",
"~  c #ACDDBE",
"^  c #ACDDBF",
"/  c #AEDEBE",
"(  c #AFDEBE",
")  c #AEDFBE",
"_  c #AFDFBE",
"`  c #AEDEBF",
"'  c #AFDEBF",
"]  c #AEDFBF",
"[  c #AFDFBF",
"{  c #B0E0BE",
"}  c #B1E0BE",
"|  c #B1E1BE",
" . c #B1E0BF",
".. c #B1E1BF",
"X. c #9AD3C1",
"o. c #9BD3C1",
"O. c #9CD3C0",
"+. c #9DD3C0",
"@. c #9AD4C0",
"#. c #9BD4C0",
"$. c #9AD5C0",
"%. c #9BD5C0",
"&. c #9AD4C1",
"*. c #9BD4C1",
"=. c #9AD5C1",
"-. c #9BD5C1",
";. c #9AD4C2",
":. c #9BD4C2",
">. c #9AD5C2",
",. c #9BD5C2",
"<. c #9AD4C3",
"1. c #9BD4C3",
"2. c #9AD5C3",
"3. c #9BD5C3",
"4. c #9CD4C0",
"5. c #9CD4C1",
"6. c #9DD4C2",
"7. c #9CD5C2",
"8. c #9DD5C2",
"9. c #9CD4C3",
"0. c #9DD4C3",
"q. c #9CD5C3",
"w. c #9DD5C3",
"e. c #9ED4C2",
"r. c #9FD4C2",
"t. c #9ED5C2",
"y. c #9FD5C2",
"u. c #9ED4C3",
"i. c #9FD4C3",
"p. c #9ED5C3",
"a. c #9FD5C3",
"s. c #9ED6C2",
"d. c #9FD6C2",
"f. c #9ED7C2",
"g. c #9FD7C2",
"h. c #9FD6C3",
"j. c #9ED7C3",
"k. c #A0D6C2",
"l. c #A1D6C2",
"z. c #A0D7C2",
"x. c #A1D7C2",
"c. c #A0D7C3",
"v. c #A2D8C0",
"b. c #A3D8C0",
"n. c #A2D9C0",
"m. c #A3D9C0",
"M. c #A2D8C1",
"N. c #A3D8C1",
"B. c #A2D9C1",
"V. c #A3D9C1",
"C. c #A5D9C0",
"Z. c #A5D8C1",
"A. c #A4D9C1",
"S. c #A6DAC0",
"D. c #A7DAC0",
"F. c #A6DBC0",
"G. c #A7DBC0",
"H. c #A8DAC0",
"J. c #A9DAC0",
"K. c #A8DBC0",
"L. c #A9DBC0",
"P. c #A8DAC1",
"I. c #A9DAC1",
"U. c #A9DBC1",
/* pixels */
"1.:.<.<.3.:.1.3.<.1.3.:.1.3.:.>.>.1.,.1.<.<.<.3.,.1.3.3.>.3.<.1.:.,.<.2.1.;.;.r.N.] | .. .{ } .... .",
"<.1.<.2.,.;.1.1.2.1.<.<.,.<.1.<.:.1.,.<.<.<.3.1.;.1.1.:.,.3.<.1.1.,.;.2.3.,.1.t.M.` } | }  .|  .{ } ",
":.:.;.:.1.3.,.,.1.1.:.1.:.1.3.<.:.:.;.3.2.1.1.;.3.<.3.:.>.1.1.<.;.:.1.1.1.;.3.0.k.G.I.L.J.U.P.L.K.L.",
"1.,.:.3.,.1.:.1.>.3.1.;.1.>.:.1.<.3.1.3.1.1.1.1.1.:.<.3.3.<.3.,.;.3.<.3.3.1.3.0.g.B.N.m.V.N.B.N.V.v.",
"1.2.3.1.;.;.1.,.1.3.<.3.,.3.<.<.1.1.:.1.>.:.1.:.<.1.3.;.1.3.;.,.;.,.1.:.:.,.1.<.8.7.e.i.e.y.t.a.t.y.",
":.<.:.;.:.:.,.<.1.;.2.:.1.<.1.1.<.2.1.1.q.d.k.v.N.N.N.M.m.N.x.f.q.:.,.3.1.<.1.1.1.3.1.1.1.1.1.<.,.,.",
"3.1.,.<.1.3.3.3.<.1.1.1.1.:.<.;.:.3.3.2.9.x.Z.K.L.L.H.L.P.L.A.z.0.:.<.<.3.1.3.:.:.1.:.1.2.3.2.1.3.1.",
">.:.>.3.2.<.1.1.,.;.3.<.1.1.1.<.1.1.<.1.6.M.S./ _ [ / / ] ` F.M.w.3.1.1.>.,.1.1.1.;.1.1.;.:.:.1.3.1.",
":.1.:.<.<.1.:.1.;.3.1.;.<.1.<.:.<.<.>.1.8.v.G.] _ ] ' / ( ` D.M.6.1.>.<.1.2.1.:.1.;.3.;.1.1.1.1.2.;.",
"1.3.2.,.3.,.:.1.1.3.2.1.1.3.2.1.2.3.:.3.9.s.l.b.b.N.M.N.N.N.c.d.0.<.<.1.:.1.;.>.1.<.1.<.:.1.1.3.1.2.",
"1.:.2.3.1.3.<.:.:.<.3.3.1.1.:.1.1.1.:.:.<.7.8.e.t.t.y.t.t.r.0.8.<.:.1.,.:.1.<.:.<.3.1.1.1.3.:.3.:.3.",
"2.1.1.,.,.2.:.1.;.3.:.1.3.,.1.3.<.3.<.,.1.<.1.;.,.;.<.:.<.:.;.<.2.<.3.<.3.<.<.3.1.<.:.<.:.3.;.1.;.>.",
",.1.3.3.3.,.2.3.3.1.2.1.1.>.1.,.1.>.1.<.<.<.1.3.<.,.<.:.1.>.3.>.3.<.>.:.;.3.<.>.<.<.2.1.1.1.:.:.1.1.",
"1.1.>.:.<.1.3.1.1.<.<.3.;.1.2.:.<.2.3.,.2.2.;.<.;.1.;.:.<.1.1.3.;.1.1.:.<.:.:.:.,.2.1.:.1.1.<.2.;.;.",
"a.i.p.t.y.a.e.t.7.9.1.1.<.:.1.1.<.3.3.3.<.1.3.3.<.3.>.,.:.1.2.:.<.1.<.3.1.>.2.1.3.2.3.2.1.>.q.7.u.p.",
"V.N.v.b.b.b.b.B.b.h.w.3.<.:.1.,.;.3.1.1.,.;.2.3.>.1.1.:.3.:.:.<.2.,.3.:.1.1.1.3.1.<.>.,.;.0.j.z.n.b.",
"' ` ` ` ' ) ` ' ^ m.6.<.3.1.1.1.2.3.3.2.,.<.3.1.3.2.1.1.1.3.,.3.1.:.<.;.:.:.:.1.,.2.2.1.3.q.M.D.[ _ ",
"] ] / [ ` ) _ ' ~ v.6.,.1.1.<.:.:.1.<.3.3.,.3.<.1.1.3.:.;.:.1.1.1.1.:.3.2.1.1.3.1.;.3.1.<.6.N.D.' ` ",
"K.U.K.U.J.K.J.U.D.k.9.1.2.:.1.1.1.1.1.1.3.1.1.1.:.1.1.;.2.3.1.:.1.<.1.1.:.2.<.:.;.1.<.;.<.q.z.C.J.K.",
"v.B.b.V.B.n.N.M.B.f.7.:.:.1.2.,.<.2.3.3.3.2.3.1.,.:.3.3.1.1.<.1.<.1.1.<.1.3.,.;.2.<.1.2.2.8.d.z.B.m.",
"*.#.*.#.*.#.&.%.%.&.*.+.*.5.X.#.*.*.#.=.%.*.o.&.*.&.@.&.&.%.*.*.#.$.*.=.#.o.&.! 5.o.5.O.-.*.o.-.4.$.",
"W T R R R U R W R R T T T R R R R T Q R R R T R R R R E E R T R P R T R E I R R R Y T T T R R R R R ",
"5 5 q 5 w 8 8 8 8 8 e 9 2 4 4 2 4 2 5 4 4 5 9 9 9 8 4 q q w 4 4 6 4 7 5 q 8 9 8 3 9 0 8 1 4 4 1 8 1 ",
"= = = & & $ + + # + + + = * = % & % % = = $ + + @ o = = & & & - & - = = % & + + # + o @ = * * % $ % ",
"t r t t a < + . X + O o > t t t t p t u t ; o + + + > r t p r t t r t t a : +   X + + + : t u p t t ",
"r t t t s p : $ & % & > t t i t u u t r t t ; % = ; t p u u t t t t y t t t , % = % & > r t r t u u ",
"r r u p p t p p : p : r t u t u r t t t t t u t ; t t t t t t r p u u u p t p p , p ; r y u t u t u ",
"h f i p r t t t t a i u t r t y g h p p p r t r t u p t h h f j h f i p y t t u t a i u t p t y d h ",
"Z n d t h r i r r t h r t f t v x n h t t t t u h t f l v Z V Z Z z g p l r i t r t h y t l r v v n ",
"S Z n h h l v g t r h h h h t v Z A b h t u h k k h h v V H S S D N c h h h v l t r h h h f t z Z B ",
"S S N V Z Z Z v d g n M N v f v C G Z v h h x N A M A Z K D H S S S N V M V Z z f g v Z V v k v C F ",
"S K S S Z Z S Z v n M S K N v v Z S S N v b Z J D F Z A S G F S F K S D Z Z S Z v n N S F Z v n Z H ",
"J S D Z m v Z S C A F H K D N Z S S S S Z Z S S K N n v Z D D S K S S Z n v Z D V Z F H K D N Z S S ",
"D S D A z v N S K F S J S S S S S S Z Z H F S D G Z v v Z S S S L D S Z v c N S K F F K S F D D H F ",
"H H F S N Z S S S S D J S S S H S Z m b Z S S G D K Z Z S H S D S K K S N Z S S S S H K F S F H S N ",
"S D S S F S S D H S S J S S H S S Z v m B S D D S S S S S S D S S D S K F S D D S S F J S K S S H Z ",
"S S S F J S S S D S S S S H S S D H V V S S S S S S S S S D D D D H S H J S F S D S S D S H S F G F ",
"J D S S S F S S S H S S F G S S S S F K S S S H S K S D S S D S H D S S S F S F D S S G F G S D S S ",
"F S F K S S D S H S S D S S S S D D D S S S S S H S H S F L S S S H S F F D S S H F H J S S S S S S ",
"F S S F S D H S S S S D S F S S S S S J S S S S J F S K S S S S F D D F H D S D D J H D S F D S D G ",
"S S S F F S H S D S S F J S S S S H D S S D F D F S S S J S S H S S F F S F H D D J S F D S S S H H ",
"S S S L S F F H D F F S D H S F S H H F S D J H F G S S S S F S H H S F F F S K S G S S D H F S S H ",
"S S S S S S D D H S S S D S S H K S S S D S S D D F J D H K J S F D S S D S D D L S S S S G H H K S ",
"G S F S S S G S F H H S D S S S H S D S S H S K F F H S F D S S G H K S F L D S F H H S S F D S H S ",
"L S S S G S S S S S S S S F S S H S D S S H S S S J K G G S S S F F S D D S D S S S D S S K S S S S ",
"S S S S S H S F H K D D F F F S H F D F S H S J S S F S S F H S H S H S F H H S H F D S F F S S D S ",
"D H S S G S S F H S S S K D F S H S K S S S S F S S H S F S K S D H K S G K F F H S S K K D S D H S ",
"K S H S S S S S F D S D S F H S S F S S S S F S F D S S S F G H F G H H S F D D F H S D H S J S F S ",
"S S S S D H S H H J J S S S S K S D S D S S S S S J S H S S F D F S S S J H S S H H J S S S S H K D ",
"S S S S S S S F D S D S S S D S S S F S L S S S J D J G D F S H S S D F S H F H G S F F H H G S S S "
};
