/* XPM */
static char *result[] = {
/* columns rows colors chars-per-pixel */
"50 50 183 2 ",
"   c #76A058",
".  c #77A058",
"X  c #76A158",
"o  c #77A158",
"O  c #76A159",
"+  c #77A159",
"@  c #76A25C",
"#  c #78A25C",
"$  c #78A25E",
"%  c #7BA96A",
"&  c #7DA96A",
"*  c #7DA96B",
"=  c #7FAD73",
"-  c #83A85A",
";  c #82A95A",
":  c #83A95A",
">  c #82A85B",
",  c #83A85B",
"<  c #82A95B",
"1  c #83A95B",
"2  c #98B85E",
"3  c #99B85E",
"4  c #98B95E",
"5  c #99B95E",
"6  c #98B85F",
"7  c #98B95F",
"8  c #99B95F",
"9  c #9CBC60",
"0  c #9DBC60",
"q  c #9CBD60",
"w  c #9CBC61",
"e  c #9DBC61",
"r  c #9CBD61",
"t  c #80AD70",
"y  c #81AD70",
"u  c #80AC71",
"i  c #80AD71",
"p  c #80AD72",
"a  c #80AC73",
"s  c #80AD73",
"d  c #81AD73",
"f  c #A4C262",
"g  c #A5C262",
"h  c #A4C362",
"j  c #A5C362",
"k  c #A4C263",
"l  c #A5C263",
"z  c #A4C363",
"x  c #A5C363",
"c  c #AAC664",
"v  c #ABC664",
"b  c #AAC665",
"n  c #ABC665",
"m  c #AAC765",
"M  c #ABC765",
"N  c #B0CB68",
"B  c #B1CB68",
"V  c #B0CA69",
"C  c #B1CA69",
"Z  c #B0CB69",
"A  c #B1CB69",
"S  c #BAD06C",
"D  c #BBD06C",
"F  c #BAD16C",
"G  c #BBD16C",
"H  c #BAD06D",
"J  c #BBD06D",
"K  c #BAD16D",
"L  c #BBD16D",
"P  c #C0D470",
"I  c #C1D470",
"U  c #C0D570",
"Y  c #C1D570",
"T  c #C0D471",
"R  c #C1D471",
"E  c #C0D571",
"W  c #C1D571",
"Q  c #86B886",
"!  c #87B986",
"~  c #87B887",
"^  c #8ABE93",
"/  c #8BBE95",
"(  c #8CBE94",
")  c #91C6A8",
"_  c #91C7A8",
"`  c #92C7A8",
"'  c #92C7A9",
"]  c #90C8A8",
"[  c #91C8A8",
"{  c #92C8A8",
"}  c #92C9A8",
"|  c #95CBB0",
" . c #95CAB1",
".. c #94CBB1",
"X. c #95CBB1",
"o. c #95CCB0",
"O. c #95CCB1",
"+. c #98D2BF",
"@. c #99D2BF",
"#. c #98D3BF",
"$. c #99D3BF",
"%. c #ACDDBE",
"&. c #ADDDBE",
"*. c #ACDCBF",
"=. c #ACDDBF",
"-. c #AEDEBE",
";. c #AFDEBE",
":. c #AEDFBE",
">. c #AFDFBE",
",. c #AEDEBF",
"<. c #AFDEBF",
"1. c #AEDFBF",
"2. c #AFDFBF",
"3. c #B1E0BE",
"4. c #B1E1BE",
"5. c #B0E0BF",
"6. c #B1E1BF",
"7. c #9AD4C2",
"8. c #9BD4C2",
"9. c #9AD5C2",
"0. c #9BD5C2",
"q. c #9AD4C3",
"w. c #9BD4C3",
"e. c #9AD5C3",
"r. c #9BD5C3",
"t. c #9CD4C2",
"y. c #9DD4C2",
"u. c #9CD5C2",
"i. c #9DD5C2",
"p. c #9CD4C3",
"a. c #9DD4C3",
"s. c #9CD5C3",
"d. c #9DD5C3",
"f. c #9ED4C2",
"g. c #9FD4C2",
"h. c #9ED5C2",
"j. c #9FD5C2",
"k. c #9ED4C3",
"l. c #9FD4C3",
"z. c #9ED5C3",
"x. c #9FD5C3",
"c. c #9ED6C2",
"v. c #9FD6C2",
"b. c #9ED7C2",
"n. c #9FD6C3",
"m. c #9ED7C3",
"M. c #9FD7C3",
"N. c #A0D6C2",
"B. c #A1D6C2",
"V. c #A0D7C2",
"C. c #A1D7C2",
"Z. c #A0D6C3",
"A. c #A1D6C3",
"S. c #A1D7C3",
"D. c #A2D8C0",
"F. c #A3D8C0",
"G. c #A2D9C0",
"H. c #A3D9C0",
"J. c #A2D8C1",
"K. c #A3D8C1",
"L. c #A2D9C1",
"P. c #A3D9C1",
"I. c #A4D9C0",
"U. c #A5D9C0",
"Y. c #A4D8C1",
"T. c #A5D8C1",
"R. c #A4D9C1",
"E. c #A5D9C1",
"W. c #A6DAC0",
"Q. c #A7DAC0",
"!. c #A6DBC0",
"~. c #A7DBC0",
"^. c #A7DAC1",
"/. c #A6DBC1",
"(. c #A7DBC1",
"). c #A8DAC0",
"_. c #A9DAC0",
"`. c #A8DBC0",
"'. c #A9DBC0",
"]. c #A8DAC1",
"[. c #A9DAC1",
"{. c #A8DBC1",
"}. c #A9DBC1",
/* pixels */
"w.w.q.q.e.e.q.r.q.8.e.w.w.q.8.q.0.w.0.w.q.q.q.0.r.w.r.r.7.e.q.w.8.8.q.e.w.9.7.g.K.1.4.6.6.3.3.4.3.6.",
"9.8.q.e.r.w.w.w.e.w.q.q.0.q.w.q.0.w.0.7.q.8.r.w.9.q.8.8.0.0.w.w.w.0.7.e.e.0.w.f.J.,.3.6.4.5.6.6.3.3.",
"8.r.7.8.w.r.0.0.w.q.0.q.w.w.w.e.0.8.7.8.e.w.w.7.w.q.r.8.9.w.r.q.w.8.w.w.w.7.r.s.N.~.}.)._.}.[.'._.'.",
"w.0.8.r.0.8.w.w.9.8.w.7.w.0.w.q.e.r.w.w.r.8.w.w.w.8.w.8.0.q.r.8.7.w.8.0.r.r.q.d.b.G.K.H.P.K.P.K.P.D.",
"w.r.e.w.7.7.w.9.r.r.e.r.8.0.q.9.w.q.8.w.9.7.w.8.w.w.0.7.w.r.e.8.9.0.w.8.0.8.w.w.d.u.f.k.f.j.h.x.h.j.",
"0.q.8.7.8.8.9.e.w.7.e.q.w.w.w.8.8.e.8.w.s.c.N.D.K.K.K.J.H.K.C.b.s.8.0.r.r.w.w.r.q.0.r.w.w.q.q.7.8.r.",
"r.w.w.8.w.r.w.e.q.w.w.q.q.8.8.7.7.r.0.e.p.V.T.`._.'._.'.].'.R.V.p.7.w.q.r.w.0.8.w.r.8.w.e.r.e.w.r.w.",
"9.8.8.r.8.w.q.w.r.8.0.w.w.8.w.e.w.w.e.q.i.J.W.-.>.<.-.>.2.,.(.J.s.r.q.w.r.0.w.w.8.7.w.w.7.8.7.w.r.w.",
"8.w.8.w.q.w.8.w.7.e.w.q.q.8.e.8.q.7.9.w.d.D.~.1.>.2.<.-.<.1.Q.J.y.8.0.q.w.w.w.w.w.7.w.9.w.w.q.w.e.7.",
"w.r.e.8.r.0.8.7.w.r.e.w.w.e.r.q.q.r.7.0.p.c.C.K.F.K.J.K.K.P.S.v.a.w.q.0.7.q.9.9.w.w.w.q.0.w.w.r.w.q.",
"e.0.e.r.w.r.q.w.8.q.r.0.r.8.8.8.w.q.8.w.e.s.d.f.k.h.j.z.j.l.y.u.e.w.w.8.9.8.q.w.r.r.r.q.w.r.8.e.w.r.",
"e.w.w.0.0.e.8.8.7.e.8.8.r.0.e.r.q.0.q.0.w.q.w.q.0.7.q.w.q.8.q.w.q.q.r.w.r.e.e.w.w.q.0.9.w.r.8.w.7.9.",
"0.7.q.7.r.0.q.w.r.8.e.w.w.r.w.0.w.9.r.q.w.w.w.e.8.0.q.8.8.9.0.9.q.w.9.8.7.r.q.0.q.q.e.8.w.w.7.8.w.w.",
"q.w.e.8.q.w.r.w.7.q.q.r.7.w.e.8.w.e.r.9.q.e.9.q.7.w.9.8.q.w.w.0.7.w.e.8.q.8.8.8.0.e.r.r.w.w.q.e.7.q.",
"j.l.h.j.h.j.f.h.u.p.w.q.q.8.w.w.q.r.r.w.7.w.e.r.q.r.e.r.0.w.r.8.q.r.7.e.w.9.r.w.r.e.r.e.8.r.y.t.g.j.",
"P.K.D.F.K.F.F.J.H.n.i.w.q.7.w.0.9.w.w.w.0.7.q.w.7.9.w.8.r.8.7.e.e.e.r.0.0.w.w.r.e.q.e.8.q.a.M.V.L.H.",
"<.,.,.,.<.-.<.<.=.H.y.7.9.8.w.w.q.r.9.w.8.q.r.w.w.e.w.8.w.r.8.0.q.8.w.q.8.8.8.8.0.e.9.r.r.s.L.~.1.>.",
"1.,.-.1.<.2.;.<.=.F.a.9.q.w.q.r.0.q.w.r.w.w.r.q.q.w.r.8.q.0.8.w.w.r.8.q.e.w.w.r.w.7.8.8.q.d.P.Q.<.,.",
"`.'.`.}.[.`._.}.Q.Z.s.w.e.8.r.w.0.w.w.w.r.w.8.0.8.w.q.7.e.r.w.8.w.q.w.w.w.e.8.8.7.q.9.7.q.d.V.U._.'.",
"D.L.F.P.J.G.K.J.L.m.u.0.8.r.9.0.w.e.r.r.9.q.r.w.r.7.0.r.w.7.q.w.q.r.e.q.w.e.0.8.w.w.w.e.e.i.v.V.L.H.",
"w.8.w.0.q.8.q.0.0.w.w.8.w.w.e.8.q.w.w.q.r.r.8.q.q.w.q.q.w.r.w.8.r.e.w.e.8.w.e.9.w.w.8.9.e.q.8.r.8.0.",
"` _ ' ` ` [ ` ] ` ` _ _ _ ` _  .$.w.w.0.r.8.e.8.q.w.w.w.q.w.7.r.q.0.e.r.8.q.0.r.w.w.e.e.q.q.8.0.r.w.",
"= = s d s u d s s p s d s i t ~ | r.e.q.q.0.r.r.0.w.8.w.w.r.w.w.8.7.0.w.q.w.r.7.q.r.7.q.w.q.w.w.7.q.",
"; - 1 1 < < : , , : . + . . o & / { { } _ ..+.8.q.q.r.s.p.y.g.z.l.f.h.j.h.j.k.t.d.w.w.8.r.8.9.9.7.r.",
"7 7 7 4 3 5 4 4 7 4   + +     @ & d a y i ! O.r.r.w.q.v.V.K.K.K.K.K.K.K.K.J.K.J.C.y.8.w.q.r.q.q.9.r.",
"x x z k x j z l x e < : < 1 : , 1 : + . o * / o.#.7.0.A.T.^._.'.'.`.).{._.'._./.R.s.w.q.e.w.0.r.e.e.",
"k k k k k k k x x f e 6 6 4 6 7 8 7 . + + # % Q X.q.q.K.Q.=.-.,.:.2.<.<.<.,.2.*.W.u.8.7.8.e.q.w.w.r.",
"b b M b j f k k k x l j z l z x z 0 1 < - 1 X & ^ X.@.V.E.(.`.}._.`.'.}.{._.`.!.I.d.w.w.q.w.w.0.q.e.",
"L L L V c l l l l z g k k k l z h k 0 7 w 6 1 # & ! o.c.B.J.J.F.F.F.J.K.D.F.F.J.V.p.r.0.w.e.8.r.w.q.",
"R I P J M z m b l f z k k h k z f k k j x 8 , + o i _ p.u.y.f.z.k.f.g.k.k.h.f.p.t.w.9.8.w.q.w.0.8.q.",
"T U U L b c A B m g l k k k k x k l k x x 7 < o + i ` 8.e.w.0.w.w.q.7.e.q.w.9.0.8.e.0.q.q.r.8.w.q.w.",
"U T P L N A S J Z c n b x x v b k k k g x 4 1 o . s _ 7.r.w.r.7.8.7.q.8.9.8.q.q.e.w.w.w.w.r.r.w.r.w.",
"E P P P L L P U L L F A n b C C b k k h j 4 1 O o a ) w.8.0.e.7.e.r.r.7.7.w.q.r.8.r.7.r.9.r.r.0.q.q.",
"Y P P P R I T T T U P L Z B G G B n l g k 9 : 1 o & ( q.w.8.e.7.8.r.w.q.w.7.q.9.7.q.r.7.8.w.8.8.r.8.",
"R Y P E P P P P P I I P H J P P G A c f k k w 7 < $ & 7.q.8.r.8.7.w.8.r.w.q.w.e.w.q.r.w.e.w.r.8.8.e.",
"R Y P P E P P U I P I T R T E P U G A b x x x 6 1 o + r.8.q.e.w.w.w.w.w.7.w.r.w.w.8.r.e.r.q.e.7.q.r.",
"T T P Y T I U P P P P I U I U I P I L B b k x 4 , o + 8.e.7.q.0.w.8.7.0.w.q.w.q.d.d.z.j.k.j.z.h.f.z.",
"U P R I F L P T R P P P Y T P U T U I J m x z w < : o 9.r.0.e.e.w.q.8.w.9.7.9.i.C.!.).}.].`.'.`._._.",
"I T P K B Z J P P P P P P R T U P P P D v f k f w 7 1 r.7.q.7.r.w.w.r.w.8.8.7.y.P.&.>.,.2.-.;.<.,.,.",
"P P P J C A J R P Y P U U P K L T P P L c j k x l e 1 h.k.j.i.p.w.r.w.8.e.r.q.p.D.%.2.2.,.-.>.<.,.1.",
"T P P R K L P P U R P P P K A B L T P L m k z x g w , J.K.F.V.b.a.7.0.0.r.0.0.y.V.~._.`.`.'.`.`.).).",
"U P I P U P U P T P P E P L C B J I W J A c j f r 6 1 :.<.,.!.K.u.w.w.e.e.w.8.8.s.t.j.z.f.l.h.h.h.k.",
"I I P P P I T P P R I P P P L J P Y P T L A m w , : O ,.,.>.^.J.y.w.e.e.w.e.7.r.e.r.0.0.w.w.w.7.w.q.",
"T U Y U P T Y Y P P P U P E U P P U P U P A b 7 1 o X [.`.}.Y.V.i.9.w.r.r.w.r.8.w.w.w.q.w.q.q.8.e.r.",
"P Y P T P P I P I P U Y R U R E P I P G A b j 7 > o + D.D.J.B.c.s.w.8.9.r.e.r.w.r.q.w.r.8.w.q.0.w.r.",
"I P U U P P P T U P T U U P I I P U T G B c k q : 1 o 9.8.7.q.w.e.w.8.w.7.w.e.q.0.r.w.r.q.r.q.q.r.0.",
"R P T U P P I T I P P P U P T P U P I I L A m l w 8 1 w.r.0.q.w.8.e.w.q.r.q.w.w.q.0.8.w.0.w.0.w.w.q.",
"R P R U R P T I E P P T P T I I I P P T P G m k k 2 - q.0.w.0.q.w.0.r.7.8.9.w.w.r.q.r.9.0.0.8.w.e.9.",
"P P I Y T R P P P I T E T P P T P P P P P S b l j 7 < w.7.e.e.8.9.q.r.q.7.8.w.8.w.0.q.w.q.r.r.q.0.0.",
"T P Y I T P P U I U Y P I W U P P P P I E L n k x 7 1 r.7.7.8.q.e.q.q.8.8.w.7.e.w.0.8.r.q.q.0.8.r.w."
};
