/* XPM */
static char *result[] = {
/* columns rows colors chars-per-pixel */
"50 50 190 2 ",
"   c #77A35C",
".  c #78A058",
"X  c #79A058",
"o  c #78A158",
"O  c #79A158",
"+  c #78A059",
"@  c #78A159",
"#  c #78A35B",
"$  c #79A25C",
"%  c #7AA25C",
"&  c #7BA96A",
"*  c #7DA86A",
"=  c #7DA96A",
"-  c #7EA86A",
";  c #7EA96A",
":  c #7EA96B",
">  c #7DAA6A",
",  c #7FAD70",
"<  c #83A85A",
"1  c #82A95A",
"2  c #83A95A",
"3  c #83A85B",
"4  c #82A95B",
"5  c #83A95B",
"6  c #98B860",
"7  c #99B860",
"8  c #98B960",
"9  c #99B960",
"0  c #99B861",
"q  c #98B961",
"w  c #9DBC60",
"e  c #9DBC61",
"r  c #9CBD61",
"t  c #9DBD61",
"y  c #80AC70",
"u  c #80AD70",
"i  c #80AD71",
"p  c #80AE71",
"a  c #82AE70",
"s  c #82AE71",
"d  c #80AC72",
"f  c #80AD72",
"g  c #80AC73",
"h  c #81AC73",
"j  c #80AD73",
"k  c #81AD73",
"l  c #81AF72",
"z  c #82AE72",
"x  c #83AE72",
"c  c #A4C262",
"v  c #A4C362",
"b  c #A5C362",
"n  c #A4C263",
"m  c #A5C263",
"M  c #A4C363",
"N  c #A5C363",
"B  c #AAC664",
"V  c #ABC664",
"C  c #AAC764",
"Z  c #AAC665",
"A  c #ABC665",
"S  c #AAC765",
"D  c #ABC765",
"F  c #B0CB68",
"G  c #B1CB68",
"H  c #B0CA69",
"J  c #B1CA69",
"K  c #B0CB69",
"L  c #B1CB69",
"P  c #BAD06C",
"I  c #BBD06C",
"U  c #BAD16C",
"Y  c #BBD16C",
"T  c #BAD06D",
"R  c #BBD06D",
"E  c #BAD16D",
"W  c #BBD16D",
"Q  c #C0D470",
"!  c #C1D470",
"~  c #C0D570",
"^  c #C1D570",
"/  c #C0D471",
"(  c #C1D471",
")  c #C0D571",
"_  c #C1D571",
"`  c #87B886",
"'  c #87B986",
"]  c #87B887",
"[  c #89B886",
"{  c #8EBF93",
"}  c #8BBE94",
"|  c #8DBE94",
" . c #8CBE95",
".. c #92C9A6",
"X. c #96CAA6",
"o. c #98CAA7",
"O. c #90C7A8",
"+. c #91C7A8",
"@. c #92C6A8",
"#. c #92C7A8",
"$. c #93C7A8",
"%. c #92C7A9",
"&. c #94C7A8",
"*. c #92C8A8",
"=. c #93C8A8",
"-. c #94C8A8",
";. c #95C8A8",
":. c #95C9A8",
">. c #96C9A8",
",. c #94CBB0",
"<. c #95CBB0",
"1. c #95CAB1",
"2. c #94CBB1",
"3. c #95CBB1",
"4. c #96CBB1",
"5. c #97CCB1",
"6. c #98CDB0",
"7. c #99D2BE",
"8. c #98D3BE",
"9. c #98D2BF",
"0. c #99D3BF",
"q. c #9AD2BE",
"w. c #ACDDBE",
"e. c #ACDCBF",
"r. c #ACDDBF",
"t. c #ADDDBF",
"y. c #AEDEBE",
"u. c #AFDEBE",
"i. c #AEDFBE",
"p. c #AEDEBF",
"a. c #AFDEBF",
"s. c #AEDFBF",
"d. c #AFDFBF",
"f. c #B0E0BE",
"g. c #B1E0BE",
"h. c #B1E1BE",
"j. c #B0E0BF",
"k. c #B1E0BF",
"l. c #B1E1BF",
"z. c #9AD4C2",
"x. c #9BD4C2",
"c. c #9AD5C2",
"v. c #9BD5C2",
"b. c #9AD4C3",
"n. c #9BD4C3",
"m. c #9AD5C3",
"M. c #9BD5C3",
"N. c #9CD4C2",
"B. c #9DD4C2",
"V. c #9CD5C2",
"C. c #9DD5C2",
"Z. c #9CD4C3",
"A. c #9DD4C3",
"S. c #9CD5C3",
"D. c #9DD5C3",
"F. c #9ED4C2",
"G. c #9ED5C2",
"H. c #9FD5C2",
"J. c #9ED4C3",
"K. c #9ED5C3",
"L. c #9FD5C3",
"P. c #9ED6C2",
"I. c #9FD6C2",
"U. c #9ED7C2",
"Y. c #9ED6C3",
"T. c #9ED7C3",
"R. c #A0D6C2",
"E. c #A1D6C2",
"W. c #A0D7C2",
"Q. c #A0D7C3",
"!. c #A2D8C0",
"~. c #A3D8C0",
"^. c #A3D9C0",
"/. c #A2D8C1",
"(. c #A3D8C1",
"). c #A2D9C1",
"_. c #A3D9C1",
"`. c #A4D9C0",
"'. c #A4D8C1",
"]. c #A4D9C1",
"[. c #A6DAC0",
"{. c #A7DAC0",
"}. c #A7DBC0",
"|. c #A7DAC1",
" X c #A7DBC1",
".X c #A9DAC0",
"XX c #A8DBC0",
"oX c #A9DBC0",
"OX c #A9DAC1",
"+X c #A9DBC1",
/* pixels */
"n.x.n.n.n.n.n.M.b.n.M.x.n.n.x.n.M.n.M.n.n.b.M.n.x.M.v.M.x.M.n.x.n.b.x.b.n.x.x.G.(.p.l.k.g.f.k.g.j.g.",
"b.x.n.M.n.b.n.n.b.n.b.c.M.x.x.b.n.n.v.m.b.x.n.n.m.n.n.x.n.x.n.n.n.n.x.b.M.M.n.G.(.p.h.h.g.g.k.g.g.g.",
"x.M.z.b.n.M.v.M.n.M.x.n.x.n.b.m.n.n.b.n.b.b.n.n.n.n.n.n.m.n.n.b.z.n.n.n.M.z.n.A.W.}.+XXX.XoXOXoXoXoX",
"n.n.b.M.x.n.n.n.x.v.n.n.n.v.b.n.b.x.M.M.v.z.n.n.n.x.n.M.M.n.n.n.x.n.x.n.n.m.n.S.U./.~.^.~.(./.!.(.(.",
"n.M.n.n.b.b.n.M.n.M.b.M.n.M.b.b.n.n.n.x.x.z.n.n.z.n.n.x.b.n.m.x.b.x.n.x.x.M.M.n.V.C.F.K.G.L.G.G.G.H.",
"n.n.M.n.n.n.v.b.b.n.n.x.n.b.m.b.b.M.n.n.N.I.W.~.(.(._././._.W.P.S.z.n.x.n.n.v.n.n.v.x.n.n.n.n.n.v.M.",
"n.n.M.b.n.n.m.n.n.n.n.n.n.x.n.b.x.M.M.n.V.W.'..X+XXX.XoXoX.X].W.C.n.n.n.M.n.x.n.n.n.b.x.m.M.b.n.x.x.",
"x.x.x.m.M.b.n.n.n.x.n.n.n.n.z.n.n.n.b.x.C.).}.p.d.s.y.y.s.p.}.).C.n.n.M.v.x.x.n.b.n.x.n.x.x.x.x.n.M.",
"x.n.n.n.b.n.x.x.v.x.n.b.b.M.n.n.n.b.m.x.C./. Xp.y.s.p.a.p.p.{./.C.n.z.n.b.b.M.n.n.x.x.m.n.b.n.M.z.z.",
"n.M.m.n.M.M.n.M.n.M.b.n.n.n.b.n.x.b.v.n.Z.U.E.~.(.(.).~.(.(.W.I.S.n.b.x.c.n.x.m.n.n.n.n.v.b.n.n.n.M.",
"b.z.n.n.x.n.b.M.z.n.M.b.M.n.x.n.n.x.x.x.n.Z.A.G.F.K.H.G.G.G.D.N.n.x.n.M.x.M.b.n.x.n.M.n.n.n.n.n.x.v.",
"n.n.x.M.x.b.x.x.b.v.x.n.M.n.n.b.n.M.n.v.b.n.n.x.n.x.n.x.b.z.n.n.b.M.M.n.M.n.n.x.b.n.n.b.x.n.n.x.c.v.",
"x.b.n.n.M.n.z.n.n.n.m.n.n.n.n.M.n.n.M.x.b.n.n.M.n.M.n.x.n.z.v.v.b.n.x.x.n.M.n.v.n.b.m.x.M.n.b.n.n.n.",
"z.n.n.x.n.n.n.n.b.n.M.M.b.n.m.n.x.m.v.x.m.b.n.b.z.n.x.n.x.n.n.n.b.n.n.x.b.n.n.v.M.n.b.x.n.x.M.n.z.b.",
"H.J.G.G.G.H.G.G.C.Z.n.n.b.M.n.n.b.M.M.M.n.n.n.x.z.n.M.n.M.b.b.b.n.n.v.b.n.M.n.x.x.M.M.M.n.n.V.C.K.L.",
"/./.~.(.~.(.(././.Y.S.n.M.x.b.z.b.n.n.b.n.x.m.M.z.n.n.x.n.n.b.b.n.v.n.M.x.b.n.n.z.n.b.x.x.S.P.W.!.(.",
"p.p.p.p.a.y.p.a.r.(.C.x.M.n.n.n.z.m.b.n.n.n.n.n.n.m.n.n.M.m.n.n.b.n.n.z.x.x.v.x.n.n.m.x.M.S./.{.i.d.",
"s.s.p.p.p.p.p.a.w.!.C.M.n.n.n.n.x.z.z.n.n.n.n.b.b.b.M.b.b.n.n.n.n.n.v.b.m.n.n.n.n.n.n.M.b.V./.}.p.p.",
"oXoXXXoX.XoXXXXX}.W.C.n.b.x.n.n.n.n.n.n.M.n.n.z.n.M.n.v.n.n.n.n.n.n.n.M.n.n.n.x.b.n.n.b.b.D.W.`.+XXX",
"~.~.~._.(.!.(./.).U.S.x.b.n.c.M.n.M.b.n.M.n.x.n.x.n.M.n.n.M.n.v.M.n.x.b.x.x.n.x.x.n.x.m.M.D.T.W._./.",
"n.x.n.b.n.z.b.x.M.x.n.n.n.n.n.n.n.n.n.x.c.n.n.b.n.n.n.x.b.M.n.n.n.m.n.M.x.M.n.n.b.n.n.x.n.b.n.n.n.n.",
"n.n.n.n.n.M.M.m.n.n.n.b.M.n.n.n.n.b.n.M.M.x.n.x.n.n.n.n.n.n.v.n.b.0.,.*.@.#.#.*.%.$.+.#.+.#.#.#...%.",
"M.n.n.x.n.n.b.x.x.n.n.M.c.n.n.M.n.v.b.n.n.M.n.n.m.n.n.n.n.n.b.M.n.2.` p , i j j k j j j i j g j j j ",
"n.n.n.n.n.n.n.m.b.x.M.z.v.M.n.n.n.M.n.n.b.b.z.n.n.n.M.q.5.&.;.;.;.| = . O @ o @ 1 4 2 5 5 5 5 4 5 5 ",
"n.x.n.b.n.n.n.n.n.n.x.m.b.n.n.n.x.x.n.x.M.n.M.n.n.n.x.6.[ a s z z ; % O + @ X 2 8 0 6 6 8 q 8 8 8 8 ",
"M.n.n.n.n.n.n.n.n.n.M.x.n.z.n.m.x.n.b.M.b.b.n.n.M.9.<.{ - X 5 5 2 5 4 2 3 5 5 5 r M N M n M c M n N ",
"n.b.n.v.n.m.b.b.n.b.n.x.x.n.n.n.b.n.m.n.n.b.x.x.n.2.` : $ 2 8 8 7 q 8 6 q 8 8 t M m c n m M M M b m ",
"n.x.n.n.M.x.b.M.n.n.n.b.n.n.n.n.n.n.n.n.x.x.n.7.<.} > o 2 5 t M M m N M n N c M M n M N N M M b M N ",
"n.b.n.n.m.M.b.z.z.n.n.b.n.z.n.n.x.x.x.M.n.b.x.3.] =   2 9 t M M v b M n v M n c M M M M n b M M M N ",
"n.n.n.n.b.n.b.b.x.c.n.v.n.M.M.n.n.n.m.n.x.n.n.#.u o 3 5 e v M v v n b n b M B Z n M A C Z B B A C Z ",
"v.n.x.n.x.n.x.n.x.n.n.V.Q.(.(.(._./.R.U.n.n.x.#.y 5 8 e b M N M c N n n n S L H C D L Y Y W W P W W ",
"n.n.x.n.b.z.n.n.n.n.n.D.].|.XX+XoX{.].W.n.z.x.O.k 5 8 r M M M v n M M N Z G E W L J W Q W Y ~ Q Q Q ",
"M.n.m.M.x.M.b.n.n.n.n.D.}.r.p.s.p.t.}./.b.M.n.+.j . 3 4 t M v M n m N A G W Q Q W R ~ I K L W ~ ~ Q ",
"b.n.M.b.n.n.b.M.x.n.n.S.}.r.y.p.u.e.[.!.M.8.1. .& o @ 5 8 n m v M n A G R ) Q ~ Q Q Q E G F E ! ~ Q ",
"n.n.b.z.n.n.b.b.x.n.M.S.W.).~.(.(.).W.Y.n.4.' * # @ o 4 9 b m M M A L R Q Q Q ! Q ~ Q / I E ( Q Q ! ",
"n.M.b.x.n.v.n.n.v.n.n.n.D.B.G.G.G.V.D.Z.c.+.u + O . 5 5 w M c M B J Y / Q Q Q Q ! ^ ~ / ! ^ Q / Q / ",
"n.M.M.b.n.x.z.M.M.x.n.n.n.n.b.x.n.M.b.M.b.%.u o . 4 8 r b M M Z J W Q ( Q Q Q Q Q Q Q Q ~ Q / Q Q / ",
"n.n.n.M.n.M.n.x.n.M.b.x.n.b.n.M.x.n.x.M.n.#.j o o 5 6 M N M M D F Y Q / Q Q Q ~ Q Q Q Q ~ ! Q Q ! / ",
"x.b.n.n.M.n.n.n.n.n.n.n.b.b.x.b.v.M.b.b.b.#.j . O 3 9 b n v m M Z L E Q ( ^ ^ ~ Q Q ~ / ! Q / Q Q / ",
"b.n.m.x.n.n.x.M.n.z.n.M.M.n.M.n.n.n.M.n.n.=.f O 3 2 r N N M S B B J I / ~ ~ Q ! Q ) Q ~ ~ Q ( Q Q Q ",
"b.n.n.x.M.x.n.n.b.x.x.n.n.n.b.b.v.n.n.x.Z.-.h 4 8 r n n M B L W R W ! ) ~ Q Q Q Q ! ( Q Q ( ! Q Q ( ",
"x.x.b.m.M.n.b.n.x.x.n.x.b.x.x.n.n.M.x.n.S.X.z 4 8 b n M M Z W Q Q Q ~ ~ ~ Q Q Q / ! / / U E ~ Q / ~ ",
"n.b.n.n.x.n.b.n.x.n.b.n.n.b.n.n.c.x.n.n.C.o.x < 8 N M v M S W ! ! / ! ^ Q Q / Q ! / / W F H E / Q Q ",
"b.n.n.v.n.n.n.m.n.n.x.x.n.b.b.M.b.n.m.b.D.>.l 2 8 M M M M Z T ~ U W Q / Q Q / ~ ! / Q R L K W Q Q ^ ",
"n.n.n.v.n.b.m.x.x.M.n.n.b.n.n.M.n.n.b.n.V.:.k 4 6 M n M b Z W W L L R Q ~ ! ) ~ ) Q ( ~ I U Q ! ~ Q ",
"n.n.n.x.n.n.n.n.n.v.x.x.x.n.M.n.n.n.z.n.x.+.g 4 q M M M Z L W R J L W / Q ~ Q ( ! ~ ~ Q Q ~ Q Q ! ! ",
"n.M.M.n.n.n.M.M.n.b.n.b.n.n.n.M.n.n.c.M.b.#.j 1 8 v v Z G W Q Q E W ( Q ~ Q ~ ~ Q ~ ! Q / Q Q ! / ~ ",
"n.n.n.n.n.n.n.b.n.M.n.n.n.n.x.b.b.M.n.n.m.#.k 2 8 M n Z W Q ~ Q ! ) ) Q ! / Q ^ ) / Q Q Q ! / ^ ! ! ",
"b.n.n.M.b.M.n.b.n.n.M.n.n.x.x.n.n.n.n.n.M.#.d 2 q M M V P Q Q / Q Q ~ Q _ Q Q Q Q Q ~ Q ! Q ! Q Q Q ",
"n.x.b.b.n.n.b.v.x.n.b.n.n.n.n.n.m.n.n.n.n.#.j 3 8 N M A W ! Q Q Q ~ ~ Q ! Q Q _ ~ Q Q ^ ~ ! Q Q ~ Q "
};
