/* XPM */
static char *result[] = {
/* columns rows colors chars-per-pixel */
"50 50 171 2 ",
"   c #77A058",
".  c #77A158",
"X  c #77A159",
"o  c #7DAD73",
"O  c #7FAE72",
"+  c #82A85A",
"@  c #83A85A",
"#  c #82A95A",
"$  c #83A95A",
"%  c #82A85B",
"&  c #83A85B",
"*  c #82A95B",
"=  c #83A95B",
"-  c #98BA60",
";  c #99BA60",
":  c #98BB60",
">  c #99BB60",
",  c #99BA61",
"<  c #99BB61",
"1  c #80AC70",
"2  c #80AC71",
"3  c #80AD71",
"4  c #81AD71",
"5  c #81AE71",
"6  c #82AE71",
"7  c #80AC73",
"8  c #80AD73",
"9  c #81AD73",
"0  c #81AE72",
"q  c #80AE73",
"w  c #81AE73",
"e  c #82AE72",
"r  c #83AE72",
"t  c #82AE73",
"y  c #84AF72",
"u  c #85AF73",
"i  c #84B072",
"p  c #85B072",
"a  c #A4C262",
"s  c #A5C262",
"d  c #A4C362",
"f  c #A5C362",
"g  c #A4C263",
"h  c #A5C263",
"j  c #A4C363",
"k  c #A5C363",
"l  c #ACC866",
"z  c #ADC866",
"x  c #ADC966",
"c  c #ACC867",
"v  c #ADC867",
"b  c #ACC967",
"n  c #ADC967",
"m  c #BAD06C",
"M  c #BBD06C",
"N  c #BAD16C",
"B  c #BAD06D",
"V  c #BBD06D",
"C  c #BAD16D",
"Z  c #BBD16D",
"A  c #C0D470",
"S  c #C1D470",
"D  c #C0D570",
"F  c #C1D570",
"G  c #C0D471",
"H  c #C1D471",
"J  c #C0D571",
"K  c #C1D571",
"L  c #91C8A7",
"P  c #98C9A7",
"I  c #98CAA6",
"U  c #98CBA6",
"Y  c #9ACAA7",
"T  c #9BCDA6",
"R  c #9BCCA7",
"E  c #9CCDA6",
"W  c #91C7A8",
"Q  c #93C6A8",
"!  c #92C7A8",
"~  c #93C7A8",
"^  c #95C6A8",
"/  c #90C8A8",
"(  c #91C8A8",
")  c #91C8A9",
"_  c #91C9A9",
"`  c #92C8A8",
"'  c #93C8A8",
"]  c #92C9A8",
"[  c #95C8A8",
"{  c #97C9A8",
"}  c #96CAA8",
"|  c #A1CEA4",
" . c #A1CFA5",
".. c #ACDDBE",
"X. c #ADDDBE",
"o. c #ACDCBF",
"O. c #ADDDBF",
"+. c #AEDEBE",
"@. c #AFDEBE",
"#. c #AEDFBE",
"$. c #AFDFBE",
"%. c #AEDEBF",
"&. c #AFDEBF",
"*. c #AEDFBF",
"=. c #AFDFBF",
"-. c #B0E0BE",
";. c #B1E0BE",
":. c #B0E1BE",
">. c #B1E1BE",
",. c #B1E0BF",
"<. c #B1E1BF",
"1. c #9AD4C2",
"2. c #9BD4C2",
"3. c #9AD5C2",
"4. c #9BD5C2",
"5. c #9AD4C3",
"6. c #9BD4C3",
"7. c #9AD5C3",
"8. c #9BD5C3",
"9. c #9CD4C2",
"0. c #9DD4C2",
"q. c #9CD5C2",
"w. c #9DD5C2",
"e. c #9CD4C3",
"r. c #9DD4C3",
"t. c #9CD5C3",
"y. c #9DD5C3",
"u. c #9ED4C2",
"i. c #9FD4C2",
"p. c #9ED5C2",
"a. c #9FD5C2",
"s. c #9ED4C3",
"d. c #9FD4C3",
"f. c #9ED5C3",
"g. c #9FD5C3",
"h. c #9ED6C2",
"j. c #9FD6C2",
"k. c #9ED7C2",
"l. c #9FD7C3",
"z. c #A0D6C2",
"x. c #A1D6C2",
"c. c #A0D7C2",
"v. c #A1D7C2",
"b. c #A0D7C3",
"n. c #A1D7C3",
"m. c #A2D8C0",
"M. c #A3D8C0",
"N. c #A2D9C0",
"B. c #A3D9C0",
"V. c #A2D8C1",
"C. c #A3D8C1",
"Z. c #A2D9C1",
"A. c #A3D9C1",
"S. c #A4D9C0",
"D. c #A4D8C1",
"F. c #A4D9C1",
"G. c #A6DAC0",
"H. c #A7DAC0",
"J. c #A6DBC0",
"K. c #A7DBC0",
"L. c #A7DAC1",
"P. c #A6DBC1",
"I. c #A7DBC1",
"U. c #A8DAC0",
"Y. c #A9DAC0",
"T. c #A8DBC0",
"R. c #A9DBC0",
"E. c #A8DAC1",
"W. c #A9DAC1",
"Q. c #A8DBC1",
"!. c #A9DBC1",
/* pixels */
"A A D A A A G D A A A D D A A D D S B V k k a k j - = 8 W 8.6.6.2.2.5.7.6.3.1.a.A.*.>.>.,.-.;.<.;.<.",
"A J A A A G A A F G G S A G B B K A A C v h d f h > * 1 ] 4.5.5.6.4.1.7.8.4.6.u.m.%.,.>.>.,.>.:.;.-.",
"A G A A A G A J F D A A A V v v C A A C n k k f f ; * 8 L 6.8.5.2.2.6.6.6.1.6.r.z.J.W.U.Y.!.E.R.U.R.",
"S A A D A A A A A D K A J B b v B A A C v k k k j - & 8 ` 5.8.4.1.6.2.6.8.6.5.e.k.N.C.B.A.A.A.C.A.m.",
"F A G D A A A H A D A A A F N M S D A B c k g k k > = 8 ! 8.7.4.1.4.6.2.4.8.6.6.w.w.u.s.u.g.f.g.p.a.",
"A D A A A S A G S G G A A A D A H J A m v f h k h ; = 0 U C.v.k.t.2.4.8.8.5.8.8.5.4.8.8.6.6.6.1.2.8.",
"A A A A A G S A A A A F A D A G A G G V v j k a k < + 6 R R.F.c.r.1.5.5.6.6.8.2.6.6.2.8.7.8.7.6.8.6.",
"D A F S A G G D m N A S S S G A G D N V k k k k d - = u  .%.I.V.y.6.6.2.4.4.6.6.2.1.6.8.1.6.5.6.8.6.",
"D S F G A S H m v l C G A H S S F C x h f j h f k , & i  .*.H.V.0.6.4.5.6.6.6.6.6.3.8.3.5.6.6.6.7.1.",
"A A A S A G A B x c m A G A A A S B v k f f s k ; ; # e P C.n.j.0.5.5.2.1.5.1.1.6.6.6.5.2.6.6.8.6.5.",
"A F S G A F A S B B A J S A G A A A V v c k s ; & $ . w [ i.r.w.1.2.6.4.2.6.7.6.8.8.2.2.5.8.2.3.2.8.",
"A A A A J S A A S A A A A A B B D A A A c f h > = X . 9 W 2.5.6.7.5.8.6.8.5.7.6.6.5.2.1.2.8.2.5.1.3.",
"G S F A A A D A A F G G G m v v C A A A B B z , = .   o ! 3.8.7.6.6.3.2.2.8.6.3.5.5.7.6.2.6.1.1.6.6.",
"A A A A S A S K A A S A A m v c B A S S A N l - % & . 4 W 6.2.4.1.2.7.2.1.4.2.2.4.7.6.2.6.6.5.7.1.5.",
"G A A J A S S A D S A G A G B B G A A S A B z d , - $ 9 ) 2.7.2.3.6.1.7.1.1.8.8.8.7.4.7.6.5.y.w.s.g.",
"A G A K A A A S G A A J G G S A A G D G A V v h j > @ 8 _ 2.6.7.7.3.8.1.6.6.6.8.6.3.4.2.5.r.l.c.N.M.",
"A J A D A G G S A G S S A S D A F S D S S C b f k - & 8 ! 6.4.4.5.2.8.5.1.2.2.2.2.3.3.6.8.t.Z.L.*.$.",
"S F G S A S G A F A G A A A S A D A J A A C c k k > = 8 W 4.2.6.5.6.1.1.7.5.6.4.5.1.2.6.5.w.C.H.&.%.",
"A A A A A A A G A A A G G D F S A A A A S C c k k ; = 8 ( 8.6.2.6.1.6.5.2.7.2.2.1.6.6.1.5.y.c.S.Y.R.",
"A A A A A S A A D S A S A A S J A S A A A B v k k - * 8 ! 2.5.6.5.8.6.5.2.7.4.2.7.6.6.7.7.w.j.v.Z.B.",
"A A S G A A A A A D A S S D A A A S A A A m b j k ; = 7 W 8.6.2.7.7.6.7.2.6.5.1.6.6.6.1.7.5.6.8.2.4.",
"A D A A A J A G A H B B A A A D G A G A V B f f k > = 8 ! 5.1.8.5.8.5.8.2.6.3.8.6.5.5.7.7.6.2.4.8.6.",
"A G S G A G S D A C v v C A S D A A A B v k k k d > $ 8 ! 8.6.6.2.1.4.6.5.6.8.5.8.8.1.5.2.5.6.6.2.7.",
"A A A S A D A A A Z z v Z A D A A A A n k k k h : ; = 8 Q 0.a.f.d.i.f.a.p.u.d.e.y.6.6.2.8.2.5.3.6.8.",
"A A G G A A A A A S B B S A S A D B z k j h s ; = = X q } C.V.C.C.C.C.C.V.V.C.Z.b.y.2.6.2.8.5.5.3.4.",
"G J A A F A A A A S J S D A A A A A v k k k s > = . . 6 Y L.R.R.R.T.U.R.Y.R.R.P.S.y.6.5.7.6.2.8.7.7.",
"A A A A A S S G G D A K A A H A A A B B k k k ; = . . r T O.+.%.+.=.+.%.&.%.=.o.G.q.2.1.2.3.5.6.6.8.",
"A G S G A A A D K A D A A G A D A F B B f k k ; = . X t Y I.T.!.W.T.R.Q.Q.Y.T.L.S.y.6.6.5.6.6.4.6.7.",
"A D A G A A A A A A D A S A A G A Z v f k j h , = . X 5 { V.m.M.M.B.V.C.m.M.M.C.v.e.8.2.6.7.2.4.6.6.",
"A F D A A A A A A A D G S A D A A m n h k f j - = = . 9 ` 9.u.f.u.u.a.f.s.a.u.e.9.6.8.4.8.5.6.6.2.5.",
"A A A A A A G G A D A A G A A G D V v k g j k h ; ; = 3 / 6.4.6.6.7.1.6.6.2.1.4.2.7.2.1.6.8.2.6.5.6.",
"D A A S A A A G A A H A A S A K A B c f k j g k k ; $ 8 ` 6.8.1.2.1.2.5.3.6.5.5.1.2.6.6.6.8.8.6.8.6.",
"A A D D A A A A A A A D A A A A A S B M k k a k j ; @ 8 ~ 6.7.1.8.7.6.2.8.2.1.2.2.5.1.6.3.8.8.4.5.5.",
"A D D G S A A A D G A A A G B B J A A C v k k f h ; & 2 ! 2.5.3.2.6.6.1.6.2.5.8.1.5.8.1.8.6.4.2.8.2.",
"D A A A A A D K S D A A A V v v m A A C c k k f f ; = 8 W 2.8.2.1.6.6.6.6.5.6.6.6.5.8.6.7.6.5.2.2.7.",
"A A A D A D A A A A F A J C b c B A A B v h k k k - @ 8 ~ 1.7.2.6.6.6.2.1.3.6.5.6.2.7.7.8.5.7.1.5.8.",
"D A A A A G A H A A A A A D m B H G A B v k h k k > = 8 ' 1.6.4.2.8.1.8.6.5.6.5.w.w.f.a.f.a.g.p.i.f.",
"S D A A A A A G F A G G A A D A A A A m v k s k k , $ q ` 3.7.7.5.6.2.8.3.5.7.t.v.J.U.!.Q.Q.R.T.Y.Y.",
"A A S A D A A A A A A A A D G A A D D V z j h j j ; & 3 W 7.4.8.6.6.6.6.2.2.1.9.A.X.$.%.$.#.@.&.%.%.",
"A A F A A A A D m N A S S S A A G D V B k j k g k > = 8 ^ p.w.e.6.8.6.2.5.8.5.e.m...=.&.&.+.+.=.%.*.",
"D S S J A A A M v c B G A S A S D C v k k j g k k , & 0 I M.c.k.r.2.8.4.8.6.4.0.c.K.Y.!.T.T.T.T.T.Y.",
"A G A S A G A B z n m A A J A A A B v k f k f k - , * y | &.J.C.q.6.2.7.8.5.2.4.t.q.a.f.u.d.p.p.p.s.",
"A S S H S S A S B B S G S A A A A A C v c k s ; = * . p  .#.L.V.0.6.7.7.6.3.1.6.7.8.4.4.6.6.6.5.6.8.",
"G A G D A A A A S D A S H A B Z D A S A v k f ; = X . y E !.D.c.q.3.6.8.6.5.8.4.6.8.6.7.6.5.5.2.7.8.",
"G A D A A A A A A A A A A B v v C F A A B B z , = . . O I V.x.h.t.6.8.2.8.8.8.6.8.5.6.8.2.5.7.4.5.4.",
"A A A A S A S H A A F A G V v c B A A S A C v ; & @ . q ! 1.6.6.7.5.5.6.5.2.5.5.4.6.6.8.7.8.5.1.8.4.",
"G A A G A S A A G A A G A A B B G S A D A B z j , - $ 9 W 2.5.6.2.7.6.5.4.5.6.6.5.4.2.6.4.6.4.6.6.5.",
"A A A H A A A S H G A D G G A A A J F A A V c j j ; $ 8 ! 6.4.1.6.8.8.1.2.3.6.6.8.5.4.5.2.3.6.6.8.4.",
"A D A D A A G A D A A S A S A D S S D S H B v j k - @ 8 ! 3.2.6.3.5.8.6.5.2.5.2.8.4.5.6.5.2.6.6.4.7.",
"H D A A G A A A F D G A A A G A A A D A A V v k k - * 8 ( 2.8.6.7.5.5.8.2.6.1.7.6.8.6.8.1.5.6.1.6.6."
};
