/* XPM */
static char *result[] = {
/* columns rows colors chars-per-pixel */
"50 50 133 2 ",
"   c #FE0000",
".  c #FF0001",
"X  c #FF0101",
"o  c #FD0303",
"O  c #FE0203",
"+  c #FE0503",
"@  c #FD0603",
"#  c #FD0704",
"$  c #FC0805",
"%  c #F9160B",
"&  c #F8160C",
"*  c #F8170C",
"=  c #F8160D",
"-  c #F9160D",
";  c #F61B0E",
":  c #F71A0F",
">  c #F61B0F",
",  c #F71B0F",
"<  c #F9180D",
"1  c #E01E1E",
"2  c #E11E1F",
"3  c #E6221B",
"4  c #F32814",
"5  c #F22915",
"6  c #F32915",
"7  c #F22917",
"8  c #EE391E",
"9  c #EE381F",
"0  c #F1321A",
"q  c #F1331B",
"w  c #ED3E21",
"e  c #EC3F21",
"r  c #93615D",
"t  c #90625C",
"y  c #90625D",
"u  c #AA7859",
"i  c #8F7273",
"p  c #8E7574",
"a  c #857B7C",
"s  c #827E7D",
"d  c #837E7F",
"f  c #837F7F",
"g  c #D39650",
"h  c #D39750",
"j  c #CEA657",
"k  c #CFA758",
"l  c #CDA95A",
"z  c #CCAD5B",
"x  c #CCAC5D",
"c  c #D0A256",
"v  c #D0A356",
"b  c #CAB05E",
"n  c #CBB05E",
"m  c #CAB15E",
"M  c #CBB15E",
"N  c #CAB15F",
"B  c #CBB35E",
"V  c #CAB25F",
"C  c #CAB460",
"Z  c #C7BD64",
"A  c #C7BE64",
"S  c #C6BF64",
"D  c #C7BF64",
"F  c #C6BE65",
"G  c #C6BF65",
"H  c #C7BF65",
"J  c #C7BD66",
"K  c #C9B962",
"L  c #C8B963",
"P  c #C8BA63",
"I  c #C8BE64",
"U  c #C3CE6C",
"Y  c #C2CE6D",
"T  c #C1CF6E",
"R  c #C2CF6E",
"E  c #C1D06D",
"W  c #C1D06E",
"Q  c #C1D16E",
"!  c #C1D06F",
"~  c #C1D26E",
"^  c #C1D26F",
"/  c #C1D270",
"(  c #C0D470",
")  c #C1D470",
"_  c #C0D570",
"`  c #C1D570",
"'  c #C0D471",
"]  c #C1D471",
"[  c #C0D571",
"{  c #C1D571",
"}  c #EBE078",
"|  c #EAE178",
" . c #5C4E92",
".. c #5D4E92",
"X. c #5C4F92",
"o. c #5D4F92",
"O. c #5C4E93",
"+. c #5D4E93",
"@. c #5C4F93",
"#. c #5D4F93",
"$. c #776CAA",
"%. c #766DAA",
"&. c #776DAA",
"*. c #766DAB",
"=. c #776DAB",
"-. c #818080",
";. c #808180",
":. c #818181",
">. c #BFA2A2",
",. c #BEA3A4",
"<. c #B7B6B6",
"1. c #B6B7B7",
"2. c #C09FA1",
"3. c #E8B4AC",
"4. c #E9B4AC",
"5. c #E9B5AC",
"6. c #E8B5AD",
"7. c #DDD4DE",
"8. c #DCD5DE",
"9. c #DDD5DE",
"0. c #DCD4DF",
"q. c #DDD4DF",
"w. c #DCD5DF",
"e. c #F2D8C5",
"r. c #F3D8C5",
"t. c #F2F2C0",
"y. c #F3F2C0",
"u. c #F2F3C0",
"i. c #F3F3C0",
"p. c #F2F2C1",
"a. c #F3F2C1",
"s. c #F2F3C1",
"d. c #F3F3C1",
/* pixels */
"( ( ( _ ( ` ' ( ( ( ' { ' ] ( ( ( ( _ ( ) ( ' ' ' ( ( ) ( ) ( ( ' ( ( ( ] ( ' [ ( { ( ( ) ( ( ) ' ( ",
"` _ ( ) ) ( ` ( ( ( ( ( ( ( ) ( [ ( ( ) ( ( ( ` _ ( ' ( [ ( ' ' ) ] ) ] ( ' ' ` ( ( ( ] ( ( ( _ ( ( ",
") ) ( ( ( ( ( ] ( ( ) ' ' [ ( ' ) ( ) ' ( ( ( ' ( ' ( _ ( ( ' ( ( ' ( ) ( ( ' ( ) ] ( ( [ ( _ ( _ ( ",
") ( ( ( ) ] ) ( ( ( ( ' ( _ ' { _ [ ' ` ] ) ( ( _ ( _ ( ( ( ( ( ) ` _ _ ' ' ( ( ( [ ( ( ' _ ( ( ( ( ",
"_ ` ) [ ` _ ( ( ( ( ( [ ( ) ( ( _ ( ` _ ) ( _ ) ' ' ( ) ( ( ( ( ' ( [ ( ' ) ' ' ( ' _ ( ) ( ( ( ( ' ",
"( { { ( ' _ _ ( ( ( ( ) _ ) ' ( _ ) ) ) ( ( ( ( ) ( ( ( ( ' ) ( ( ( ( ( ( ( ' ( ( ( ' ( ( _ ' ) ] ) ",
"( ' ] _ ' ( ( ( ) ( ( ] ( _ ( ( ) ' ) ( ( _ ( _ ] ( ) ( ' ( ( ( ( ( ( ( ) ( ( ( ' ' ' ( _ ) ( ( ( ( ",
"' ( ' ) ) ( ) _ _ ( _ ( ' ) ( [ _ ( ) ) ( ) ' ( ( [ ' _ _ ( ( ( ( ] ) ) ( ( ( ) ] ( ' ( ( ] ( ( ( ( ",
"( _ _ _ ( ( _ [ _ [ ( _ _ ( ' ( _ ( [ ( ] _ { ) ( [ ( ] ( ( ( ( ( ( ( ( ` _ ( [ ` _ ( _ ( ' ) _ ( ' ",
"( ( ( _ _ ( ' ( ( ' ] ( ] ( ( ] ' ( ( ] ( ] ) ` ' _ ( ( ( ' ( ' ( ` ' [ ( ( ( ( ( ( ( ' ) _ ( ) ( ( ",
"( _ ( ' ` ' ' ' ( ( ( ( ' ( _ ( ( ` ( ( ( ) ( ( ( _ ( ] _ ) ( ) ( ( ) _ ] ' ) ' ( ( ( { ' ( _ ] ( ( ",
"( ( ' ' ( ' _ ( [ ( ( ( ( ' _ ( [ ' ( _ ) ) ' ) ( ( ( ' _ ( ( ( ) _ [ ( ' ' ) _ _ ) ( ( ( [ { ' ( _ ",
"( ( ( ' [ ] ( ) ' _ ) _ ` ( ' { ] _ ( [  . .O.( ` { _ +.X...{ ) _ { ] ` _ ( ) _ ( ( ' ) ' ) ( ) ) ( ",
"_ ( ] ) ( ] ) ( ( ( ( ) ] ) ( _ ' _ ` ..p.p.p.X.' ' @.a.y.i. .) [ { ) _ { _ [ _ ) ( _ ( ( ( ( ( _ ( ",
"( ( ( ( ( ( ( ( ' ( ' ( [ ) ( [ ` [ ' @.5.5.a. ...X.X.p.4.3. .( ` ) ' { [ ( ( [ ( ) ' ( ( ] [ ( ( ) ",
") ( { ` ] ) ) ( ( ( ) ( ] ' ( ] ( ) _ o.4.6.p.0.w.q.q.y.3.6.O.) _ _ ) [ ) _ ' ( _ _ ( ( ) ) ( ( ( ( ",
"( ( ( ( ` ( ( ( ) ( ) ( ' ) ) ) [ ( ] +.p.y.d.9.q.q.8.d.i.t.o.] ( { { ( ' ( ( ( ' _ ( ( ( ( ` ( _ ( ",
") ' ' ( ) ` [ ) ' ( ' [ ` ' ` _ ( ( ' X.u.t.d.q.0.8.w.t.a.i.O.' _ ) { { { { ( ( ] ] ( ) ( ' ( ( ] ( ",
"' ( ] ( ) ` ) [ ( ) ( ( ' ) _ _ { ' @.O.t.i.u.d.d.u.a.t.a.t.@..._ ) [ _ ( ) _ ' _ ) ) ( ' ( ( _ ) ( ",
"' ( _ ) ( ' [ ( ) ( ( _ _ [ [ [ ] ) _ X.p.O.i.t.y.u.y.t.O.y. .[ ( ( [ ` ' ' ' _ [ _ ( ) ( ( _ ( ( ( ",
") ( _ ( ( ( ' ] ' ) ( ( ( ) _ ] ] ' O.O.t.a.s.d.s.y.i.y.t.p.O.O._ { ' _ ] ] ) _ ( ) ( ' ( ( ( _ ' ( ",
"( ( ( _ ( ) ( ' ' ( ( ' ] ] ] ] ( ) ( X.e.r.i.y.y.a.a.t.r.r.X.[ ] ( ) { ] ` ( ( ( ( ( ( ` _ ) ) ( ( ",
") _ ' ( ' ( ( ( [ ( [ ( _ [ ) { ) ( ' '  .+.X.&.%.*.$.=.@.X.( ' _ ` ' ( ' ) _ ( ( ( ' ' ( ' ) ( ( ) ",
"( ( ' ( _ ( ' ' _ ( ' ( _ ' ( _ _ ' ` _  .w.a.X.} y.&.%.O._ ( _ ` ] ` ' ] ' ' ' ' ' ] ) ' ( ( ( ' ( ",
"( ( ` ` ( ' ( [ _ _ { ( ) ( ' _ _ [  .@.O.7.d. .| } d.a.o.F [ ( ( [ ' [ ' _ ) ( _ _ ' ( ( ( ' ) ( ( ",
"( ( ) ( ( [ ' ) ( ' _ ' ( ) ( ( ' X.p.7... . .i.a.u.t.a.+.( _ ` D _ { _ [ [ ' ' ` ( ( ) ( ( ( [ ( ) ",
"' ) ( ( ` ( _ _ _ ( ( ( _ ) ( ' )  .d.8...u @.i.p.#.8.8.o.' ' _ V ` _ ` ( ) ` ( ) ' ` ' ( ) _ ) ( ( ",
") [ _ ( ) ( ( _ ] _ ( ] ' _ [ [ [ ( X.#.t u o.8.+.w  .O.) q ' w H ' ' _ ) ) ( ' _ ( ) _ ) ( _ ( ( ( ",
"( ( ) ( ( ' ( ( [ ( ( ( { ) ( ) ( ( ( ' y 3 >.+.> ; O , A ~ J @ X [ _ ' [ ) _ ( ( [ ( ( ( ' ( { ' ( ",
"( ) ( ' ) ( ' ( ( ( ` ) _ _ ] _ ' ' ' ;.r s :.1.) I b m 6 P S # . ) ' _ ] { ( ( ( _ _ ` ) ( ( ( ( ] ",
"( ) ` ` { ] _ ' ) ( ' _ [ ` ] ' [ ) { -.d a -.1.( M 0 [ 4 K * g < ( ] ] ( _ _ _ ( ( ( _ ( ] ( ( ' ( ",
"] ( _ ] ( ' ] _ ( ( ' ( ( ' _ _ { ] w i 1 :.2 <.e l ^ =   c ! W ] ] ) ' ] ] ( ' ( _ ' ' _ ( [ ( ( ) ",
"( ( _ _ ( ( ( _ ) ) ( ( ( ` _ ' ) ; ; o : p f ,.+ . E 8 z % T U ( ` ) ` ) ( ) _ [ ( _ ( ( [ ( ( _ ( ",
") ( ( ( ' ( _ _ ( ( ) ) ] ] { ) ' _ _ m B 5 2.F $   ( k n Z ' ] ) ( ] ( _ ) ` ( ( ) _ ( ( ( ( [ ( ) ",
"' ( ( ' ( ' ( ) ] ( _ [ ) _ ( ] ) ] ( q ( 7 L < h * ' ` ] ( ] ' ( _ ) ` [ ` ( ( ( ( ( ' ( ( ( ( ' _ ",
"( ( ( ( ' ( _ ( ' ' _ _ _ ) [ ' ] ( G Q - . v / T _ _ ( ) ( [ { _ ] ] [ ) _ ( { ' ( ( ' ( ( ' ( ' ( ",
"` ) [ ( { ) ( ) ( _ [ ( ' ] _ { ) _ C R 9 x & R Y ' ( ) ' [ [ ' _ _ ( [ ( ] _ ( ) ( ( ( ' ( ) ( ( ( ",
"( ( ( ) _ ' ) ( ) ( ( ( [ ) ( ` [ { _ [ j N Z ' ` { ( [ _ _ ] _ [ ] ] ` ' ' ( ( ( ' ( ' _ ( _ ( ( ( ",
"' _ ( [ ] ( ] ) _ ) _ ( ( [ ` _ ( ( ( ] ( ( _ [ _ _ ( ( ) ' ( ( ] ( _ ' ' ( ' ( ( ( ( ( [ ( ( ' ( ( ",
"( ( ( ( ( ( ( ( ` ( ( ) ) ' ( ( ( ( ) _ { ( ` _ ) ( ( ' ( ( ) ( ] ( ( ( ( ` ) ' ) ( ] ) ' ) ( ) ( ( ",
"( _ ( ' ( ' ( ( ) ) ( _ ] ' ' ` ` ' ' ( _ ' ( ( { _ ( _ ) ( ( ) _ ( ( [ ( ( ) ( ( ' ( ( ) ( ( ( ' ( ",
"( ( ( _ _ ( ( _ ( { ( ( ( ( ( ( ( ( ( ) ( ( ( ( ) ) _ ) ) ) ( ( ( ' ( ' _ ( ( ' [ ( _ ( ( ` ( ( ) ) ",
"( ( ) ( ` ` ( _ ( ( _ ( ( ' ) ( _ ( ( ) ( ' _ ( ' _ ) ) ) ( ) ] ( ( ( ( ' ' [ ( ( ( ) ( ( ( ( _ ' { ",
"' ] _ [ ( ( ( ] { ) ' ) ' ( [ ( ( ' ( ( ( ( ' _ ) ( ( ( ( ( _ ( ( ( ( ( ( [ ' ( ( ) ( ) _ ' ( [ ` ( ",
"' ' ) ( ' [ ( { ( ' ( ) ' ' ( ' ( ' ' ( ` ( ( _ ( ' [ ' ( { ) ` ) ( ` ( ( _ _ _ ) ) ' ( ) ( _ _ [ ` ",
") ( _ ( ( ' ( ( ( [ ( _ _ ` ( _ ( ) ) [ ' ( ( _ ) ( ( ' _ ` ( ) ( ( ( ) _ ( ( ( ( ` ( [ ( ( ( ( ( ( ",
"( ( ( ( ( ' ) ( ] _ _ _ ( ( ( ] _ ( ) ( _ ( ( ( ' ' ( ) ) _ ) ' ' ' ' ' ' [ ( ` ( ( ( [ ) ( ( ' _ ( ",
") ' [ ( ( ) _ ( ( _ ( ' ( ' ' ) _ ( ) ' ' _ ( ( ( ( _ ( ( ( ( ( ( ( [ ] ) [ [ ( ( ( ] ) ` ' ' ( ( ( ",
"( ( ) ] ) ( ' ' ( ( _ ( ' [ ( ` _ ) ) _ _ _ ) ' ] ( ( _ ) ( ` ) ( { { ) ) ( ( ( ( _ ( ( _ ` ( ( ( ) ",
"( ( ) ( ) ( ) _ ( ) ( ' ( ( _ ) ' ( ) _ ( ( ' ( ( ] ( ' ( ( _ ( ( _ ) _ ` ( ( ( ( ( _ ( { ( ( ( _ ( "
};
