/* XPM */
static char *result[] = {
/* columns rows colors chars-per-pixel */
"50 50 70 1 ",
"  c #91625C",
". c #90625D",
"X c #91625D",
"o c #90635D",
"O c #AB7859",
"+ c #AA7959",
"@ c #AB7959",
"# c #C0D470",
"$ c #C1D470",
"% c #C0D570",
"& c #C1D570",
"* c #C0D471",
"= c #C1D471",
"- c #C0D571",
"; c #C1D571",
": c #EAE078",
"> c #EBE178",
", c #EAE179",
"< c #5C4E92",
"1 c #5D4E92",
"2 c #5C4F92",
"3 c #5D4F92",
"4 c #5C4E93",
"5 c #5D4E93",
"6 c #5C4F93",
"7 c #5D4F93",
"8 c #776CAA",
"9 c #766DAA",
"0 c #776DAA",
"q c #776CAB",
"w c #766DAB",
"e c #776DAB",
"r c #808080",
"t c #818080",
"y c #808180",
"u c #818180",
"i c #808081",
"p c #818081",
"a c #808181",
"s c #818181",
"d c #B6B6B6",
"f c #B7B6B6",
"g c #B7B7B6",
"h c #B6B6B7",
"j c #B7B7B7",
"k c #E8B4AC",
"l c #E9B4AC",
"z c #E8B5AC",
"x c #E9B5AC",
"c c #E8B4AD",
"v c #E9B4AD",
"b c #DCD4DE",
"n c #DCD5DE",
"m c #DDD5DE",
"M c #DCD4DF",
"N c #DDD4DF",
"B c #DCD5DF",
"V c #DDD5DF",
"C c #F2D8C4",
"Z c #F3D9C4",
"A c #F3D8C5",
"S c #F3D9C5",
"D c #F2F2C0",
"F c #F3F2C0",
"G c #F2F3C0",
"H c #F3F3C0",
"J c #F2F2C1",
"K c #F3F2C1",
"L c #F2F3C1",
"P c #F3F3C1",
/* pixels */
"###%#%*%#%#-*=*#$#%###=#*#$#%$##*###$#$%#$##$##$*#",
"%####%&###=$*#&#-#####%&%$***#*-#$&=#**&###$###%#$",
"######$###$*%-##$$=*%$####$%##**####*#*#$$#$**##%#",
"#$###$#####**##%&%%&$$##%#########%#**##$*#**#####",
"%$=-&######;*$$###&#$#%#*##$######%*$$*##=-######*",
"#=-##%#*##**%$*##$#$####$#%#*=##########$####&*$$#",
"##=#*###$*#$####$*###%#%*#%*-##*#%#####*##=%*#####",
"###$$%$%#*%####*######*##**%%####$$$####*#*####*$*",
"##%%##%%%###%&*#-%-%&%;##%#=#*##$###$&#%%##$#*#%#=",
"#*#%-%###**%*######*%$$%#%#*###*#%*-########$%#$##",
"#%##&-*#*#$##*;#####%$#*$##$%##$##&%$#&*##$-*#%=#$",
"##*=####-%##%*%%-*#%$$*$###$%###$*;#**$%#$###;#*##",
"#$#*#*####$#$$%%$%%##;##%$*=&%-##*$-%$$###=$%##$##",
"##*$#$$$*#$#=$#$#--%###;$%$;#=--&*-$;=-&##%*#%##%*",
"*####=#*####*-*%-$=*$--$&*%%;-#*##%%**$*#####=-###",
"$#-%$#$##*##*##$%%$%=$&-=-$&$*$##=;#=$*#&###$$####",
"####&*####$####s#$;-#25<%%*#2<4=##=$#$##*-%#*#$#%#",
"%*###&-##%**jiuyr%#=1LDK6=&6JDD7==$-#%##$*#$#-#%=#",
"##;*#;#%#%##dput. ;%4lvG761<Hlc<*=#%$&$#%$###$##$#",
"*$%$#*-#$#*#;gaa@o-%3xvHbNbmHkz1#%##&##%%*####&###",
"$#%####$*$%#*-fh%O *5KKJVMmmJJK6*$%=*==#*##*%%#-#%",
"###%#$##*$####=%#+X37JGKBmbMFDD2%-##&###*#%#;#####",
"#%*#*#####*##--*#-<n2KLJJHKGHKD76#&#;=%*##**%*###&",
"####%##-##*%$&#%-$2F7L73JPLF<6K6##%%*%*#**#$#####$",
"###%#*#-##;##%##%=#53JLHKGDDDJL1<;##*%%#%%####$$##",
"###=#*#$#%##*&=*#;#=4ZSGKFJFHAC3#*#####%$#*$###%#&",
"#$##$###%##*&%%*$#%$%56w8qeqw55*-**#*$$#**%*#-&##*",
"$-#$&#%#*##*#==**$&$$;10e:Hq92$$$%=#;%*$-#$%=$%%#%",
"%#$#*##%-$####%#%&$$$#5DG>,LD3#&%%%**%###-#####*##",
"#$#*$#$###$%;;-#**-*%-4KJJHDD7%*-#$*#%###*%$$####*",
"##$$;*%*%#*#;#-#&##;#&6JDDPLD1*;#$=%=&#%##%-###%-%",
"=##=*#*%##*#*#$#$#$$$#2mB7FHK1;=$%-#&&#=#%**%*%#%$",
"%#$%#%%##$##$%$=*%*%-%%42#3mB5;;-;%=#;$#-###%-##%#",
"*###*#%$#%=$&#%$%=%#$###-=&24$$-=**&$%&#$$##$##-*#",
"##$*###$$%-*&*$##=#=&;###%&%-#=*=#%%#$####$%#*##$#",
"##%###%##$%*&-$#$#*$$$#;-&*-%*$$;&%#&-#-###*##*###",
"####$=%$##-#$#=*%%%;$*#--*%%$$=%%#$*-*%%$#####%#%*",
"####%*$#####;;#*$%=*$##-%#%;*#$#*&$$#-###=$*%#%#$#",
"#%#%=#*=-$%##;&$###$##;-%%**#*#$#%#-*####$##%##%=%",
"##%####*%##$$#####$#%#&#####*########%$$#$##=%%$##",
"#%#*#*##$$#%$#*&&**#%###*%#%$##$%###*##$#*##&###*#",
"%$=#$##%$=#######*#$#####%###$%##-#*%#$**$%#%%##$$",
"##$#$&#%##$#####%*%$##%#$##=$$&##$##$*-#####$##%*%",
"*#*-#%#=;$*#*#%##*=##*#%#######%####%-######%*$%##",
"$####*#%####**###$*#%####=%#*%#-$#&#$%%%#=*#$##&%&",
"&####**%#-##%$##$##*=#%%$###%;#$####%####&#%*####%",
"###$#*$#*#%%##%#%#%#%####*#=$%$*##%#=-*$#%#%$##*&*",
"$**###%#$%$*#*#$%##**%#$#$%######$*$$-*###*##**###",
"###=%**###&#*%#&##$%#%$**###$#&##*;$#%###%##%-$*#$",
"###$$#$#######-&*#$%##*#%=*=#%#**%$-%#######-###%&"
};
