/* XPM */
static char *result[] = {
/* columns rows colors chars-per-pixel */
"50 50 47 1 ",
"  c #90625C",
". c #91625C",
"X c #91635C",
"o c #90625D",
"O c #91625D",
"+ c #90635D",
"@ c #91635D",
"# c #AA7858",
"$ c #AA7958",
"% c #AB7958",
"& c #AA7859",
"* c #AB7859",
"= c #AA7959",
"- c #C0D470",
"; c #C1D470",
": c #C0D570",
"> c #C1D570",
", c #C0D471",
"< c #C1D471",
"1 c #C0D571",
"2 c #C1D571",
"3 c #E8CEA6",
"4 c #E9CEA6",
"5 c #E8CFA6",
"6 c #E9CEA7",
"7 c #E8CFA7",
"8 c #E9CFA7",
"9 c #F2E4C2",
"0 c #F3E4C2",
"q c #F3E5C2",
"w c #F2E5C3",
"e c #F2F2C0",
"r c #F3F2C0",
"t c #F2F3C0",
"y c #F3F3C0",
"u c #F2F2C1",
"i c #F3F2C1",
"p c #F2F3C1",
"a c #F3F3C1",
"s c #F2F4E6",
"d c #F3F4E6",
"f c #F2F5E6",
"g c #F3F5E6",
"h c #F2F4E7",
"j c #F3F4E7",
"k c #F2F5E7",
"l c #F3F5E7",
/* pixels */
"-;-----------;----:--,,------;-:,------:-<-,<--;--",
"::-,-->--;--;-2,:-::-;-::;,1,:<,1-;<:,-2---;--;---",
"---:--;---;,-1--;-;:,;-,-:-:>--<----,---;;----:;:-",
":;---------,;-,:--->;;----:-:-----::-1,:,,--,-----",
":;2,>-,----1,;-;-->-;-:-,---:-----:;-;-;--:--:---,",
"-<,-,::1-,--:-,--;-;--------,,<;----------,-;:,;<-",
";-2-,---<-------;,;;-:;:----,------,-;-,:---,-----",
"--,;;-,---:---;,--;-,-,-,1,::---,;;;----2-,--,-,--",
"--::--:-::--,-,-:-::-:2-,:-<-,>-;---<:-:;--------,",
":--:1-,--,,-,----,-,---<-:;---,,-:,:---------::;--",
",---:2-<,---,::--;------;--;---;--;:;-;,--;1,:-<;:",
"--,-----1-;,,;:-1--:;-,;----:---;;:;,,;:-;---1,,;-",
"---,-<----;;;::2-:,-1-1->21>>-<:;1;<>1>-;-,;:--;:-",
";-,--;;,-::-:<,---:>2,::;1;,,><-:<->;,-1-::----:-;",
"--,-----:--:1<1>;;,,-;;2-:><-,:-;:-<---,-;---<:--:",
";-1:--;--,-,;<,<:>1:2:--;-;1<:1-;::,>>--:,--;;-,-;",
"----:,:--,---,--<:2;1>1,;>222-:<:<<12>---::---;---",
";,--;:1----:>;1-,1<12;;:<,-:,::>;;<:::--,,-;---:,-",
"-,,-->-;-----::->:2;211::,2::>:-1-,<1;-::;-;-,----",
",-:;-,,-;---;;:1>:;>>:;khhg<-->:;-;,;,-;:-----:---",
";,---:-;,:-,;1:<;:-:>,h=$#&l:--;<1<1--;,:-,,,-,:--",
"-;-:-;,----:,,;<,-,,<g$ieuu%d,-;,<>,,,----,->--:--",
"-2,-,:----,--:;;,:,:h*ui9kypXj1::1->;<-----,:-----",
"---;:--,--,->,;>:,1h&uph0qeu7+k-1>;;2-,-1,--------",
";--:-,>:-:>;-2,-;:1g=tsfkaep8.j,,<,1<<1-::,---:,--",
"---;:--;--:--<,,<>h#pywftrau88@d:>,-;>;--:-;--;;-;",
"-;-<;---:---<2--;-g tpyypyr384Of;:-1-,;-:,;,-->;-<",
";,--;-:-,-:-;11,:>d+peiteey388 d;1,<>1-;;-;-<---::",
"--;-;-:-1---,-2-;>d@epryer7635oj>-:;,-:-:1---,<,--",
"-;--;-----;-<,2;><j+purpe57556of-:>2-<-,--:;<----,",
"-;--<,:,;-<-,>-;;-1kOyyi73557ok;:;-:-<-:,--:----1-",
"<-;<,>,:-;,->;,;:1,:l+  XO .Oj<>-;>:-2----,,-::---",
"-----1------2;->-<--2fkgsfhsj11<;>1;;-;-1----2--:-",
":---,-:--:-;-;:<;><>2;;;,<2>-221-<;1::-;-;;,---,--",
",--2--,;;--,>;::-<---,>;21;,;;1:1-><>1-,---:1<----",
"------:---:->-><>1<>;<2<;1,-<--,::1,1:-,--,,------",
":---;--;--1-:;->,1;:,:--<1:1,>;1;;2,>>:-<-,---:---",
"-;-,>-;------;-1->-;,:-<2;,>2;-<>,:,>,-;--;1:,-:--",
"--,:,-;<-<>,-1:----;--11--,-----,-,1,-------:-----",
"----;:-;<--;;-----;::-;--:--,---1;--:-;;--;;,--;--",
"-:-,-,-:;;;-;-1>>,,-:---,:-2---<:--:->--:2-;;;--1-",
":-;-;--:-<---------;---,---:-<,;--;,:---<;1-->,-;-",
";-;:;>----;;-;----;,-,----,<-----;----:;;------:,:",
"---1-:,<2---;;:--,;--:,------------>--,----,:,<:--",
"---:-,-----;-,----,-:----,>--1-:;-;-:-::--,,;--:::",
";--<-;---1--:<---;-,>--:----:1-;----:-;-->;-------",
"------;-,-1---,-:,-::----,;;-:;-:----<-;---<;--,;;",
"-,,------:-<--;----,,>----::,---:-;;>1,---,--,,---",
"--:<---:;-:-,:;;:-;--:;,<----->-;,2>-:------:1-1-;",
"---:;-----------1-;---,,,<-,-:---:;,:-----,-,---:-"
};
