/* XPM */
static char *result[] = {
/* columns rows colors chars-per-pixel */
"50 50 15 1 ",
"  c #FE0000",
". c red",
"X c #FE0100",
"o c #FF0100",
"O c #FE0001",
"+ c #FF0001",
"@ c #FE0101",
"# c #FF0101",
"$ c #C0D470",
"% c #C1D470",
"& c #C0D570",
"* c #C1D570",
"= c #C0D471",
"- c #C1D471",
"; c #C0D571",
/* pixels */
"$$&&$$=$&$$$=$$%$%$$$$$&$=$$$$%$$$$%$&$$$=$&$$$$$$",
"%$$$&$&$$$$%$$=$%$%&-$$$&$$$$$$=;$$$$$$$$$$%$$$$=$",
"$*&$$$$$$$$$=$$=$$$=$$$$&$$$$=%$$&$%$$$$$$$$=$$$%&",
"=$=$$$$$$%%$$%$$$$&$$$$$$$$$$$$%$$$$$=$$$$$$$&==$$",
"=$$$$$$$$$$$$$$$$$&$&&$%$==%$$$$$$$$=$=-&$$%%$-&$$",
"$$$$$$$$%$%$$&$$$$$$$$%$$%$$$$$$$%$$$$&&$=$$$$$$%&",
"&$$$&$$$$$=%=$$$$%%$$$$$$$%$$$$=$&$$=$*$$$%$$$&$&$",
"$%$$$$$$*$$$$$$=$$$$$&&$$$&$$$%$=$&$$&$$%$$=$$$$$$",
"$$&$$$$$$$$&=$$$$$$%=$$$$$&%$$&$$&=$$o$&$&&$&$$$$=",
"$&$-$$$$$=&;$$$$$$$%$$%$$$$$&=*$$$$.o*o%$$$$;=$$;$",
"=-$$$&$&=$$$$$$$$$%$$$$$$$$$$=$%;$$o +$$$$$$%&%$=$",
"$&$$$&%$-$%$$&$%=$$=$$$&%==$%-$$$=...+$ $=$$$$$$$%",
"-&$$$$$$$$=$&$%$$$$$$$$=$$$$$&$$#O&+$..++$&&$=%$$%",
"%$%$$$$-$$*$&=$=&$$-$$$==$$%$$%$$..$o.o@%$$-$$%%$$",
"$%$$$$$$$$$$$&$$&$$$$&$$&$$$$&&$%+o$$$#$.=$$=$$$$$",
"$$=$$$$$$$%$$$$$$$$%$$$$.$$$$=$$&&.O%.+..=$=$$%$$%",
"$$%$$$%$$$$$$$$$$$$$$$+ .==..$o .$$%$$  &$=$$$=$$$",
"$$%=%$$$$$=$$=$&$$$%O.XO$.+%.&o..&.&$ o.$%$$$%$&$$",
"$$$$$$$$$$$$$$$%$$$$$$$$. O$..&o.$ .$o.$=$$$=&&$$=",
"$$$$%$$;$$%=$=$$%$$$$$$&X..&o+$+.$oo$+o=$$$=$;$$$=",
"$$$$$$&%%$$$;$$%$-%&$%.+$.#.$$.$o.X$&Oo+$$$$$$$$&$",
"$$&$$$%&$$$=$$&$$$$#..+.....$o$.# ..O$#$$$$==%$=$$",
"$;=$$$$=$$$$$&&$$$$. @..+.+ $o$+.O.. $ $$&$$&$$=$$",
"$-$$%$$$$=$$$$$$$$$$ .#o+.+o#;$$$.$+$$$.$$$$$$$&%$",
"%=$=$$$$$$$$$$$$$$$$$... %$+... $ .$+%+$$$%$$$=%=$",
"=&$$$$&$$$=%$$$%$$$$$$.o$$$o $&$&%.o=O.&$$$$$$$$$&",
"$$$$$&$$$$$$$$$=$$$$.-.o..Xo+$$$@.+o.#$$*$$$&$$*&$",
"$$$$&$$$$$$&$=$$$$$%@&+#.$%.&%.#$#+=..+$$$%&*=$$$%",
"=$$&$$=$$$$$$$$$$$$%  $$=$&$ =$$+O$$$%$$$$$$$$$$=%",
"&$$$$%&$$$$$$$$$$$$$=$..$$&$@$=%%$&.o$+=$$$$$$$$=&",
"$$$$$;&$$=$$$$$$=%=$$*$$o$$-$$%%$...+...$$$$$$$$$$",
"&$$$$$%$$$$$$$$$$$$$$%-$=%$=&&;$$O..=.$+$$$$=$$$%$",
"$%$$$$$$=$$$=$%&$$%$;$$$$$$$$$..&$ ..$$$$$$$&$$$%&",
"$$$$$$$%$$$$$$$$=$$$$&$$$$$$$%$$$#$.X &$$&$%$&$$$$",
"$$$$$$$$%$$$$$$=%$$$$$$$&&$=$$$$$.&$+$$$=$=$=$$-$$",
"$$$$$$$%.;o..$$$$$&$$$$$$$=$$$$$$$$$$$$$$%$$$%$$$$",
"=$$$$$%...$.$$$&$$$%$$&$$$$$$%%$$$$$$$$&$$$$$$$$$$",
"$=$$$$$$o$$#$=.$$$&$$$$$$&$$$$$=$$$=$$$$$=$$$$$$=%",
"$$$$$  $ $.;.$$$$-$$%$$$$&$=$$$$&%$$$$$-$=%$$$&$$$",
"$$$$$o. $$$$=$ $$$$$$$$$==$%$$$*$%$$$$$$=$$$$$$$$$",
"$%-=$$.o&%+& .o$-$&$$$$&$%$$==$=$%$$&$$=$$=%=$&$$$",
"$$$%$$o+$$o$o.$$$$$=$$$$$&$$&$$$$&$&$$$$&$$$$%$$$$",
"%%$%%-%.$o.$$.$$$$=$$$$=$$$$&$$$$$%$$$==$$$$$$$&$$",
"$$$$%$=o%Xo$$.&$$$$%$$$$$&$%$$$$$$$$$$$$%&$$$=-$$&",
"$$=$$$$%=.$$$$%$&$%-$=$%$$$$=$%$$%$$$=$$$$$$$$$$$%",
"$$$$$$$$$$$$$$$$$%=$$&$$$$&*=&$$$$$$$$$%$$$$=$$$&=",
"%%$=$$$$%&$=$$$$$$$$$$$$$$&$$$%$%$$=$=$$$%$$=*$-&$",
"$&$$$$$$$$$$$$%&%$$$$$$$$$$$$$$$$$$$=&%=$$$$&$$&$=",
"%$=$%$&$$$=$$%$$$$$$$$$$$$$=$$$$%$-$$$$$$$$&$$$=%&",
"=$$%&$$%$$$%$=$$$$$&$&$%$$&=$$$%$$$$$$$&=%$=&&$=$$"
};
