/* XPM */
static char *result[] = {
/* columns rows colors chars-per-pixel */
"50 50 110 2 ",
"   c #6B4B5B",
".  c #744C60",
"X  c #754C60",
"o  c #744D60",
"O  c #754D60",
"+  c #744C61",
"@  c #754C61",
"#  c #754D61",
"$  c #FE0000",
"%  c red",
"&  c #FE0100",
"*  c #FF0100",
"=  c #FE0001",
"-  c #FF0001",
";  c #FE0101",
":  c #FF0101",
">  c #E90810",
",  c #E90910",
"<  c #E90811",
"1  c #E80911",
"2  c #EA0810",
"3  c #EA0910",
"4  c #EA0811",
"5  c #EB0811",
"6  c #EA0911",
"7  c #EB0911",
"8  c #90625C",
"9  c #91625C",
"0  c #90635C",
"q  c #90625D",
"w  c #91625D",
"e  c #90635D",
"r  c #91635D",
"t  c #AA7858",
"y  c #AA7958",
"u  c #AB7958",
"i  c #AA7859",
"p  c #AB7859",
"a  c #AA7959",
"s  c #AB7959",
"d  c #67825C",
"f  c #66835C",
"g  c #67835C",
"h  c #67835D",
"j  c #78A058",
"k  c #78A158",
"l  c #79A158",
"z  c #79A059",
"x  c #78A159",
"c  c #8CB15C",
"v  c #8DB15C",
"b  c #8DB05D",
"n  c #8CB15D",
"m  c #8DB15D",
"M  c #B68862",
"N  c #B68962",
"B  c #B78962",
"V  c #B68963",
"C  c #C49A6C",
"Z  c #C59A6C",
"A  c #C49B6C",
"S  c #C59B6C",
"D  c #C49A6D",
"F  c #C59A6D",
"G  c #C49B6D",
"H  c #C59B6D",
"J  c #A4C262",
"K  c #A4C263",
"L  c #A5C263",
"P  c #A4C363",
"I  c #B1C272",
"U  c #B1C373",
"Y  c #B2C372",
"T  c #B3C372",
"R  c #B2C273",
"E  c #B3C273",
"W  c #B2C373",
"Q  c #B3C373",
"!  c #B2C473",
"~  c #B2C573",
"^  c #B1C374",
"/  c #B2C374",
"(  c #B2C474",
")  c #C0D470",
"_  c #C1D470",
"`  c #C0D570",
"'  c #C1D570",
"]  c #C0D471",
"[  c #C1D471",
"{  c #C0D571",
"}  c #DCB88A",
"|  c #DCB98A",
" . c #DDB98A",
".. c #DCB88B",
"X. c #DDB88B",
"o. c #DCB98B",
"O. c #DDB98B",
"+. c #E8CEA6",
"@. c #E9CEA6",
"#. c #E8CFA6",
"$. c #E9CFA6",
"%. c #E8CEA7",
"&. c #E8CFA7",
"*. c #E9CFA7",
"=. c #F2E4C2",
"-. c #F3E4C2",
";. c #F2E5C2",
":. c #F3E5C2",
">. c #F3E4C3",
",. c #F3E5C3",
/* pixels */
") ) ) ) ) ) ) ) ) ) ) ) _ ) ` _ ) ) ) ' ) ) ) ` ` ` ) ) ) ) _ ` ) ) ) ) ) ) ) ) ) ) ` ) ) ) ] ) _ ) ",
") ) ) ) ) ) ) ) ) ) ) ) ) ) ) ) ) ] _ ) _ ) q q 8 q q r ) ` ) ] ) ) ` ) ) ) ) ) ) ) ) ) ] ) _ ] ) ) ",
") ' ) ) ) ) ) ) ) ) ) ) ` ) ) ) ) ) ) q q q | } | | } o.q q q ) _ ` ) ) ) ) ) ) ) ) ) ) ) ) ` ) _ ` ",
") ) ) ) ) ) ) ) ] ) ) ) ) _ ) ) q w q  .|  . . .} | | | | o.O.q q q ) ) ` ) _ ) ) ) ) ` ) ] ] ) ) ) ",
"] ) ) ) ` ) ) ) ` ) ) ` ) q q q | | } | o.| j l x j k k |  ...o.| ..q q 8 ) ) ] ) ) ) _ ) ) _ ) ) ) ",
") ) ` ) _ ) ) ) ) ) q q q |  .| X.| o.k k x ) K J K J ) k k k | } | | | | q q q ` ] ) ) _ ) _ ) ) ` ",
") ) ) ] ` ) _ w q q | |  .| - $ x k k % m k _ P K L J ` j m L k k k  .| } | | o.9 q q ) ] ` ` ] ) ) ",
") _ _ ) ) ) q | } | | | | x * % k ) ) % b k K m m n n J x m K ] ) k k k j | } | | | | q ) ) ) _ ) ) ",
") ) ) ) ) ) q | o.O.k x k L P m $ _ ) K b k [ L P P K ) x m K ` ) k m K K z k k } | | w ` ) ) ) ) ) ",
") ] ] ) ) ) q C k k b % & - K m k K - $ m x ] J K K K ) k v J K K k v K ] ) l v l k A w ) ) ) _ ) ) ",
"] ` ) ) ) _ _ q g K n l ) * K m l ) ) ; m k K m m m m K k b K ) ) k m K ) [ j m K g q ) _ ` ) ) ) ) ",
") ) ) ) _ ) ' ` g K n x J % K n k $ $ % v j ) K K L K ` k m K ) ) k m K K K k m K g ] ` ] ] ) ) _ _ ",
") ) ) ) ) ) ) ) g J m k ) ) * ; l K K J n k ) K P K K ] l m K J P k m K ) ) k m K g ) ` _ ' ) _ ) ) ",
"_ ) ) ] ) ) ) ) g J m k ) ) % % % ) % K m l a s a s a a k m L ` ) k m K ) _ l m K f ) ` ) ) ) ) ) ) ",
") _ ) ) ) ` ) _ d L m k K K K c - ) ) y i y +.#.*.#.#.#.a i a ) ] k m K K K k m K g ) ) ) ) ) ) ) ] ",
"` ) ) ) ) ) ` ) g K m k ) ) K m a a i #.#.$.:.=.:.:.:.;.$.%.#.a a a m K ) ) k m L g ) ) ) ) ) ) ) ) ",
") ) _ ) ) ] ) ) h K m k ) a a a #.#.#.:.;.:.| o.| | |  .,.:.:.@.$.#.a y y ) l m K f ] ) ) ) ] ) ) _ ",
"` ) ` ) ) ) ) ) f J a a a $.#.#.:.:.:.o.| | }  .o.| | | | | | :.:.:.$.&.+.a a a K g ) ) ) ) ) ) _ ) ",
"_ { { ) ) ) ) a i s #.&.#.,.:.:. .O. .| o.| q q 8 8 q q | | | |  ...;.:.-.&.#.+.y a a ) ] ' ` ) ) ) ",
") ) ) ) _ _ s #.+.&.:.;.:.}  . .O.| | q w e q 8 q q w e 8 q w | | | o.| | :.>.:.#.#.#.a ) { ) ) ) ) ",
") ) ) ) ) ) t :.:.:.| o.| }  .| q q e e e q q e q q w w q q q q q 0 o.| | | }  .:.:.:.a ) ) ) ) ) ) ",
") ) ) ) ) ) q | o.| |  .| q q q 8 q q q q q q q q q 8 e w w q 8 q 8 q 8 8 } | o.| | | q ) ) ) ) ) ) ",
") ) ) ) ) ` q O. .| q q q s i a y s a a y i a s y i a a a u a t a y i y y q q q o. .| q _ $ ) ) ) ) ",
") ` ) ) ] ) ) q e q N C C Z Z C C D F A H Z A C C A A C Z C C C C C A C A C C N q 8 w : $ ) % ` _ ) ",
") ) ) ) ) _ ) ) ) X C D C C C C C C G A C C C Z C C C C C C C Z C C Z C D C A C   ` ) & $ = ] ) ) _ ",
"% % * ) ) ) ) ) ) . i i p y a s a a a i a a i a a a a a s a a a p a s a a a a u . ) - - % - ) & ) ) ",
"% $ % $ ) ) ) ] ` X C C C C D A C C A C Z D D C C C C C C C C C C C A C C C S C X = ) : ) - * - = ) ",
"` % - ) % ) ) ) ) @ C A F D C S C C A C C C A A C C D C Z C A C C C C C C D A D X : % ` : - : & ) ) ",
"* * - = % - ) ) ) X A C G X X X C H C C A C C C C C C C C C Z G Z A . X X Z A C X * - ) ) ) - ) * { ",
"` ) % ) ) % ) ) ) X a a X q e q X a a a a i X X X @ # O a a a a a X 8 q q X a s @ ) * - ) % - % * ` ",
"% ` ) % $ ` _ ) ) + C C X r 8 q X C C C C X q q 8 q q 8 X Z Z A A X w q w X C C X ) ) ) ) ) % $ ) ) ",
"- % % ) ) ) ) ] ) @ C C O 8 q q X C C C X q r w q 8 q q q @ A C C X q q e X C D X ` $ ) ) & % $ ) ) ",
"` _ % ` ) ) ) ` ) . Z C X C C C X D C C X q q q e 8 q q w X C C C O C Z C X C C X ) $ * ) & & ) ) ) ",
"% ) ) ` ) ) ) ] [ X y a a }  .| a a i a X q e q q q q 9 8 @ a a i a | } | a a a X ` * * ) - * ) _ ) ",
"_ ` ) _ ] ) % ) * X C C A D D C C C C Z X q - $ q 9 q % q . C C C C C D D C D A X $ * ) ) & % % ) ) ",
") ) ) ` ) * % * ) + C D C C C C C C A C @ q * * q q q - q O C A C C C Z A C Z C X $ % - = ) - ) ) ) ",
") ` ) ) _ ) * ` ` @ Z A C C C A C C C C O q a y $ s u a q X C A C C C F C C C C X = $ % $ ) % ] ) ) ",
") ] ` $ $ ] % ) - ` X O . X X X O X X % $ - C C C C % % a . . X X . X X X @ X X ` % ) % ] ) ) - ) ) ",
") [ ) * - & ] ` ) ) W R . N N X W W ! 2 3 % C V N M N : q 2 > > < W X N N . 5 < ) $ - ) % ] - ) ) _ ",
") ) ) ) % * ` ` = ) < 2 X C C . W W R W W % C C C % $ % 8 W 2 3 W W X C C X Y Q ] ) - : ) - $ ) ) ] ",
") _ ) ) * - ) ) % ) 2 2 X C C X 2 2 4 W W q % & N M N A q W > 3 2 2 O Z D . W / ; % - : % - ] ) ) ) ",
") _ ) _ ) % ) - - ) W 2 X C C . W ! 2 ^ W 8 * * % Z % C q E 4 1 2 W @ F C X 3 4 ) : = ) : % = ] ) ) ",
"_ ) ) _ [ $ _ & * ) Q 2 O C C . W / 2 W Q e C N - N N C q > W W W W O C D X / W = - ) ) ) ) ) ) ) ] ",
") _ ) ) ) ) ) % ) ) ) W X A C X Y U W 7 6 w A A C Z C A e ~ 2 > Y ( X Z C o W ) ) ) ` * % ) % ) ) ) ",
") ) ) ) ) ) ] ) ) ) ) ) W . X I ! R W 2 , q C N B V M Z q W T W 3 Q Y @ O / ) ) ) % % : % % % * ) ) ",
") ) ) ) ) ) ) ) ) ) ] ) ) _ ) ) ) _ ) _ W q C C C A A C q W ) ) ) _ ) ) ) ) ) ) ) & % $ ] : ) % ` ] ",
") ) ) _ ) ) _ ) _ ) ) ] ) ) ] ) ) ) ) ` W q D N N N B A r W ) _ ) ) ] ] ) ] - - ) ` = * % ) ) ) ) ) ",
") ) ] ) _ ) ] ] ) ) ) ) ` ` _ ` ) ) ) ) ! q C A C C C C q U ) ) ) ] ) ` ] ) ) ` ) & ) $ = $ ) ) ) ] ",
") ) ) ) ) ) ) ) ) ) ) ) ) ) ) ) ) ) ` ) ) W q 8 w q q r W ) ) ) ) ` [ ) ) ) ) _ ) % ) ) - ) ) ] ) ) ",
") ) ) ] ) ) ) ) ) ) _ ) ] ] ] _ ) ) ) ) ) ) ) ] ) ) ) ] ) ) ) _ _ ) ) ] ) ) ) ) ) ) ) ) _ ) ) ) _ ' "
};
