/* XPM */
static char *result[] = {
/* columns rows colors chars-per-pixel */
"50 50 125 2 ",
"   c #6B4B5B",
".  c #744C60",
"X  c #754C60",
"o  c #744D60",
"O  c #754D60",
"+  c #744C61",
"@  c #754C61",
"#  c #754D61",
"$  c #90625C",
"%  c #91625C",
"&  c #90635C",
"*  c #90625D",
"=  c #91625D",
"-  c #90635D",
";  c #91635D",
":  c #AA7858",
">  c #AB7858",
",  c #AA7958",
"<  c #AB7958",
"1  c #AA7859",
"2  c #AB7859",
"3  c #AA7959",
"4  c #AB7959",
"5  c #67825C",
"6  c #66835C",
"7  c #67835C",
"8  c #66825D",
"9  c #66835D",
"0  c #67835D",
"q  c #78A058",
"w  c #79A058",
"e  c #78A158",
"r  c #79A158",
"t  c #78A059",
"y  c #78A159",
"u  c #8DB05C",
"i  c #8CB15C",
"p  c #8DB15C",
"a  c #8CB05D",
"s  c #8DB05D",
"d  c #8CB15D",
"f  c #8DB15D",
"g  c #B68862",
"h  c #B68962",
"j  c #B78962",
"k  c #B68863",
"l  c #B68963",
"z  c #C49A6C",
"x  c #C59A6C",
"c  c #C49B6C",
"v  c #C59B6C",
"b  c #C49A6D",
"n  c #C59A6D",
"m  c #C49B6D",
"M  c #A4C262",
"N  c #A5C262",
"B  c #A4C362",
"V  c #A4C263",
"C  c #A5C263",
"Z  c #A4C363",
"A  c #B1C373",
"S  c #B2C372",
"D  c #B2C273",
"F  c #B3C273",
"G  c #B2C373",
"H  c #B3C373",
"J  c #B1C473",
"K  c #B2C473",
"L  c #B3C473",
"P  c #B2C573",
"I  c #B3C573",
"U  c #B2C374",
"Y  c #B3C374",
"T  c #B2C375",
"R  c #B1C474",
"E  c #B2C474",
"W  c #B3C474",
"Q  c #C0D470",
"!  c #C1D470",
"~  c #C0D570",
"^  c #C1D570",
"/  c #C0D471",
"(  c #C1D471",
")  c #C0D571",
"_  c #C1D571",
"`  c #5C4E92",
"'  c #5D4E92",
"]  c #5C4F92",
"[  c #5D4F92",
"{  c #5C4E93",
"}  c #5C4F93",
"|  c #818080",
" . c #818180",
".. c #818081",
"X. c #808181",
"o. c #818181",
"O. c #B7B7B6",
"+. c #B7B7B7",
"@. c #DCB88A",
"#. c #DCB98A",
"$. c #DDB98A",
"%. c #DCB88B",
"&. c #DDB88B",
"*. c #DCB98B",
"=. c #DDB98B",
"-. c #E8B5AC",
";. c #E9B5AC",
":. c #E8B5AD",
">. c #E8CEA6",
",. c #E8CFA6",
"<. c #E9CFA6",
"1. c #E8CFA7",
"2. c #DCD5DE",
"3. c #F2E4C2",
"4. c #F3E4C2",
"5. c #F2E5C2",
"6. c #F3E5C2",
"7. c #F3E4C3",
"8. c #F3E5C3",
"9. c #F2F2C0",
"0. c #F3F2C0",
"q. c #F2F3C0",
"w. c #F3F3C0",
"e. c #F3F2C1",
"r. c #F3F3C1",
/* pixels */
"^ / Q Q Q Q Q / Q Q Q Q Q ~ Q ~ Q Q / ~ / Q Q ^ Q Q ~ / / ! Q / Q Q / Q Q ~ Q Q Q / Q ! ! Q Q / Q Q ",
"! Q ~ X.! Q / Q ~ ' ' { Q ~ Q Q ` ] ` Q / Q * * * = - * Q ~ Q Q _ ! Q Q Q / Q Q Q Q Q Q Q ~ Q Q Q ! ",
"O.|  ...X.Q Q Q ` 0.9.e.} Q Q { 9.0.0.- * - #.%.#.#.$.#.* - * / Q Q Q Q Q Q / ! Q / Q Q Q / / ! Q / ",
"+.o.| X.* * Q ! ' :.-.w.{ ` [ ` $ * * #.$.*.#.#.#.#.#.$.#.#.#.* * * Q Q / ~ Q / / ( Q / Q Q ! Q Q Q ",
"Q +...o.1 - Q Q ` ;.-.q.2.* * - #.$.#.#.#.$.r e e y e e #.@.&.$.#.#.* * = ! Q ~ Q ! Q ( Q Q ~ Q Q Q ",
"Q Q O.O.Q 3 * Q ` r.* * * #.#.#.#.#.*.e e e ! V Z C V Q q y e #.@.#.#.#.*.- - = ( ) ! Q Q ! Q ! Q Q ",
"Q / Q Q Q 3 $ * - * #.#.#.#.#.%.e r r V s y Q V V V V Q e i Z e e e #.*.*.#.@.$.* $ * ! Q Q Q Q Q ! ",
"Q Q Q ~ Q Q * =.#.#.$.#.@.e q e e Q Q Z f e Z u f f f Z q a C Q Q r e r e #.#.*.#.#.#.$ Q Q ^ Q Q Q ",
"! / Q Q ! / * #.#.#.e e e V V f e ~ ! C f e ~ V M C C ~ t f V Q Q e f V V e e e #.#.#.$ ~ Q Q Q / Q ",
"/ Q / Q ~ Q * z e y f t Q ) V f q V V C f e Q V V V C ! e f V V Z w s V ~ / e p e e z * ! ^ ! ~ Q Q ",
"Q Q Q Q / Q Q * 5 V f e / Q C f y Q Q N f e M f f i f V r f V Q ! e s V ) Q y d Z 7 * Q ~ ~ ~ ~ Q ) ",
"! ~ Q ~ Q ! Q Q 7 V f e V V C f e ! Q V f e Q V C M V Q e f V Q ! e f V C V e s C 5 Q Q Q Q Q Q ! Q ",
"Q / Q Q ( Q ~ Q 7 V a e Q Q Z d e N V V d q Q B V C V Q e u V M M e p V Q ! e f V 0 / / Q Q ~ Q Q ~ ",
"Q Q Q Q ~ ~ Q Q 5 V d t Q Q Z f y Q Q V f q 1 3 3 3 3 3 q f V ! Q e f Z ^ Q e f V 7 ! Q Q Q / Q Q Q ",
"Q Q / ! Q Q Q Q 7 V d y V V V f w ~ ~ 3 4 , ,.,.,.,.,.,.4 , , / / q f M Z V e f B 7 / Q / ! Q / Q / ",
"Q Q Q Q ~ Q ) Q 8 M f q / ! V s 1 4 , ,.1.,.8.5.6.8.6.7.,.>.,., 3 , p V Q ! e f M 7 Q / ! Q ~ Q Q ~ ",
"Q / Q Q Q / / Q 7 V f y ~ 3 3 4 ,.,.,.6.3.6.#.$.#.*.$.#.6.6.6.,.,.1.3 3 < _ e f V 7 ( Q Q Q Q Q ! ! ",
"Q Q ! ~ Q ) Q ) 9 V 1 , 3 ,.,.>.8.6.4.$.@.#.#.*.$.#.#.@.#.#.@.8.6.6.,.,.<.3 , 1 V 6 / Q Q Q Q ~ Q Q ",
"/ ! Q ~ / Q Q 3 , 3 ,.1.,.6.5.8.#.$.#.#.#.#.& * * * $ $ #.#.#.#.#.%.6.6.6.,.<.,.3 3 3 / Q Q Q ! Q ~ ",
"Q Q Q ( ) Q 1 <.1.>.6.6.3.#.*.@.#.#.$.$ * * * - * - * * * * * $.#.@.*.#.$.6.6.4.,.,.,.3 ( Q Q Q Q Q ",
"~ Q / ~ Q Q 1 6.4.6.*.*.#.#.#.#.$ * * $ = * = * * * * * $ * * * $ * #.#.#.#.#.$.6.4.6.3 Q Q ) Q ! ~ ",
"Q / Q ! Q ! * $.#.#.@.#.$.= * * * * * * * * * * $ * * * * * = - * * * * - #.$.$.*.*.#.* Q Q Q Q Q Q ",
"Q Q Q ^ ~ Q - *.#.#.& = * : 3 3 3 3 3 , 3 3 4 1 3 3 3 3 1 3 3 , 1 1 3 3 3 - * * #.$.#.* ! ! Q Q Q Q ",
"Q Q / Q / Q ~ * & $ j z b x z z x m x z c c z x z z x z x x z z z b x z x c z l * * = Q Q Q _ Q ~ ~ ",
"Q Q Q Q Q / ~ Q Q @ c b b z c z n b z z z x z z b z n z z z z z z z b b z x z x   Q Q Q Q / Q ~ Q Q ",
"Q Q Q Q Q Q Q ( ! X 3 3 1 3 3 , 3 3 3 1 3 3 3 3 3 , 4 3 3 3 3 2 4 , 3 3 3 3 3 3 X / Q Q / Q / Q / Q ",
"/ Q Q Q ! Q Q ! Q X x z z z z z z b b z c z z b x z z z b z c z x b z b z z z z O Q ~ Q / Q ! Q Q Q ",
"Q Q Q Q ~ Q ~ Q Q X z z x z z z z z x x z b z z z z z b z z z z z x b z z c z x X Q Q / Q ! / Q / Q ",
"! Q Q Q ~ / Q Q Q X z z x # X X c b z x n z z z b z z z z z z x n z X X X z z z X / ! ~ Q / Q Q ! Q ",
"Q ! ~ Q Q Q / Q Q . 3 3 # * $ * X 3 3 3 3 3 X X # X X X 3 2 , 3 3 X = * * X 4 3 X ^ Q Q / ~ Q Q Q Q ",
"Q Q ^ Q / Q Q / ( X z b X - = $ X m b b x O - = $ * = = X c z z x X & * * + z b X Q / / / ~ ~ Q Q ! ",
"/ ! ~ / Q Q / Q Q X z z X * - ; X b c c X * * * $ = * $ * o c b z X * * = + z b X Q Q / Q Q ! / Q / ",
"Q Q Q Q Q Q Q ! Q X x z + z z z X z z z X * - - * * - * - O c c z X z z b X m b O ! Q Q Q ^ Q Q Q Q ",
"Q Q Q Q Q ! Q Q ~ X 4 3 3 #.#.#.2 , 4 < X * $ * * * * $ - O 3 3 > 3 #.#.#.3 3 3 X Q Q Q Q Q Q ! / Q ",
"~ Q Q ! ~ Q Q ! Q O x v z z z z v z c v X % * * $ * * * * o x n z b z c b b m z o Q Q Q / / Q ~ Q Q ",
"Q / Q Q Q Q Q Q / X z z x z c c b z z z X $ $ - * * * * $ O z b x z z z z b z c X Q Q / Q Q Q ! Q Q ",
"Q Q Q Q Q Q Q Q / . z z z z z z z x z c @ = 3 3 3 3 3 , $ @ z z z z c z z z m z X Q ^ ~ Q Q Q Q Q Q ",
"Q Q Q Q Q ~ ~ Q Q / X O X X X X O @ . X X 3 b b x z z z 3 X X X O X X X X X O X Q Q Q Q ~ ^ Q Q Q Q ",
"! Q Q Q ~ Q / Q Q Q G G X h h X G K E G G * z h h h l z * T G U G G X k g X G A ! Q ~ Q / ! ~ ~ Q Q ",
"Q Q Q Q Q Q Q Q ! ~ G H X z z X A G G G G * x x z z v x = G G G W U X c b X G G Q ! / Q Q Q Q ! Q Q ",
"Q Q Q Q Q ~ ! / / ! G G + z z X H G G S G * z h j h l z * U D U I Y X z v X G U ^ Q Q ~ Q Q / Q ! Q ",
"Q Q Q Q Q Q Q ~ / Q D U X z z O G G K L S = z x z z z z $ G K K G U @ z z X G H Q Q Q Q Q Q Q ! Q / ",
"Q Q / ^ Q Q Q Q Q ~ G H X z b X F G G G K * x h h l h c $ K G L H R X z z X A T Q Q ! Q ) Q Q ~ Q Q ",
"Q Q Q ~ Q ! Q Q ! Q ) S X z c X Y G G G G * z m z z z z * G G F G S X z z X G Q Q Q ~ ~ Q Q Q Q Q Q ",
"Q Q ~ Q Q ~ Q Q Q Q Q Q G + X G G G P A G * b h h h h z * D P G L G G X o D Q Q Q Q Q / Q Q Q Q Q Q ",
"Q ! Q Q ~ Q Q Q ! Q Q Q ( ~ Q Q / Q Q Q G * z z z b z z * K Q Q Q Q ( ^ Q Q ~ Q Q Q ~ Q Q Q Q Q Q Q ",
"~ / Q Q Q ! ! Q ~ ~ Q Q / Q ! ! Q Q Q ~ G * z g h h g z * G Q / Q Q Q _ / Q Q Q Q Q Q Q Q Q Q Q Q ~ ",
"~ Q / ( Q Q Q Q Q Q Q ! ! Q Q Q Q ~ Q Q G * b z b c z z $ H Q Q Q Q Q Q Q Q Q Q Q Q / / Q Q Q Q Q Q ",
"_ ~ ! ) Q Q ) ~ ! Q Q Q Q ~ ~ ~ Q Q Q Q Q U * * & * * - J Q Q Q / Q Q Q Q Q ! / Q Q Q Q Q Q / Q Q Q ",
"! Q Q Q Q / Q Q Q Q Q ! Q Q ! Q ~ Q Q Q Q / Q Q / Q Q Q Q ~ Q Q ) Q Q / / Q Q Q Q ! Q Q ^ Q ! Q ~ Q "
};
