/* XPM */
static char *result[] = {
/* columns rows colors chars-per-pixel */
"50 50 105 2 ",
"   c #6B4B5B",
".  c #744C60",
"X  c #754C60",
"o  c #744D60",
"O  c #754D60",
"+  c #744C61",
"@  c #754C61",
"#  c #754D61",
"$  c #90625C",
"%  c #91625C",
"&  c #91635C",
"*  c #90625D",
"=  c #91625D",
"-  c #90635D",
";  c #91635D",
":  c #AA7858",
">  c #AA7958",
",  c #AB7958",
"<  c #AA7859",
"1  c #AB7859",
"2  c #AA7959",
"3  c #AB7959",
"4  c #67825C",
"5  c #66835C",
"6  c #67835C",
"7  c #67825D",
"8  c #66835D",
"9  c #67835D",
"0  c #78A058",
"q  c #79A058",
"w  c #78A158",
"e  c #79A158",
"r  c #78A059",
"t  c #79A059",
"y  c #78A159",
"u  c #79A159",
"i  c #8DB05C",
"p  c #8DB15C",
"a  c #8DB05D",
"s  c #8CB15D",
"d  c #8DB15D",
"f  c #B68862",
"g  c #B68962",
"h  c #B78962",
"j  c #B68863",
"k  c #B68963",
"l  c #B78963",
"z  c #C49A6C",
"x  c #C59A6C",
"c  c #C49B6C",
"v  c #C59B6C",
"b  c #C49A6D",
"n  c #C59A6D",
"m  c #C49B6D",
"M  c #C59B6D",
"N  c #A4C262",
"B  c #A5C262",
"V  c #A4C362",
"C  c #A4C263",
"Z  c #A5C263",
"A  c #A4C363",
"S  c #A5C363",
"D  c #B1C372",
"F  c #B1C273",
"G  c #B1C373",
"H  c #B2C372",
"J  c #B3C372",
"K  c #B2C273",
"L  c #B2C373",
"P  c #B3C373",
"I  c #B2C473",
"U  c #B2C573",
"Y  c #B1C274",
"T  c #B2C374",
"R  c #B3C374",
"E  c #B2C375",
"W  c #B2C474",
"Q  c #B3C474",
"!  c #C0D470",
"~  c #C1D470",
"^  c #C0D570",
"/  c #C1D570",
"(  c #C0D471",
")  c #C1D471",
"_  c #C0D571",
"`  c #C1D571",
"'  c #DCB88A",
"]  c #DDB88A",
"[  c #DCB98A",
"{  c #DDB98A",
"}  c #DCB88B",
"|  c #DCB98B",
" . c #DDB98B",
".. c #E8CEA6",
"X. c #E9CEA6",
"o. c #E8CFA6",
"O. c #E9CFA6",
"+. c #E8CEA7",
"@. c #E8CFA7",
"#. c #E9CFA7",
"$. c #F3E4C2",
"%. c #F2E5C2",
"&. c #F3E5C2",
"*. c #F3E4C3",
"=. c #F3E5C3",
/* pixels */
"! ! ~ / ! ( ( / ! ! ! ! ! ! ( ^ ! ! ^ ! ~ ^ ! ! ! ! ! ! ! ! ( ! ( ! ! ! ! ! ~ ^ ! / ! ! ~ ^ ! ~ ! ! ",
"^ ^ ! ! ! ! ! ! ! ! ! ! ! ! ^ ! ^ ! ! ! ! ! * * - * - * ( ! ( ! ! ! ~ ) ! ( ( / ! ! ! ! ~ ! ! ! ! ! ",
"^ ! ) ! ! ! ^ ! ! ! ~ ! ! ) ! ! ~ ! ! * * * [ [ { | [ [ = * = ! ! ! ! ! _ ! ! ! ~ / ^ ! ! ! ^ ! ^ ! ",
"! ~ ! ! ! ! ! ! ! ! ! ! ~ ~ ( ^ = - * [ ' [ [ [ [ [ ' { [ { { = * * ^ ! ^ ( ) ^ ~ ! ! ! ( ~ ! ! ! ! ",
"^ ~ ~ ( ^ ! ! ! ! ( ^ ` ! $ = * [ ' [ [ [ ' q w u y w w [ [ [ { [ | * * * ` ! ! ! ! ^ ! ! ! ! ! ( ( ",
"~ ( ^ ! ( _ ^ ( ! ! * = * ' [ |  .[ { y y w ` C C N V ! w w w [ [ { { ' [ = - * ^ ! ( ! ! ^ ( ~ ) ! ",
"! ( ) ! ( ! ! * * - [ ' [ [ [  .e w w C p e ! C C N N ^ y d C e w 0 [ [ [ } [ ' * * $ / ( ! ^ ! ! ! ",
"! ! ( ! ~ ~ = [ [ | [ [ [ w w r e ! ! C d w C d p d d C q a N ! ! 0 w e w [ [ [ [ { { ; ^ ! ! ( ~ ! ",
"^ ~ ! ^ ( ! & | [ ' r w w C S d y ! ^ N s w ^ A C N C ! r d C ! ! e d C C e 0 w | ' | = ! ( ! ~ ! ( ",
"! ! ! ^ _ ! = z e w d e ! ! A d w C C C d 0 ^ C C A S ! e d C B Z w d Z ! ! t s w w z * ! ! ! ( ! ^ ",
"! ! ! ! ( ~ ( * 5 N d w ! ! C d w ! ! C a e Z s p a a C w d A ! ! e p C ! ! w s B 6 * _ ( ) ^ ( ! ^ ",
"! ( _ ~ ! ! ! ! 7 C d 0 N V C i w ! ! A a w ~ A C N Z ( w p Z ! ^ y d C B C 0 d C 6 ! ! ! ^ ! ( ! ! ",
"! ! ! ! ! ~ ! ! 6 C p w ! ! C a u Z C V d w ) C Z V A ! w d Z C Z w d C ! ! w d C 8 ! ~ ^ ! ! ! ! ! ",
"~ ! ~ ! ! ~ ~ ! 4 C d e ! ~ A d w ! ) C d y 2 2 2 2 2 2 w s C ! ! w d C _ ( w a A 6 ^ ~ ! ^ ! ( ! ! ",
"! ! ! ! ! ( ! ( 6 C s w Z A Z d e ! ! 2 2 2 o.o...@.o.O.2 2 3 ) ^ w d C Z C w d C 6 ! ( ! ! ! ! ( ! ",
"~ ( _ ^ ! ! ~ ! 9 C s w ! ! C d 2 , 2 ..o.#.=.&.&.=.&.&.+.o.o.2 > 2 d A ! ! w a C 6 ! ! ~ ) ! ! ! ! ",
"! ! ! ! ^ ( ~ ! 6 Z a w ( 2 2 > o.o.o.%.$.&.[ { [ [ ' [ &.&.&.o.o.o.2 : 2 ~ 0 s Z 6 / ! ~ ! ~ ! ^ ! ",
"~ ( ! ! ! ! ^ ! 6 A < 2 2 O...@.=.$.=.{ [ { | | | [ [ [ [ { ' &.&.$.O.....2 2 3 A 6 ! ! ! ! ! ^ ) ! ",
"^ ! ( ! ! / ! 2 > 3 o.o.o.&.$.&.| ' { [ [ [ * * = * * = { [ ] [ [ [ $.&.=.O.X.@.> 2 2 ~ ! ^ ^ ! ~ ! ",
"( ! ^ ~ ! ) 2 o.o.o.&.%.&.' [ { [ [ [ * ; * * - * * = % * * ; ' [  .| [ [ &.&.%.o.@.@.2 ! ! ^ ! ( ~ ",
"~ ! ! ! ! ^ 2 &.&.=.[ [ [ | [ [ = * * * - * * * * * * * * * * * * $ [ [ [ |  .[ &.&.*.2 ! ! ( ^ ! ! ",
"! ! ( ^ ! ~ * | [ [ [ ' [ * * * * - * * * * - - * % * % = * * $ * = % * = [ [ [ ] ' ' * ^ ! ! ! ( ! ",
"! ^ ( ! ( ! * [ | [ * * * 3 2 3 < > 2 2 < 2 2 3 2 3 > 2 > 2 2 2 3 > 3 3 2 $ * * [ [ [ = ! ! ! ! ! ~ ",
"! ! ! ! / ! ! * * * k c z z x b m z z z z z z x z x m z z v x b z x z z z x z j * * * ! ! ( ! ~ ! ! ",
"! ! ! ! ! _ ! ^ ! X x v z c z x c z z z z b z c x M c z z z n z c z v c z M z M   ^ ! ! ! ! _ ( ^ ! ",
"( ~ ! ~ ! ! ! ~ ! @ 2 2 3 3 2 2 3 2 2 2 1 < 2 < 2 2 < < 3 < 2 1 2 > 2 < 2 2 2 2 X ! ! ~ ! ! ! ! ( ~ ",
"! ! ~ ! ~ _ ! ~ ^ X z z b z c x c x z z v z x z b b c c c z z z z x z z x z c c X ( ! ( ~ ! ^ ~ ! ( ",
"! ( ! ! / ! ^ ~ ( # n z z z z z m z z z x z x c x z x x x b z z m x z c x z c z @ ~ ~ ! ) ! ! ! ! ^ ",
"! ! ~ ! ! ! ! ! ( @ z c z @ O X b z z x z z b z x z c c x c z z c z X . @ z z x X _ ! ! ! ~ ! ! ! ~ ",
"! ~ _ ! ~ ! ! ! ! @ 2 2 . * - ; X 2 2 2 2 2 X O . X O @ 2 2 2 2 > . = - * X : 2 X ! ! ) ~ ! ! _ ! ` ",
"! ~ ^ ( ) ( ! ! ~ X b v . $ * * @ c z z z X * * * = $ - X b z M x X = = * O z b O ! ! ^ ! ! ^ ! _ ^ ",
") ( ! ) ( ^ ! _ ! @ b m X * * & X z x z O = * * * - = = * X z z x @ = * * X c z . ( ( ( ! ! ^ ! ! ! ",
"! ! ! ! ! ! ! ! ! X z x X x x m X z z z X * * % - * - * = X z m z X n z z @ c z @ ( ! ! ! _ ! ^ ^ ( ",
"~ ! ~ ! ! ! ^ ! ! X , 2 > [ [ [ 3 2 2 2 X * * * * - * $ * X > 2 < 3 [ [ [ 2 2 2 @ ! ! ! ! ! ! ( ! ! ",
"! ( ! ( ! ! ~ ~ ~ @ z z c z z z b c x z O = = - * * * - * X b x z z x x z z z b @ ! ! ! ! ( ^ ! ! ! ",
"! ! ~ ! ! ! _ ) ~ X z x z z z b z b z x O & * * * * * * * X z z c z x z z z m n X ! ! ( ( ( ! ! ( ! ",
"! ! ! ! ~ ! ! ! ! X z x z c z z v z n x O = 3 2 2 2 2 2 * X z z z z z z x x z z + ! ! ! ! ~ ^ ) ^ ! ",
"! ! ! ~ ^ ! ~ ! ! ! . X X X X X X X X X X 2 z b z z z b 2 O O O X . X O X O X X ! ! ~ ( ! ~ ~ ! ! / ",
"! ! ! ^ ) ! ) ) ! ~ I K o g g X L L G R L $ z k g k k z * L L L L L O g g O G L ! ! ! ! ! ! ! ! ! ~ ",
"^ ! ! ! ! ! ! ( ! ! L L X c v X I L P L I * z z z x x x * I L L L R @ z z X J L _ ! ! ! ( ! ( ~ ! ! ",
"! ! ! ! ! ~ ! ! ~ ^ K L X x c O P T Y L L * x j h g g n $ P L L I L X z z X L L ! ( ~ ! ~ ! ! ! ( ! ",
"^ ! ! ( ^ ! ! ^ ( ~ L P . z z X L L D L I * b z z x z z * P G L T L X z b X L T ! ~ ^ ! ! ~ ! ! ~ ! ",
"( ! ~ ! ~ / ! ! ! ! L L X z z O L L L L K * c j f g g z * K L T T P # m z X U L ! ^ ! ! ( ! ! ! ( ! ",
"! ! ! ^ ! ^ ~ ! ` ! ( I o b z X H T F H K - z z z z z z = K P L I L @ c z X T ! ! ! ! ~ ! ( ! ^ ! ! ",
"! ! ! ( ! ( ! ! ! ! ! ~ L X X I I L E G I * z h k l g z $ Q L I P I L X X I ^ ^ ~ ! ! ! ~ ! ~ ^ ^ / ",
"! ! ! ! ! ! ! ! ! _ ! ! ^ ~ ^ ! ! ~ ! ( P * x b x b b z * I ! ~ ^ ! ^ ! ! ! ( ! ! ! ! ! ~ ! ! ! ! ! ",
"! ! ! ! ! ! _ ! ! ! ~ ! ! ! ! ! ^ ~ ! ! L * x f k h g z = W ~ ( ( ! ! ! ! ) ! ~ ! ! ! ( ~ ! ! ! ^ ! ",
"! ! ( ! ! ! ! ! ! ^ ! ! ! ! ! ! ! ! ! _ E - z x z x z x * T ~ ! ! ! ( ~ / _ ( ! ! ( ! ! ! ( ! ! ! ! ",
"! ! ! ! ! ! ! ! ^ ! ^ ~ ( ! ! ) ! ! ~ ^ ! I * % * * - $ L / ^ ! ) ( ` / ^ ^ ! ! ! ^ ( ! ^ _ ! ) ! ~ ",
"! ! ! ! ~ ! ! ! ! ~ ! ! ! ! ~ ( ( ! ) ! ! ! ( ! ! ( ! ! ! ! ! ! ! ^ ~ ! ^ ~ ! ! ! ! ! ( ^ ( ! ~ ^ ! "
};
