/* XPM */
static char *result[] = {
/* columns rows colors chars-per-pixel */
"50 50 138 2 ",
"   c #FF0100",
".  c #FE0001",
"X  c #FF0001",
"o  c #FE0101",
"O  c #FF0101",
"+  c #FE0503",
"@  c #FE0603",
"#  c #FC0604",
"$  c #FC0705",
"%  c #F7170D",
"&  c #F8170A",
"*  c #F8170C",
"=  c #F9170C",
"-  c #F9170D",
";  c #F6180D",
":  c #F71A0E",
">  c #F61B0E",
",  c #F8180D",
"<  c #F9180D",
"1  c #F51819",
"2  c #F22916",
"3  c #F32916",
"4  c #EF321A",
"5  c #EF331B",
"6  c #ED391E",
"7  c #EF391E",
"8  c #F0321A",
"9  c #F0331A",
"0  c #F0331B",
"q  c #EC3E20",
"w  c #ED3E20",
"e  c #EA3634",
"r  c #FA4738",
"t  c #90625C",
"y  c #90625D",
"u  c #91625D",
"i  c #AA7958",
"p  c #AA7959",
"a  c #D29650",
"s  c #D39650",
"d  c #CFA356",
"f  c #CFA257",
"g  c #CFA557",
"h  c #CEA758",
"j  c #CCAF5B",
"k  c #CDAC5C",
"l  c #CBB05E",
"z  c #CBB15F",
"x  c #CBB25E",
"c  c #CAB35E",
"v  c #CBB25F",
"b  c #C8B560",
"n  c #CAB461",
"m  c #C7BD64",
"M  c #C7BC65",
"N  c #C7BD65",
"B  c #C7BE64",
"V  c #C6BE65",
"C  c #C7BE65",
"Z  c #C6BF65",
"A  c #C7BD66",
"S  c #C6BE67",
"D  c #C8B862",
"F  c #C9B962",
"G  c #C8B963",
"H  c #C9BB63",
"J  c #C8BD64",
"K  c #C8BD65",
"L  c #C2CE6C",
"P  c #C2CF6C",
"I  c #C0CF6F",
"U  c #C2CE6F",
"Y  c #C2D06D",
"T  c #C2D16D",
"R  c #C0D16E",
"E  c #C1D16E",
"W  c #C2D16E",
"Q  c #C3D16E",
"!  c #C1D26E",
"~  c #C1D26F",
"^  c #C1D36F",
"/  c #C2D26F",
"(  c #C0D470",
")  c #C1D470",
"_  c #C0D570",
"`  c #C1D570",
"'  c #C0D471",
"]  c #C1D471",
"[  c #C0D571",
"{  c #C1D571",
"}  c #EBE178",
"|  c #5E4C90",
" . c #5C4E92",
".. c #5D4E92",
"X. c #5C4F92",
"o. c #5D4F92",
"O. c #5C4E93",
"+. c #5D4E93",
"@. c #5C4F93",
"#. c #5D4F93",
"$. c #634B8F",
"%. c #766CAA",
"&. c #776CAA",
"*. c #766DAA",
"=. c #776DAA",
"-. c #766CAB",
";. c #766DAB",
":. c #776DAB",
">. c #808080",
",. c #818080",
"<. c #808180",
"1. c #818180",
"2. c #808081",
"3. c #818081",
"4. c #808181",
"5. c #818181",
"6. c #B6B6B6",
"7. c #B7B7B6",
"8. c #B6B7B7",
"9. c #B7B7B7",
"0. c #E8B5AC",
"q. c #E9B5AC",
"w. c #E8B4AD",
"e. c #E8B5AD",
"r. c #F2EDBA",
"t. c #E0BEC7",
"y. c #DDD4DE",
"u. c #DDD5DE",
"i. c #F2D8C5",
"p. c #F2D9C5",
"a. c #F2F2C0",
"s. c #F3F2C0",
"d. c #F2F3C0",
"f. c #F3F3C0",
"g. c #F2F2C1",
"h. c #F3F2C1",
"j. c #F2F3C1",
"k. c #F3F3C1",
/* pixels */
"( ( ( _ ( ` ' ( ( ( ( _ ' { ( ( ( ( _ ( ( ( ] ( ' ( ( ( _ ) ( ( [ ( ( ) ) _ ( _ _ ` ( ( ) ' ' ) ' ( ",
"[ _ ( ) ( ) ` ( ( ] _ ( ( ( ( ( [ ' ( ) ( ( ] ` _ ( ( ' ' ( ] ] ( _ ) ( _ ' ( ` ' ( ( ] ( ( ( _ ( ( ",
"( ( ( ( ( ( ) ) [ ( ) [ _ [ ( ' ` _ ) ' ) ) ' ( ( ( ( _ ' ) ' ) _ ) ( ` ' ( ( ( ) ] ' ( ) ) _ ( _ ( ",
"( ) _ ( ( ) ( ( ( ( ( ' ( _ ' _ ( ` _ ` ( ( ( ( _ ) _ ( ] _ ( ` ( ` ` ( ' ] ' ( ( ' ` ) ] ` ( ( ( ( ",
"_ ` ) [ ` _ ( ( [ ( ' ' ' ) ) ( [ ' _ ) ) ( _ ) ' ( ) ` ( ( ) ( ) ] ` ( ` ] ( ( ' ] ` ( ( ) ( ( ( ' ",
"( ] [ ( ' _ ` ( ( ( ( ) _ ) ( ( ( ) ) ) ( ( ( ( ) ( _ ) ( ( ` ( ) [ ] _ ( ) ( ( ( ( ' ( ' _ ) ( ] ( ",
"( ( ] ( ' ) ( ( ) ( ( ] ( _ ( ( ` [ ( ( ( _ ` _ { _ ) ( ' ( ( ( ( ( _ ( ' ( ( ( ' ( ' _ [ ( ' ( ) ( ",
"( ( ' ) ) ) ] _ ' ' ` ] ) ( ( [ ` ( ) ( ( ( [ ' _ [ [ _ _ ' ( ( ) { ( ( ( ( ( ( ) _ ' _ ( ' ( ' ) ' ",
"( ( _ _ ( ( ( ` _ _ ( ) ( ( ' ( ' ( [ ` { _ { ) ] [ _ ` ( ( ( ) ` _ ( ( ) _ ( ' ` [ ( ) ( ' ( _ _ ' ",
"( ( ( _ ` ' ) ( ( ' ' ( ] ' ( ) ( ( ( ' ( { ` ( ( _ ) ) ( ( ( ' ( _ ( { _ ) _ ( _ _ ( _ ( ( _ ( ` ( ",
"( _ ' { ` [ ( ' ( ( ) ( ' ( _ ( ( ) ( ( ( ) ( ( ( ` ( ) ( ) ( ` ' ( ) [ ) ' ) ( ( ( ( ] ( ( _ ] _ ( ",
"_ ( ' ' ) ( ' ( [ ] ( ) ( ' _ ( ` ) ] [ ) ( ' ) ( ) ( ' ` ( ' ( ) _ [ _ ' ' ` ( _ ) ( { ( [ ] [ ( ( ",
"( ' ( ' ) ] ( ( ( _ ) _ ' _ ( ] ( ' ` { ) ) _ [ ' ' ( ` _ ` { ) ( ] ' ' ( ` ) ( ( ( ' ' _ ( ( ) ' { ",
"( ( { ] ( ] ` ( _ ) ( ( [ ' _ ) _ _ _ ( _ ) ' [ [ ( [ { ) ` ) ) ` ' ] _ { ( [ [ ) ' ( _ ( ( ( ( _ ( ",
"( ( ( ( ) ( ( ' ( ( ' ( [ ' ( ' { { [ { ' _ ' ] ) _ ] ] O.#.+.] ' ) { ] { ( ( [ ( ) ) ( ' ] [ ( ( ( ",
"( [ { _ ] ( ' ( ( ' ) ( ) { ( ' [ ( _ _ _ ' ' ] [ ] ` X.k.s.f.o.( [ ( ' ' ) ' ( ( _ ) ( ] ) ) ( ( ( ",
"( ( ( ( ` ' ` ( ) ( ) ( [ { ( ` ( ' ' { { ` ' [ _ ' X...d.0.w.s..._ _ { ( ' ( ( ' _ ( ( ) _ ` ( { ( ",
"( ' ( ( ' _ [ ) ( ( ( ( ` ' ( ( ` _ [ { _ ) ' [ _ @.f.s.d.q.e.s.X.' [ ) ( _ ( ( ' ] ( ' ( ' ( { ] ' ",
"( ) ] ( ] ` ( _ ( _ ( ` _ ) _ ] ' ` [ ` ) _ _ ' _ O.s.d.a.k.f.s. .) { [ _ ) ( ( _ ) ' ( ' ) ( _ ( ( ",
"' ( ) ) ( ' [ ' ` ( ) _ ` ' ( _ ( ' [ { ` [ ( [ (  .d.a.h.f.a.k.O.( _ ) _ ' ( _ { _ ) ( _ ( _ ( ( ( ",
"] ( _ ( ' ( ( ( ' ) ( ( ( [ ] ] ( ` ` [ _ _ [ { ..#.h.g.d.a.s.s... .[ [ ] { ) ( ( ( ) ' ( ' [ _ ( _ ",
"( ( _ ( ( ) ) ' ' ) ' ' ) ( ' [ [ ` ( ) ( ) _ ' X.a.h.@. .g.h.h.+.) ` _ ( _ _ ( ( ( ( ( ` ( ) ' _ ' ",
"' _ ' _ [ ( [ ' ( ( ' ( [ { ' { ] ( ( ) ` ` [ (  .s.f.g.f.a.g.k.+. .{ ` ' _ _ ( ( ( ( [ ( ' _ ( ( ) ",
"' ) ( ' ) ( ) [ ( ( ' ( [ ( ( ( ] ) ` ( [ ( ) _ O.d.a.k.p.i.f.h...' ) [ [ ] ' ( ' ' ) _ ] _ ] ) ( _ ",
"( ( ` { _ ' ( ' ) _ { _ ' ' { { ( ) ( [ ( ( _ ' ) ..;.;.*.-.=.#.J [ ( _ ) ( _ ( _ _ _ ( ' ( ( ) ( ( ",
"( ( ) ) ( ) ( ) ( ( ) ( _ ` ( [ ( ) ' ' ] ' ' ( [ } &.:.%.-.=.@.` ( [ M _ ) ) ( ) _ _ [ ( ( ( [ ' ) ",
"[ ) ( ' ` ' ( _ ` ( ( ( ' ` ( ' ) [ { _  ...' ( _ } X.j.s.d.f. .] [ ' l ( ) ) ( ( ' ` ' ( ( _ _ ) ( ",
") { ( ( ( ) ` ( ' ( ( ] ] ( ' 4.u i p +.r t. .' ] o.X.d.d.g.a.o.9 ' q V { ' ) ) _ ( ] ( ) ( ( ( ( _ ",
"( ( ( ( ( ) ( ( { _ _ ) ] ( 3.,.t y y | r.y. ._ B O.@. .y.u. .C ~ N @ O ) ) ' ' ( ' ' ) ' ( ( ' ( ( ",
"( ] ( ' ] ( ( ( ( ' ` ) ( 5.<.2.1.' ( E $. .) [ x ) ..@. .O.l 3 D Z # X ] ` ( ( ' ) ( ` ) ( ( ( ( ' ",
"( ) ( ` { ] ` ' ) ( ' ( 6.>.4.3.1.e m 8 [ 4 ] w B ] ` ' ) 5 ( 2 G , s - _ { _ _ ( ) ( [ ' ) ( ( ' ' ",
"] ( _ { ' ] ( _ ( ) ' ' ] 8.9.7.1 > + : S W A @ o ( ` ] V / *   f ! Y { ( [ ( ( ( _ ' ' _ ( { _ ( ) ",
"( ( ( _ ( ( ] ( ' ) ( ) _ ( _ ( ` ] z x 2 F Z $ . { _ ) b I 6 k & U P ' ] ` ) _ [ ( _ ( ( [ ( ( _ _ ",
"_ ( ( _ ' ] _ _ ) _ ) ) ] ( ' ) ' _ 0 ` 2 H ; a < ) _ ) { _ h c V ( [ ( ) ) ] ( ( ] ` ( ( ( ( [ ) ) ",
"' ( ) ' ' _ ( ) ) ' ] ' _ [ _ ( ] C E %   d ^ R ' ` ( [ ` ) _ ' ( [ ] _ _ ` ' ( ' ] ( ' ( ' ( ( ( _ ",
"_ ` ( ) ( ( _ ( ) ( _ ( ' ( _ ] ' n Q 7 j = T L _ ( { ) ( ' ] ] [ ] ] ( ( { ( [ ' _ ( ( ` ( ' ( ' ( ",
"( ( [ [ ) ] ( ) _ _ [ ( ] ] ( ` _ ( ' g v K ' ( ] _ ` ) ] ( ' ) [ ` ( _ ( { [ ( ) ( ( ( ( ( _ ( ( ( ",
"( ) ( ( [ ( ) ) _ ( ( ' [ _ { _ _ _ [ [ ( ' ( _ ( ] ) ' _ ( ) ] ] _ ) ) ] ) ( ) ( ] ) ' _ ) ` [ ( ' ",
"' ( ( _ ' ) ] ' _ ` _ ( ( ' ` ( ( ( ( ) _ ) _ ] _ _ ( _ ( ' _ ( ( ( ( [ ( ( ( ( ( ( ( ( _ ( ( ' ( ( ",
"_ ( ( ( [ ( ( ( [ ( ( ) ) ( ( ( ( ( ) _ ` ' ` _ ) ' ( ( [ ( ` ( ( ( _ ( ( ( ) ] ) ( ) ( ( ( ( ) ( ( ",
"_ [ ( ' ( ( ( ` ] ) ' _ ) ] ' ` { [ ' ( _ ' ) ' ] _ ' _ ` ] ) ) ` ( _ _ [ ( ( ) ( ' ' ( ) _ ( ( ] ( ",
"_ ( ( _ _ ( ( _ ( { ( ( ( ) ( ( ( ( _ ) ] ( ( ( _ ( ( ) ) ) ( ) ( ( ) ] _ _ ( ' ( ) ` ( ( ` ( ( ] ) ",
"( ( ) ( ] ` ( [ ( ( ) ) [ ( ( _ [ ( ' ) [ ' ( ( ' _ ( ) ( ( ] ) ( ` ( ( ' ' [ ( ) ( { ( ( ' ( ( ' ` ",
"( ' ( [ [ [ ( ] { ] ' ) [ ' { ( ( ' ( ' ( ( ' [ ( ( ' ( ) ) ( ) ' ' ) ( ( [ ' ( ( ( _ ) _ ] ( ( ' _ ",
"' ' ( ) ( { ( [ ( ( ( ] ' ' ( ( ( ( ' ( ` ( ( _ ) ) [ ( _ ( ( _ ) ( ` _ ) _ ' { ( ) ' ' ( ( _ ( _ { ",
") ( _ ) ) ' _ _ ( [ ( ( _ ) ( _ ( ` ) ] ` _ ( _ ' ( ( ' ( ` _ ) _ _ ' ] [ ' ( ' ( ) ) [ ( ( ( ( ) ( ",
"( _ ( ( ( ' ) ( ' ( ` _ ( ' ( ) _ _ _ ( [ ( ( ( ] ' ( ) ) _ ( ' ' ] ' ( ' [ ( ( ( ( ' _ ] ( ] ' ` _ ",
"] ] ' ' ( ( [ ( ' _ ( ( ( ( ] ' _ ( ' ' ' _ ) ( ( ( _ ( ( ( ( ( ( ' ' ] ` ' [ ( ) ' { ) ) ' ' ( ' ( ",
"( ' ) ] ( ' ] ( ( ) [ ) ' _ ( ` ( _ ) _ ( [ ) ' ) ( ( ` ] ( { ( ) ( ] ) ) ( ( ( ( ( _ ( _ ' ( ' ( ) ",
"( ( ( ' ) ( ) ( ( ) ( ( ( ( [ ) [ ' ( ' ( ) ] ( ( ] ( ' ( ( _ ( ( _ ) ` ` ( ' ( ( ' ( ( [ ' ( ' _ ( "
};
