/* XPM */
static char *result[] = {
/* columns rows colors chars-per-pixel */
"50 50 58 1 ",
"  c #90625C",
". c #91625C",
"X c #91635C",
"o c #90635D",
"O c #91635D",
"+ c #AA7859",
"@ c #AA7959",
"# c #C0D470",
"$ c #C1D470",
"% c #C0D570",
"& c #C1D570",
"* c #C0D471",
"= c #C1D471",
"- c #C0D571",
"; c #C1D571",
": c #EAE178",
"> c #EBE178",
", c #EAE179",
"< c #5C4E92",
"1 c #5D4E92",
"2 c #5C4F92",
"3 c #5D4F92",
"4 c #5C4E93",
"5 c #5D4E93",
"6 c #5C4F93",
"7 c #766CAA",
"8 c #776CAA",
"9 c #766DAA",
"0 c #776DAA",
"q c #766CAB",
"w c #766DAB",
"e c #776DAB",
"r c #818080",
"t c #818180",
"y c #808081",
"u c #818081",
"i c #808181",
"p c #818181",
"a c #B6B7B6",
"s c #B6B6B7",
"d c #B7B6B7",
"f c #B6B7B7",
"g c #B7B7B7",
"h c #E9B4AC",
"j c #E8B4AD",
"k c #E8B5AD",
"l c #DDD5DE",
"z c #DCD5DF",
"x c #F3D9C4",
"c c #F2D9C5",
"v c #F2F2C0",
"b c #F3F2C0",
"n c #F2F3C0",
"m c #F3F3C0",
"M c #F2F2C1",
"N c #F3F2C1",
"B c #F2F3C1",
"V c #F3F3C1",
/* pixels */
"###%=&*#%#*%*=#$-##%&$=#*#$##$#%*=##$%#%#$##$##$*#",
"-%#$##&##$#$$$&#;##$$#=&%#***#**#%$##=#&#$#*###%##",
"*####%$#$#&*#-#*$#$-$$#####%##*#%$#$*##*$=##$$%#-#",
"#$$#*&#####*#%*&%&#&#=##%%%#####*&%#***##*$#-%####",
"#&$-&-#####-;$$#%#%#$$%#*#$%*#####&$#=*##=%#$##%#*",
"$;-#*&-####$%$###$&$###%$###%*$#$*=&#$%##%*##%-$=$",
"##*#*###$#-=#%##$####%#%**$#**#%##%#*##**#*%-#####",
"##*$$*$%#*%#$*$-&#$###*#*-%-%&*#%=#$%*##=#*%*%#*$#",
"##%&###%%%#$%#*#%#%&=%=#-%#=#####&##&%#-&%#*#*#%#=",
"$##%-#;#-**#=##$#####=$##%#####*#%*-##%$#%###&####",
"$-#*&-***###-#%##$#%#$$##%#$#$#$##$#$#$=*##;-#%*%#",
"##-*####-#$##=%#%$*-=&*$*$-*&###$&*##*$#%$*#$-==##",
"*##*#=###%$%#$#%&%=-=#&-&=*$;*=%%&*#&$$$##*#%$#$#*",
"##==#=&$#%##&-$-=;#&%&=-#;&%#$#=%%&;-*--$##*####%$",
"*######*#=*#;=&=%--*;%=;;&;*$&%&====;##-#$$##=;#$#",
"$*=#=%###*$#$$&-*#*&#$$*%-#=&--=$-*#-$*#%&#%$$$##$",
"#*##&*##$#$##%##$#---#=##=%$#*-*&%&-=;$#*%=$$#&#&#",
"#*#*#&;*#=##&##;-=*#-&12<**;#*$;-=;--%#**=#=#*#%=#",
"##;#$$#%#&##=$*;-;;&=<nMm2$*$#;;-*==*#%*%$*$*$#%$#",
"*#%$#*-#&###%*;*$=;&16MhjM1*%;=*;%*=%=#%%#####%*##",
"*%%##$*$*###*$*$%%%<mVvjkV2;-;$%%%fs--$###%*##&%##",
"#*#-*$$*-$=#%#$$=-$4MbNvbM6##;#==aiu*%###%##&;$*##",
"*%*##*##*#*#;$&;$$-1nbbMmm5-*$;=grpp%*%##-**#*#$##",
"*$%##=**##*#;=*#&%36bbBVvM62&*$;dpytt$-#***#=-###$",
"##&&#*#-#%;%$;#=;#<vm6NbMv3*&=$*=@ y&$%#%%%#*#*$=#",
"$#&$###$#*##$;*%$-6MbnbNmN52*=#+@oO$;%#*$#%####-#$",
"-$##%*#%%###--$*=#2VbNxcVn4%%<3X.=$=$#=#$*&*#$%$##",
"$-**$#&**##=$$-&$&#28ew9833%<mz<=-$$;##$%#=#$#####",
"#$$##$##-##*#$-=;#*,07w9q4&=4bl4%*;-&##%%-%#*%####",
"#$#*;#####&$%#-*$&$:6bvbv<-$%<<$%;&&$##$*#%$$####*",
"$$#&&;%*$#*#-##**;;><mVbb64=&*=&#&=$-=%%###%*$##-=",
"=#%=***%##*#-$-*&;#=<ll6421$$$$&*;--#=###%*#%#%$#&",
"###%##$#*$$#&$&%-;$;-<4$<<$-**%&=#*#*$$%-*###-##%#",
"###$*##%#%$$&%##=#;%&%--$==**=-#=-*-&#&#*$$####*#$",
"##$**##=&=*#-*-$**=%##%-%#=#=;;*&#=$&;#***#*#*###%",
"-$%$##%#$$%#*=$**$#*##-%$#%&$#=$%##*=;#-*#####***#",
"##-=$=#$#%;*$;&#=;=$;=%=;=$*&$*%&%**%$%%$#####%##*",
"%$##%#$##%##%=$*-&%;;#;=*$*#$#=&%$-;-$###-$*%#&%##",
"*##%=$=*%$%##%&$###$$#--#%##%*#$##%;*#######%*#*##",
"########%*#&$$####$%$*&#$###*#$#####%%$*$#$#*$#$##",
"$%$-#*%#$$*%$**&&**#%##*=%*%$$#$%##-*####=##$###-#",
"%##%#$$%#;###$##%##$######%#=$##$*%*%%##*$%##&##$$",
"#$$*$&$%##$#*%#$&#*$--##*%#$##=&%$##**-#$#*##*#%*;",
"#=%-*%#*;$=&*#-#$*####*%###*#%###*###%*##$#$%*#%##",
"*##$#-#-#*#$*-#&%#*$&#%%#*%*#-#-$#&#$%%&#$*##$%%%$",
"$$%#=*#%#-##%$%%#&$-##*%###*%&#$#%#$%##*#&#-######",
"###$#*$#*#%%###$%#%#%###*-#$$%$***-#*-####*%$#;*%%",
"$=*#####*%#*#*=*%#***%$###%$#$####;=&--*#==$$***##",
"#*$=#*=%##%#*%#;%#$%#%$-=###$*;##**$#%###%#$%-#*#$",
"####=*##$$#####$-#$%%#-##=**#####&##&#######-###%#"
};
