/* XPM */
static char *result[] = {
/* columns rows colors chars-per-pixel */
"50 50 58 1 ",
"  c #91625C",
". c #90625D",
"X c #90635D",
"o c #91635D",
"O c #AA7859",
"+ c #AA7959",
"@ c #C0D470",
"# c #C1D470",
"$ c #C0D570",
"% c #C1D570",
"& c #C0D471",
"* c #C1D471",
"= c #C0D571",
"- c #C1D571",
"; c #EAE178",
": c #EAE179",
"> c #5C4E92",
", c #5D4E92",
"< c #5C4F92",
"1 c #5D4F92",
"2 c #5C4E93",
"3 c #5D4E93",
"4 c #5C4F93",
"5 c #5D4F93",
"6 c #766CAA",
"7 c #776CAA",
"8 c #766DAA",
"9 c #776DAA",
"0 c #766CAB",
"q c #776CAB",
"w c #766DAB",
"e c #818080",
"r c #808081",
"t c #818081",
"y c #808181",
"u c #818181",
"i c #B7B7B6",
"p c #B7B6B7",
"a c #B6B7B7",
"s c #B7B7B7",
"d c #E8B4AC",
"f c #E9B4AC",
"g c #E8B5AC",
"h c #E8B5AD",
"j c #DDD4DE",
"k c #DCD5DE",
"l c #DDD5DE",
"z c #DCD4DF",
"x c #F3D9C4",
"c c #F2D8C5",
"v c #F2F2C0",
"b c #F3F2C0",
"n c #F2F3C0",
"m c #F3F3C0",
"M c #F2F2C1",
"N c #F3F2C1",
"B c #F2F3C1",
"V c #F3F3C1",
/* pixels */
"@@&$@%&@#@@$=*#@@#$@@@*@&@@@%@@@&&@$#$@%@%@$#@@#&@",
"=$$#$@%$@@@&#@$@=&@@*@*-$@&&&@**@$##&&@%&$@*$@@$&@",
"@$@@@#%@@@#&$=@=#@#&##@#$@#$$#&@$#@%&@@@#*@@##$&$@",
"&#@@$@@@@@@&@@&-@%@%&#@@$&$@*@@#&%$@&*=@@&##&$@@@@",
"$%@$%$@$@$&=&#@##@$@@@$@&&#$@@@@#=-@#*&$&*%@@&@@@&",
"@*-&&$%&@@@%$#@#@%%-#@@@#@@#$&%@@=&$$##@@@&&@=&#*@",
"@@*@&@$$#@$*@$@@@&@&@$@$*%*$&@@@@@%@&$@@&@&$=#$#@@",
"$@&#@@#$@@$@*%#=%@#@@$&@$==@$@@&#*@#@@$##@&$@&$&#@",
"@@$$@=@$$@&%@@&@$@-%%=-@-*$@@@#&#$$@%$@=*$@$@&#$@&",
"@@@@$&#@@&&@*@@#=@@@&-%#@$#@@@@&@=&-$@$&@&&@@$@@@#",
"@$@*$=@&@*#&&@%@@#&@@#@@#$@%$%@-@@@$@@#&@@&-=@$#$$",
"@@&&@#@&=@@@@-$*#%&=##-#=%&=%@&@%$=@&&#@@#@#@=-&@#",
"@@@&@*@@@$*$-$-*$$@$&@#&=-&*@--=$%@$#%#&$@&@$@@#@=",
"@#@&$&%@@@@@%&$**#*&$@@=@*$%&@@&=**$====#&#$@@@*$@",
"@@@@@@@&@@-#%=$&-@&@%$&#&*@-&-%@&&&#%&@=@##@@*=&@@",
"*=&@*@%@@&#=*&*#$%#%&#**@%-&=*@&&%@#-#*@&$@@###@@@",
"@@&$%&#@###@&%%=$&&%-$=#@#@&#&#&@*=**%@$&$@$#@%@%@",
"@&@&#%=@@@@@-@%=*&#@@=#-@>2,-%&&#&-@$-@&=*@*@&@$*&",
"@#-@#%@$@=@$&&--=*-@&&#$>bVN3@*-@$*%$@$&$#@@&#@$*@",
"-$$%@&=@%%#$@&-&**$%#$%>mdfb,1$-*$$-@-@$$$##@@%@$@",
"*@-@&&&&*#&@*$aa%#%-$=%<NghmNB<@@=%&=&#&@@$&&@=$@@",
"@&@$@%@*&@&&##eui&=*#$%<bNbNbv4@&@#--$@@@&@@#@$@@&",
"&$&@*@$@&@&@*%ytup$@%@*4mbBbbb,*$=#*@@$@@@@&#*@#&#",
"&*$&@@-$&@&$*rrrts=@=#,,BbbNbV5,&**&=*&#&&*@#$#@#@",
"@@%-&&@*@$-$$&uoO@@=$%&<mvbb<nm<%==&=*$@$@$@&@@##@",
"@@#%@@&#@##@*$&  O+-&&5>vBmVbvm<====*$#@#@=&#@@=@#",
"$#$*%=&%$#@$@@*%$X.>3-$2VbcxbVm2=-%@=%%@@&%*@%$##@",
"$=@&&@%@&@@**-@%%#2lm>->,8qw68,*=##$#-##$@*@%@@@$$",
"@@#&@#@@=$@#&*-&%=4kv>$%106978;$=#%=#*&@@=&@&@@&&$",
"@#&&&$$@#@%#$#@*$%*>>%$&>vbNM2:@#@-=#&@&=*$%#&@&#&",
"$#@%$&$&#@=@*@$&&$&$-**>>NbmN>:&@##$%=$$*@@$=#@@&-",
"-$=-&=&$$&&@=*#&%=&#-@*52>4zj5%*$&$&@&$@@$&&$@=@@#",
"@@@-@@@@&@@@#%&=&&*==-#-23-<>&$%@-&-%%@%=@#@$=@@$$",
"@@&@&&$$#$##%*&%%@%=%$-&&*$%-%%%@#@=*%*@@#*@@@@@@#",
"&@%&@@@@#&&&%@=@&&#--#&=@#==*%-%%$#@&$=&&-$&&=$@@$",
"$#@-@@$@@$$#**@&=*=@@*%***%%#&#-@&$#&=@-&@@@@@&@&@",
"@@=&#*@#@$&@%*$%&&$**##&*%##%&@#*$&=@&$@#@@#@$@@@@",
"@#@$=@##$@@&*&#-==&&-@%-&---$&%#%&-@&*@#%-%-&@=-@&",
"&@@@*@#&$%$@@*%@@@%=%#$=$$&$@&@@*@@-=@@#&@%$=#@@@@",
"@@@$$@@@$@@%#@@&@@#@%&%@#@@@&@##$@@@@@#=#@##&&@#@@",
"$@#&%@@$*#@$#&@@-$&$$@@=%@@$#@#%%$@=@@$@@&&@#$$@&@",
"$&@$@@@$@-@@@#$@@@@#&@@&$@@###$@@@@&$@@&&@#@@%&@*#",
"@@#@#%@&&@##=@@@=@**-@#@&$@#@@**@@@@&==@#@&@@&@%&%",
"@*#=*=@*-#&@&&&@@&@@@@=$$@@@*#@@&&@@@=&&@@$#$@#&=$",
"&$@#@=@=@#@&&&@@%@&@-@@$@&=&$$@%#@%$@$$%##&&*&#@$-",
"#@$#*&@@@=@@$%@@@%=&#@@=#$@&=%$*@$@#$@@=$#@=$@&@#@",
"&#@@@&#@&$$$@&@#$$$@=@@#*&&##$#*&&&@&=@@@@&=-#@&@$",
"#*&#@@$#&$@&@**&$@=&@$&@$@=@$@@@$@=*%-=@@&*@#&&@@@",
"$&%*#=*&%@=@&-@%@@%$&=#&#$@##@%@#&-##$&@@$@@$*&&@*",
"=@@&#=#@@#@@@@$#=@#@@@=@@*@@@@$@@$#$#@*@@@@@=@#&$@"
};
