/* XPM */
static char *result[] = {
/* columns rows colors chars-per-pixel */
"50 50 136 2 ",
"   c #FE0000",
".  c red",
"X  c #FF0100",
"o  c #FF0001",
"O  c #FE0101",
"+  c #FD0402",
"@  c #FE0502",
"#  c #FF0403",
"$  c #FD0604",
"%  c #FD0804",
"&  c #F7170D",
"*  c #F8160A",
"=  c #F8160C",
"-  c #F9170C",
";  c #F9170D",
":  c #F7180D",
">  c #F61A0E",
",  c #F61B0E",
"<  c #F61B0F",
"1  c #F71D0E",
"2  c #F61D0F",
"3  c #F8180C",
"4  c #F8180D",
"5  c #F22915",
"6  c #F32816",
"7  c #F32916",
"8  c #F22917",
"9  c #EE321B",
"0  c #EF391F",
"q  c #EE3A1E",
"w  c #F1321A",
"e  c #F0321B",
"r  c #F0331B",
"t  c #EC3E20",
"y  c #EC3E21",
"u  c #EC3F21",
"i  c #FD4638",
"p  c #90625C",
"a  c #90625D",
"s  c #90635D",
"d  c #AA7958",
"f  c #AA7959",
"g  c #D29650",
"h  c #D29850",
"j  c #CFA357",
"k  c #CFA557",
"l  c #CEA758",
"z  c #CCAE5A",
"x  c #CCAE5C",
"c  c #CAB05E",
"v  c #CBB05E",
"b  c #CAB15E",
"n  c #CAB05F",
"m  c #CBB15F",
"M  c #CBB25F",
"N  c #CAB35F",
"B  c #C8B461",
"V  c #CAB460",
"C  c #C6BC65",
"Z  c #C7BC65",
"A  c #C7BE64",
"S  c #C7BF64",
"D  c #C6BE65",
"F  c #C7BE65",
"G  c #C6BC66",
"H  c #C6BE66",
"J  c #C9B962",
"K  c #C9B963",
"L  c #C9BA63",
"P  c #C8B964",
"I  c #C8BD65",
"U  c #C8BE64",
"Y  c #C2CE6C",
"T  c #C2CE6D",
"R  c #C0CF6F",
"E  c #C1CF6F",
"W  c #C2CF6F",
"Q  c #C1D16C",
"!  c #C1D06E",
"~  c #C1D06F",
"^  c #C2D16E",
"/  c #C2D16F",
"(  c #C2D26F",
")  c #C0D271",
"_  c #C0D470",
"`  c #C1D470",
"'  c #C0D570",
"]  c #C1D570",
"[  c #C0D471",
"{  c #C1D471",
"}  c #C0D571",
"|  c #C1D571",
" . c #EAE078",
".. c #EAE179",
"X. c #5C4E92",
"o. c #5D4E92",
"O. c #5C4F92",
"+. c #5D4F92",
"@. c #5C4E93",
"#. c #5D4E93",
"$. c #5C4F93",
"%. c #5D4F93",
"&. c #634B8E",
"*. c #604C8E",
"=. c #766CAA",
"-. c #766DAA",
";. c #776DAA",
":. c #766DAB",
">. c #776DAB",
",. c #818080",
"<. c #818180",
"1. c #808081",
"2. c #818081",
"3. c #808181",
"4. c #818181",
"5. c #B7B7B6",
"6. c #B7B6B7",
"7. c #B7B7B7",
"8. c #E9B4AC",
"9. c #E9B5AC",
"0. c #E9B5AD",
"q. c #F4D8AD",
"w. c #DED0D9",
"e. c #DED2DC",
"r. c #DCD5DE",
"t. c #DDD5DE",
"y. c #F3D9C4",
"u. c #F3D9C5",
"i. c #F2F2C0",
"p. c #F3F2C0",
"a. c #F2F3C0",
"s. c #F3F3C0",
"d. c #F2F2C1",
"f. c #F3F2C1",
"g. c #F2F3C1",
"h. c #F3F3C1",
/* pixels */
"_ _ _ ' ` ] [ _ ` { _ _ [ { _ _ _ ` _ ' _ _ | _ [ _ ' _ ' _ _ _ [ ' _ _ ` ' ` ` _ ] ' _ _ _ _ ` [ _ ",
"| ' _ { ' _ ] _ _ _ _ _ _ _ ' _ } _ _ ` ' _ { ` ' _ _ { } _ | [ ` _ ] ` _ { _ ` [ _ _ [ _ _ _ ' [ _ ",
"_ ' _ ' _ _ ] _ _ ' ` { ' } _ } ` [ ] [ ` ` _ _ _ ` _ ' ' ` [ [ ' ` [ ] } _ [ _ ` { _ { ` ` ] ` ' [ ",
"{ ] _ _ _ _ _ ` [ _ ` [ ' ' [ ] [ ] _ ] _ ` _ [ ' _ ' _ ` _ _ ` ' ] ' _ { { } _ _ [ ` _ _ ' _ _ _ [ ",
"' ] ` } ] ' _ _ _ ' { } [ ` ` _ ` _ } _ ' _ ' ' [ ' ` ' _ [ ' _ ] [ | _ ` [ _ _ _ { ] _ _ ` _ ' ` [ ",
"` { } _ [ ' ] [ _ _ [ ` ' ` ` _ _ ] ] { ] _ _ _ ` _ _ ` _ { ` [ ` | [ } ' ` _ _ _ [ [ [ _ ] [ ` { [ ",
"_ _ { ` [ ` ` ' { _ ' { ' ' _ _ [ [ [ _ _ ' _ ' { _ ` _ [ _ _ _ ` _ ' _ [ _ _ _ [ _ [ ' } ` _ ' ' _ ",
"` ' [ ` ] _ ` ' [ [ ' _ [ _ { } ] _ ` _ _ _ [ _ ' } [ _ } _ _ ` ` { _ { _ ` _ _ ` _ _ ' _ { _ [ ` ' ",
"_ _ ' _ [ } _ ' ' ' _ ] ' ` [ [ _ ` } ' ] ] ] _ | } ' ` _ _ [ [ _ ' ' ` ` ' [ } { ' _ } _ [ _ ] _ [ ",
"_ _ _ ' ' [ ` _ _ [ [ _ { [ [ ` ` _ _ [ [ | ] ` _ ' _ _ _ ` ' [ _ ' [ | ] [ ' } ` ] _ _ _ ' _ _ _ ` ",
"_ ' ` { ] } ' [ _ ` ` [ [ _ ' [ ' ` _ _ _ { [ _ _ ' ` ] ' ` _ ] { _ _ ' ` [ _ [ ' _ _ | [ _ ' { ' _ ",
"_ _ [ [ _ ` _ _ } ' _ ` _ [ ' ` } ] [ [ ` ` | ` } | [ [ | _ [ _ { ' } _ [ _ | _ | _ _ ` ' } | [ _ _ ",
"_ ' _ [ _ [ _ ' _ ' { ' ` ' [ [ _ ` ' [ { | ` } | [ ' [ [ _ } ` _ } _ { ' { ` _ _ _ [ _ } _ _ ` _ } ",
"_ ` [ [ _ { ] _ [ _ _ _ { ] ' ` | _ _ { ' [ { ] } } | { [ ` _ { } ` { | { ' } } _ [ _ } _ ` _ _ ] _ ",
"' _ ` _ ` _ ' [ _ _ } ] { _ _ ' ] _ o.O.+.' ' | _ } { [ _ | ' ` ] _ _ ` ] | _ } _ ` ] } _ { } ' _ ' ",
"] ' } _ { _ ` _ _ { ` [ ` } ] { [ X.i.s.g.X.{ [ [ | ` ` ' _ } ` { _ ] _ | ` { _ _ _ _ ` ] _ ` _ ` _ ",
"_ _ [ _ ] [ ` _ ] _ ` _ ] _ ' _ o.f.8.9.g.+.+.} } ] ` ` [ _ _ } ' { | _ { ] _ _ { ' _ ] { _ ] _ ] [ ",
"' [ _ _ _ ] } _ _ _ _ _ ' | _ { o.s.8.0.i.g.f.O._ ] ' ` [ { ' } ` [ ] _ | { ` _ [ { _ { _ } _ ' { | ",
"[ ` | ' ` ] ' ' _ ] _ ' _ ` ' { X.h.p.f.d.f.a.o.] ] ` } ` _ ] _ [ ` [ } [ ` _ } ' ` _ _ { ` _ ' { _ ",
"} ' ' ` _ } } ] ] _ ` ' ' { [ { O.s.f.p.i.p.d.@._ { ` { ' | ' [ ] _ ] ' ' } _ ' ' _ ` ] _ _ ] _ ' _ ",
"{ ' } _ [ ` [ _ [ ` _ _ ' ' } O.o.p.i.s.s.f.p.X.X.' [ [ _ { ] ` } ' ' { } { { _ _ [ _ [ _ [ ' ' ` _ ",
"_ _ _ ' ` ` _ [ [ ` [ _ ` ` | ' +.d.f.s.O.o.s.d.X.{ ] } ` { ` _ [ _ _ [ } ' ` _ ' [ _ _ ] _ ] _ _ [ ",
"[ ] [ ` { _ _ ` _ _ [ ' ' } } X.$.i.i.i.s.d.p.p.o.{ _ [ ] _ _ ] ' ' [ } _ } ' _ _ ` _ [ ' { [ _ [ ` ",
"{ | ' _ ` _ | } [ _ [ _ ' } [ ` X.s.g.u.y.f.f.i.X.} [ [ ' _ | ] ` | [ } { | [ _ [ [ { _ _ ' ` ' _ [ ",
"_ _ ] ] _ [ ' [ ' ' | ' ` } | _ ] %.>.=.=.-.;.X.| ] ' | } ' ' [ { } _ { | _ ' _ ' ' ' _ [ ' _ ` [ _ ",
"_ _ ` ` _ _ _ ` _ ' ` _ ` | _ [ ' X.-.;.-.-.:. .[ { _ ` ' _ { [ } ] [ | [ ` ` _ _ _ ' { _ _ _ } ' [ ",
"' ` ' { | [ [ ' ' ` ` _ { ` ` [ ] +.f.f.s.s.O...[ { [ o.o.[ [ [ { ' ` _ _ ] ` _ _ [ ] { ' ] ' ` ` ` ",
"` } ` [ [ _ | [ [ _ _ ` [ } { ] { %.i.p.i q.%.o.{ ` %.r.s.$.d f a 2.[ _ ` } { ` ' ` { _ ` ' _ _ ' ' ",
"` _ ` } ' ` _ _ [ _ _ _ ` _ ` | [ } X.e.w.X.o.@.A _ #.t.d.X.a p s 4.2._ I ` [ ' _ } [ _ [ _ ' { _ _ ",
"_ ` { _ [ _ _ } ` ` | ` ] ' { ] { ] ` *.&.#.@.{ N [ ] @.+.] ] W 2.2.3.1.n { _ [ { ` ' ` ` ` [ _ _ [ ",
"' ` _ ] } { ' [ ] { } _ _ _ | [ { u Z w } e ` t S { [ ] _ y C 7.4.3.,.<.5._ ' ' [ ` _ ' } ` ' ` [ [ ",
"| _ ' | [ [ [ ' ' _ [ ` _ [ ' ] 2 < # < H ^ G + o ` ` [ 1 , @ > 6.7.5.5.X ] _ ' _ _ [ [ ' _ ' _ _ ` ",
"_ ' _ | _ _ _ _ _ _ _ ` ] ] _ [ _ ] v M 7 J D $   ` ] | { ] c b 8 P F % . { ` ] } | _ ' ' [ [ } ' ' ",
"_ _ _ _ [ ` ' ' ` ' ` _ | } } ' [ | r ` 6 L & g : { ' [ { [ 9 ` 5 K 4 h ; _ | _ _ ` { _ _ [ _ [ _ ` ",
"} _ ] _ [ _ _ ` ] } { { ` [ | _ { F ( - O j ) ! ` [ ' | | D ~ 3 . j ( Q } { [ _ [ { _ [ ' } ' _ _ _ ",
"' ` ' ` _ _ } _ _ ' ' _ ` ` ` [ { V / 0 z = Q T { { ` { _ B E q x * R Y [ } _ | [ _ _ _ _ ` [ _ [ _ ",
"_ ` ' _ ` [ _ { _ ' [ _ ` [ | ` ` ] | k m U ` ` | _ { _ _ ' ` l M A [ | | } ' _ { _ | _ _ ` ' ` ` _ ",
"_ ] _ _ } _ { ` ] _ _ [ { [ } [ ] } | } } _ [ | ` [ _ _ ] [ ` _ } ] [ _ [ | _ ` _ | ] ` ' _ } ' ' [ ",
"[ _ _ ' { _ ` [ ' ] ] _ _ [ ] _ _ _ ` _ ' { ' } ' ' ' } _ [ _ _ _ ] _ | [ _ _ _ } _ _ _ ' [ _ [ _ _ ",
"_ _ _ ' ' _ _ _ ' _ { ] ` ' _ _ _ _ ` ' ] [ ] _ _ _ _ _ _ _ ] ] ' { _ _ [ _ ` } ` _ ` ` [ _ _ ` _ _ ",
"' ' [ [ } _ _ ' { ` [ ' _ [ ` ] } | { ] } _ _ { ` _ [ _ ` _ ` ` ' _ _ } _ _ _ { _ [ ` _ ` _ ` _ [ ' ",
"' _ _ } _ ` ` ' _ | _ _ _ ` [ _ _ _ ] ` [ _ _ _ [ _ [ _ _ ` _ _ _ _ _ [ ' _ _ [ _ ` | _ _ ] } _ { ` ",
"_ _ { _ ` ` _ } [ _ ` ` } ` _ ` } _ [ ` } [ ` _ [ ' _ { _ [ { ` _ _ _ _ [ [ } _ ` _ [ ] [ [ _ ] [ ` ",
"_ | _ } [ } _ { } ` [ ` [ [ { [ _ _ _ _ ` ' } ' ' [ _ ` _ ` ' _ [ [ ` _ ' } [ [ _ _ } { ' [ ` [ } ' ",
"[ _ _ ` _ } _ | _ ` _ { [ [ ' _ ` ` [ _ | [ _ ' _ _ } [ ' } ` ' ` [ ] ' ` ] ' ] ` ` [ _ { _ ` _ ' | ",
"{ [ ' ` ` [ _ _ _ | _ _ ' ` { ' ' ] _ [ _ ' _ ' [ [ _ [ ] ] } ` _ ' _ ` ' _ | { ' ` _ } ' ` [ [ ` _ ",
"_ _ _ _ _ { ` _ [ _ ' ' _ [ _ ` ' ' ' ' } } _ _ [ [ _ ` ` ' ` [ ' [ [ [ [ } _ ' ` _ { | | [ _ [ ' ' ",
"` { [ ` _ _ ' _ _ ' _ [ _ { ` [ ' ` [ [ ] ' _ _ _ _ ' _ _ _ _ _ ' ` } { ] } } ` _ [ { ` { [ [ _ _ _ ",
"' [ ` { _ [ { [ _ _ ' _ { ] _ ] ] ' { ] _ | ` [ ` _ _ ` ` _ ] ' ` [ { { ` ' _ _ _ ] ` _ ' [ _ [ _ ` ",
"[ _ ' _ ` _ ] _ _ ` _ _ _ _ ' ` | [ | ' [ _ [ [ _ { [ [ _ _ ' ' [ ' [ ' ` _ { _ ` _ _ _ } _ [ _ ' _ "
};
