/* XPM */
static char *result[] = {
/* columns rows colors chars-per-pixel */
"50 50 50 1 ",
"  c #90625C",
". c #90635C",
"X c #90635D",
"o c #AA7959",
"O c #AB7959",
"+ c #C0D470",
"@ c #C1D470",
"# c #C0D570",
"$ c #C1D570",
"% c #C0D471",
"& c #C1D471",
"* c #C0D571",
"= c #C1D571",
"- c #5C4E92",
"; c #5D4E92",
": c #5C4F92",
"> c #5D4F92",
", c #5C4E93",
"< c #5D4E93",
"1 c #5C4F93",
"2 c #5D4F93",
"3 c #766CAA",
"4 c #766DAA",
"5 c #776DAA",
"6 c #766CAB",
"7 c #776CAB",
"8 c #766DAB",
"9 c #776DAB",
"0 c #808080",
"q c #808180",
"w c #818180",
"e c #808081",
"r c #818081",
"t c #808181",
"y c #818181",
"u c #B7B6B6",
"i c #B7B6B7",
"p c #B6B7B7",
"a c #DDD4DE",
"s c #DCD5DE",
"d c #DDD5DE",
"f c #DDD5DF",
"g c #F2F2C0",
"h c #F3F2C0",
"j c #F2F3C0",
"k c #F3F3C0",
"l c #F2F2C1",
"z c #F3F2C1",
"x c #F2F3C1",
"c c #F3F3C1",
/* pixels */
"+++#@$%+@@+#%&+++@%+++=+%+++$+++%+++@#%##$%@@++@%+",
"=$+@#+$++&++++###+#++%=##+%&%+&%+*&%#%+$%+@*++%#%+",
"+#++@+@++#@*#*+*=#@&@@++%+@##@%@#$%=%+++@&#%@&#@#%",
"%@++++%#%#++##%##$@$+$%+#+#+@+#$+$$+%$**+*@*####+*",
"#$&*=#+++#&*%@@+++*++%$+%#@*+*@+@*=+@&++%&$++@+*#%",
"@&*+%*$*+%%$#@@+@=$&@+++@++@@*@%$#%++@##+*%%+$%@=@",
"++&+%+@=@+#&+#+++%%@+#@#&*@+%+++$%#@%#++%+%*#&++$%",
"++%@$%@#%+$#%+&*$+@@++%%+*&++++@@%+&+@++@#%$+&+%+#",
"++##+++####$#+%%+@*#$$$#**#$+++%+##+$#%*@#%@+%+#+*",
"++@##%@+#+&+&++@++###=$@+#+++@#%+#%%$%#++@$+%#+@%=",
"+#+&$*+%+@%%%+#%#@+++&+@+++$#@+$=#++@%+%#++=%+#&##",
"++%%*+++*@+@+&*@$@%%++@@#=&+$++++#*+%%$+*@++#*=%#&",
"+#+++&+%+#@#%+#&+=$#%#*$$%+u&$&*#$%*$+@+++&@*##++*",
"+@%%+@$+++++=++==&#%$+@=%#irw+w&%#%&&&%#+%+=++++$+",
"#+++@++%#+%#$=#%$+$+@$*#@#iqt0y*#%%=*++*+@+%+&&++#",
"&&*+*+$++%@&@+=$+@==%#+=#&iwyry=*$@+=*%+%#&@+@@+@@",
"++%+@%@+@+$%#@##@%++##*@+$pwe.y*+@@%&+++%#@&@+$%$+",
"$*++@$*%+++##%@*##+@$+@&#++poX%*&+=#%*++%&+&@%+#@=",
"+&$+@@%+#$@#+&+@%@*#@*$#@+&%O #++@@*%%+%#=++&@+#%+",
"%##@#%#@$+&##&%%+$$=--:#*=%1;,**#++%=#+*#+@@++$+#*",
"&#*+%+%+%@+#+@+%#$#-ggj2#=<llg-@@*@%*$&++++%++#$+%",
"@++#@@+%%@%+@++++&#:zhh>,<:zgl-@&+&$$#@+#&@#$+*+@%",
"%#%@&+#$+#%+=#$=&*+1jhlsdsdcgz;&$=&*+@#++@+*+@#+%@",
"&==+@+=*%%%#+@%$@$+-lkhhzlchjc2=$*&#=#+@%%&+&#@+++",
"++&$+%#+##=#*@#+##+,chhchhgljh,*+*%##%#+#*#+#%#@+@",
"++@@+++#%#@+%**$$$-<hzhllglhxk,<$==%%*@+@+#%+#+*+&",
"#@#&=%%##@++++&*+$#-jhhhlzjzch;*%*&@$$@++%$%*$#@@@",
"=*+&##$%%++&$*&#@*,-zzzkcxkxgx;:##%+#*@$#+&+@#++#@",
"@#@#%@++*@++&&$%%*%:hlckgckggg,+#@#&#@&++*%@%++&@@",
"+@+%&++*@@=@$@$@@*&@-,946573,1$*+*$+&++%+@$$&+%+@%",
"#@%@*&#%@&*+*#+*=+@$=1831-48-$&**$@%#+#*%++$*@#@+%",
"*+#=%%&##+%@$&#&$%+=*:h1cl-j,#+&@&=+#@+#+#%+#++++$",
"+++*++++%++@%=#%&#=&@-ggc:da,%@#$#%#@$+@*@++#=+###",
"#++@%@##@+@&*#%$&*$@=<fd,@>:=#=#&###=$&+++&++++*+$",
"**$%*++$#%%%**&+%%&*$+;;++=*@+@*##++*#%@%&+%+*#++#",
"#@#++%$++##%++*&&&#=*##&+$###&@=%%@@+=+=%@+@+@&+%+",
"+=*%@&+&+#%+$&++&@*@=#+&%$$+#%*%#=*+=##+@+=+%+#++@",
"+$++#++@=+#+@+*#*@$*%+&*+=%+=*###@&#%&+@+&=&++**#%",
"%++#@%$%+$=+#%$+++@+#@#*##+=+%+++=+=%+++%++@#%+%+*",
"#@+##+++#@&&@#++++@#$%=+@+++*+$##+++%*@*@+@=&++#@*",
"##%%#++#&@%#@%+@@**##+@&@+%#@@@@$%+#%++%+%$+@++#%#",
"%++#+@+#+=+++$+++@#@%+++++++$$%%+++%+&%%@@&++$%+&+",
"++@+@$@*%+@$#$+**+%@*+@+%++@+*$@%++@%%%+@#%#+%+$&$",
"%&+*@*+&=@%@%%%%++%@+##*#+#@@@#*%*@%#=%%++@&#%@%%*",
"%#+@+*#=+&+&%%$+@@%+*++#++=%##++@+$#@$*$@@%%&+&+#=",
"&%$@@&+++*++#@*#+$+%&++#%++%$$=@+$#@#+@%#@+*#+&+@+",
"++%@+@@+*+##@%&@###%*+++%%+$@#@%*%%%+*++@+&==*+%+#",
"@&%+++##%#@++==+#+*%$#+++++++@+$#@==#%*+%%@=%%%@++",
"#%@&%%&%++#+&++$$+&##%@&@##@@%#+&&=@@#++#+@@#%#+@+",
"%++%++@@+@++++=@=+&&+@%*+&+%@+####+*@+$+@+++*+%%#+"
};
