/* XPM */
static char *result[] = {
/* columns rows colors chars-per-pixel */
"50 50 126 2 ",
"   c red",
".  c #FE0001",
"X  c #FF0001",
"o  c #FF0101",
"O  c #FE0403",
"+  c #FF0403",
"@  c #FE0503",
"#  c #FF0603",
"$  c #FD0904",
"%  c #F9160A",
"&  c #F8170D",
"*  c #F61B0E",
"=  c #F71B0E",
"-  c #F61B0F",
";  c #F61D0F",
":  c #F8180D",
">  c #F9180D",
",  c #F9190D",
"<  c #F32815",
"1  c #F32916",
"2  c #EF331A",
"3  c #EF321B",
"4  c #EE3A1E",
"5  c #F0321A",
"6  c #F0331A",
"7  c #F0331B",
"8  c #EC1C24",
"9  c #ED1C24",
"0  c #ED1D24",
"q  c #EC3F20",
"w  c #EC3E21",
"e  c #ED3E21",
"r  c #ED3E23",
"t  c #90635C",
"y  c #91625D",
"u  c #90635D",
"i  c #91635D",
"p  c #AB7858",
"a  c #AB7958",
"s  c #AB7859",
"d  c #D29650",
"f  c #D29750",
"g  c #CFA656",
"h  c #CCAD5C",
"j  c #D0A256",
"k  c #CAB15E",
"l  c #CBB15E",
"z  c #CAB15F",
"x  c #CBB15F",
"c  c #CAB25E",
"v  c #CBB35F",
"b  c #C8B45F",
"n  c #CAB461",
"m  c #C6BD64",
"M  c #C7BD64",
"N  c #C6BC65",
"B  c #C7BC65",
"V  c #C7BD65",
"C  c #C6BE65",
"Z  c #C6BF65",
"A  c #C7BF65",
"S  c #C7BE66",
"D  c #C9B962",
"F  c #C8B863",
"G  c #C8BF65",
"H  c #C9BE66",
"J  c #C2CD6C",
"K  c #C3CD6C",
"L  c #C2CF6C",
"P  c #C2CF6D",
"I  c #C1CF6E",
"U  c #C2CE6E",
"Y  c #C2CF6E",
"T  c #C1D16C",
"R  c #C1D16D",
"E  c #C0D16E",
"W  c #C0D06F",
"Q  c #C1D16F",
"!  c #C3D06E",
"~  c #C3D16F",
"^  c #C1D36E",
"/  c #C1D270",
"(  c #C3D271",
")  c #C0D470",
"_  c #C1D470",
"`  c #C0D570",
"'  c #C1D570",
"]  c #C0D471",
"[  c #C1D471",
"{  c #C0D571",
"}  c #C1D571",
"|  c #5C4E92",
" . c #5D4E92",
".. c #5C4F92",
"X. c #5D4F92",
"o. c #5C4E93",
"O. c #5D4E93",
"+. c #5C4F93",
"@. c #5D4F93",
"#. c #6E4483",
"$. c #766CAA",
"%. c #776CAA",
"&. c #766DAA",
"*. c #776DAA",
"=. c #766CAB",
"-. c #808180",
";. c #818180",
":. c #808081",
">. c #808181",
",. c #818181",
"<. c #B6B7B6",
"1. c #B7B7B7",
"2. c #DCD4DE",
"3. c #DDD4DE",
"4. c #DCD5DE",
"5. c #DDD5DE",
"6. c #DDD4DF",
"7. c #DDD5DF",
"8. c #F2F2C0",
"9. c #F3F2C0",
"0. c #F2F3C0",
"q. c #F3F3C0",
"w. c #F2F2C1",
"e. c #F3F2C1",
"r. c #F2F3C1",
"t. c #F3F3C1",
/* pixels */
") _ ) { _ ' ] ) _ _ ) ` ] [ ) _ ` _ { ) ' ) } _ ] ) ) ) ) ) ` ] ) ) ) ) _ ) ] ` ) ' ] _ [ ) ) _ ] ) ",
"} ` ) _ ` _ ' ) _ } ) ) ) ) ' { { ) ` ` ) ] } ' ` ) ] [ { ) ] { ) ` _ _ ` } ) ' ] ` ) ] ] ) ] ` [ ) ",
") ` ) ) ) ) [ ) ) ` _ { ` } ) } [ ` ] [ _ _ ) [ ] ) ) ` ` [ ] ) ` ' ] _ ] ) ` ` _ [ ) ] _ _ ` _ ` [ ",
"] _ ) ) ] ) ) ' ] ) ) ] ' { ] ' ) ' _ ' ] ' ) _ ' [ ` ) ' ) ` } _ ' ` ) [ } { ) ) ] _ } ] ` ) ) ) { ",
"` ' _ ] ' ` ) _ ) ` _ } ] ' _ ) ) ) } ) ] ) ' _ ] ` _ { ` ] ` ) ' { ' ] _ [ _ ) ] [ ' ) ) _ ) ] ` ) ",
"_ [ { ) [ } ' { _ ) ] _ ` _ _ ) ) ` _ [ _ [ ) ) _ ) _ _ ` ] _ ] ' { ] ) ) _ ` ) _ { ] ] ) ' ] _ } ) ",
"{ ] [ ) ] ` _ ' _ ) ` } ` ) ) ) [ [ ] ) ) ` _ ` [ ` _ ` ] ) ] ) _ ) ` _ ] ) ) ) ] ) [ ` { _ _ ` ) ) ",
"] { ] [ ' } _ ` ] _ ' ) [ ) [ { ' ) [ ' ) ) ] ) ' { [ ) ) ) ` _ _ [ ) } ) _ ) ) _ ` ] ` ) [ ) ] ) ` ",
") ] ` ` ) ) ` { ` ) ) ' { ) ] ] ) _ { { _ ' _ ) [ { { ) ' ` ) ] ) ` ` ) ' ` ] ] _ ) ) ) ) ] ) ` ) { ",
"] ) ) ' ` ] _ ] ) ] [ ) [ ) ) ' ) ) ) ] { } ' _ ) ` ) ) ) ) _ { ) ` ] ) ' ] ` ] ) _ ` ) ) } ] ' ] } ",
"_ { ` [ ' { ) { ) _ ] ] ] ) ` ] ` } ) ` ) ] ) _ ) ` _ ' ` _ ) ' } ) ) ` ) ] ) ] ` ) ) [ ] ) ` [ ) ` ",
"_ ) ] ] ) ) ) _ { ) ) _ ) ] ` _ } [ ) ] ) _ [ _ ` } ] ) _ ) ) ) ) ` { ) ] ] ' ] { _ _ ' { ` ' { ) ] ",
") ) ) ] _ [ ) ] ] ` _ ` ` ) [ ) ` ` ) _ ) _ ` ` ] ] ` [ _ ) ) _ ] [ ] ) ) _ _ ` ) ) ] ) { ) ` _ ) { ",
") _ ] ] ) [ ` ) ) ) ) ) ) ] ` [ [ ] { ` ] ) ` ] _ _ ` ] ' ` ' ` } ` ) ] _ ] ' { ) ] _ } ' ] ) _ ' ) ",
") ) ` ) [ ) ) ] ) ) { ` ) { _ ) ) ] } [ ] ' [ ] ) _ ] ) ` _ ` _ ` ) ) [ _ ] ) { ) _ _ ] ) [ [ ` ) ` ",
"] { { ) [ ) ` ) ) ] ' ] ) ' ' ] ] [ X.+...) ] { ` o. .O.{ ' { ` ` _ ) ] [ [ ) ) ) ` _ _ _ _ _ ) _ ] ",
"` ) ] ) ' [ _ ) _ ` _ _ ) _ ] ) [  .9.e.w. .] {  .9.q.w.X.] ) [ ` } ] } ' } ) ) ' ` ) _ ) ) ' ] } ) ",
") ] ) ) ) ' { ) ) ) ' ` ` ) ' _ _ X.0.9.q.| ..+.| w.0.e.| ) ] _ ) _ ' [ ) ) ' ) ] [ ) [ ) ] ) ` [ { ",
") ] } ) _ ` ) ) ) ' _ ) _ ' [ ` }  .q.e.8.2.7.5.4.r.0.0.X._ ] ` ` { ] ] _ ' ] ] ` _ ) ) [ _ ) ` ] ) ",
"] ` ` ) ` ] ` _ ) ) _ ` _ [ _ ` [  .8.w.8.e.q.8.t.e.e.e. .` [ } _ { ) ) { _ } ` ` ` ' _ ) ' } ) ` { ",
"_ ) { ) ] ) ] ) [ _ ] ` ` ] [ ' { o.t.w.r.8.8.e.q.e.8.t.X._ _ } ` ) _ ) _ ] ] ` ` ) ` ] ) ) ) ' ) ] ",
"_ ) ) ` _ _ ) ] ] _ [ ) [ ) ] )  .| 8.0.e.r.t.8.r.q.8.e.o.O.w V ] _ ` _ _ _ ' ) ` ` _ ) ' ] ` ) _ ) ",
"] ` ] _ [ ) ' ` ] ) ] ) ] ' [ [ [ | 9.e.w.0.w.t.t.0.0.9.O.~ R ] ] { B } ` { ) ` ) _ _ ] ) { ) ) ] _ ",
"] } ` ) _ ] [ { ] ) ` { ) [ ` ' o.O.e.8.q.0.e.q.e.9.w.0.X.+.J _ _ } l { { ] ] ` ) ] [ ) [ ` [ [ ) ] ",
"` ) ' ' ) ) ` _ ] ` } ] _ ` [ ] [  .t.9.8.0.9.t.8.9.9.e...3 { 2 _ q H ` { ] [ ) ` { ` ) ) ] ` ' ) ` ",
"_ ) _ _ ) ) ) _ ] ] ) _ ` _ ] { [ ) ..+.%.%.$.$.%.=.+...@ - Z ^ V #   [ ` } ` ) _ ) ` ] ` ] ) { ) [ ",
"` _ ` [ } ] ] ' ` _ ) ) _ ] ] [ ' ` [ o.*.=. .@.=.&. .) c k < D Z $ o { ` ] _ ) ) ] ` [ ` ` ` _ _ [ ",
"' } ) { ` ` ' ] ] ) ] _ ) ) _ ) ` _ ) o.8.o.9.9.o.t.O.' 5  .| D > d & _ ` } ] [ ` ) [ ) _ ' ) ) ) ' ",
"_ ' [ ` ` _ [ ) ] ) ) ` _ ) } ` ' ) ' | 3.7. .8.0.9.| A o.0.0.+.Q T ` _ } ` } ) { { ] _ ] ) ) [ _ _ ",
"_ _ ) ] [ _ ) { _ _ } ' ) [ [ [ { } ) ) o.+.r #.4.6.o.b o.6.5.| U P ) _ [ { ) ] ] _ _ ' _ ] ] _ _ { ",
"{ _ ] ` { } ` ] _ ] { ) ) ` [ [ [ { [ ] } ( Y [ ..o.G { ) +.o.u s ` _ _ ] ] { ' ] ) ) ' { _ ' _ [ ] ",
"[ ) ` } ] ] ] ` ` ) ] _ ` ` ] ] ] ' ) ) ` W K _ ` { x _ [ _ ` i a _ 1.1.) ` ` ` ) ) ) ] ` ) ` ) ` _ ",
") ) ) ] ) ) ` ) ] _ _ _ ] ) ] ` ) { ] e M 3 _ 7 _ w M } _ } ' [ u p :.-.<.9 ' ' { _ { ) ` { ] ` ` ) ",
"` ] { _ { _ ` ` _ ` _ [ } ' ` { ` _ ; * O = S E N + X { { { ) ) y t ;.>.>.0 _ ) ) ) [ ) ) ) ) { ) [ ",
"{ { ` ] ] ) ) _ ' ) ] ] _ [ { [ _ { } ) k v 1 F C $ . _ } { { ' ] ;.:.:.,.1.' _ ] } ) ] ` [ ` ] ` ` ",
"' _ ` _ ) ] ` ) ) ) ` ) } } { ) ) ] ) ) 6 ] < F : f : ] } _ ] _ ] ` 9 ) ' ` { { ] ' ) ) ) ] ] ) [ ) ",
") _ { _ _ ] ) ] ) ` ] ) ' { [ ) ) [ ' Z E ,   j / I ) ) ] [ ) ) } ` ) ' 8 ` [ ) _ ` ` ) { ) ) ) ) ) ",
") ) ) _ ` { _ _ } ` ) ) ) { { ` ` [ ] n Y 4 h % ! L ' ) ' ` ' _ ] ` ] 9 { _ { ) ] } } } _ ) { { ] ] ",
"] ) ) ` _ ] _ ] ` ' ' ) ) [ ` ] ` [ ` ) } g z m ) [ { [ ] ` ` { ) _ } _ [ ) { ) ] ) ) ) { ] ) ] ` { ",
") ) ) ` ` ] ) ) ` _ [ } [ ) ) ) ) ) _ ' ' ] ' ) _ ` ) _ ) ) _ ' ' [ ) ] [ ) _ ` ) ) _ [ ) ) ) ' _ } ",
") ` ] ] ` ` ) ` _ _ _ ` _ { ` ' } } { ` ` ) _ [ _ ) ] ' _ ) _ _ ' ) ) { ] ` ) [ ) [ ) _ _ ) ) ) ) ` ",
"{ ] ) { ) _ ) ` _ [ ) ` ) ' ) ) ) [ ` _ ] _ ) ] ) ) ) ) [ } ) ) ) _ ) ] ` ) ] ] _ _ [ ` ) ' ] ` [ [ ",
"` ) _ ) _ ' _ { ] ) _ ) { ' ) ` { ] ] _ { [ ' ` ] ` ) _ ) ) [ [ ) ) ) ) ] ] { ) _ ) ] ` ) ] ) [ ] ' ",
"] [ _ { _ { ) [ } ' ] _ ] ] ] ) ] _ ) ) ] ` { ` ) ) ` _ _ _ ' ` ] [ _ [ ` { ] ] ) ) ' } ` ] [ ] ] ) ",
"] ` ) _ _ { ) { ) [ ) } ] ) ' ` _ _ ] ) [ { ) ` ] ) { ] ` [ ) ` _ _ ' ` _ ' ) ' ) _ ] ] _ ) [ ) ` [ ",
"] ] } _ _ ] ) ) ) { ` ) } _ { ` ) ' ] { _ _ ) ) ] ) ) ] ' ' { _ ) ' ) _ ` ) ' ] ` ) ) { ` ) _ _ _ ] ",
") ) ] _ ) } ) ] ] ) ` { ) ] ) _ ` ` ` ] { ] ) ] _ ] ] ' _ { ' ] } ) ] ] { { ) _ _ _ [ } } ] ) ` ] ` ",
"_ [ ] ) [ _ ` ) ] ) ) ) _ } _ { ` ) { ] _ ) ) ` ) ) ` ) ) ] ) ` ` _ { [ ' ] { ) ] ] [ ` [ [ ] _ ) ] ",
"{ ] _ [ ) { [ ] ) ] ` ] [ ` ) { ' ) ] ` ' { _ ] _ ` ) _ _ ) ` ) _ ] { _ [ ` ) ) ) ) _ ) ) ] ) ] ) [ ",
"] ) ) ] _ ) ' ` ) ) ) ) ) ) ` _ } ` _ _ ) ) ) ) ) [ ) ] ) ) ' ` ` ' ) ` _ ) [ { ) ` ) ) { ) ] ] ` ) "
};
