/* XPM */
static char *result[] = {
/* columns rows colors chars-per-pixel */
"50 50 22 1 ",
"  c #7BA357",
". c #7BA359",
"X c #80A65B",
"o c #84AA5B",
"O c #8DAF5E",
"+ c #8EB25D",
"@ c #94B65F",
"# c #9ABA5F",
"$ c #8FAF60",
"% c #91B360",
"& c #98B763",
"* c #97B862",
"= c #9BBB60",
"- c #A0BE65",
"; c #A4C263",
": c #AAC665",
"> c #A9C468",
", c #B1CA6A",
"< c #B9CF6D",
"1 c #BCD16E",
"2 c #BED370",
"3 c #C0D470",
/* pixels */
"33333333333333333332333333333333333333333333333333",
"33333333333333333333323333333333333333333333333333",
"33333333333333333233232233333333332333333333333333",
"33333333333333321221122111111112212333333333333333",
"333333333333332<,>>>>->>>>>>>>>>>,2333333333333333",
"333333333333333,-%$$$%%$%%$$%%$+%-,333223333333333",
"333333333212131>%........o.o.....%>131222333333333",
"333333333<,>>>>&$...$o+$Oooo.....o&>>>>,<333333333",
"333323333,=%++$o...+@@@@@@@+ .....o+%$%;,332333333",
"333333331>%X.o.X..+@;;;;;;;@O   ..o....%>132333333",
"3333321,>&o...oo +@=;;:;;;;=#o.ooo+oo..o*>,<233333",
"33333<,-$o..oo*@@@======#&&@@++*@@@@oo..o+;,233333",
"333332>%....o@;;;;=+oooooo oo.+=;;;;@O...X%>223333",
"333332>+..oo@=;-==+.. o   o   .*#-#-=@oo..$>232333",
"333332>$.oo@=;=+oo.. @==;=+o....oo+=;=@ooX%>222233",
"33332<>$oo*;;=+...o +=;;;;=+o.oo...+#-;*o.$>132233",
"2221<>*+..@;=+. o+===;;;;;;=====+  .@;;@+.+*>,1233",
"222,-*...+@;=o o+=;;;;;::::::;;;=+   =;@....%-,233",
"232>%....+@;=.o+=;;;;;::2111,:;;;;@o.=;*+....*,333",
"332>+...o@===..=;;::::,<33331::;;;= .===@+...+>333",
"332>+...*==+..+=;::,11< ...221::;;= ..+==@...*>233",
"331>@.+*;;=...+=;::13   .. . 31,:;;+   ==;*+.@>233",
"321>@..@;;;..@;;:,12  ;;=;;;  31,:;=@. ;;;@o.@>223",
"322>@.+@;;;..=;;:123 ;;;211;; 332:;:=oo=:;@o.*>233",
"231>+.+*;;@..;;;:<<..;3322;3; .31:;;= o=;;@o.%>333",
"331>+..*;;=..;;;:<2 ;;3;3233;;.31:;;=o.=;;@O.$>333",
"332>*.+*;;;..;;;:22.;;323332;;.21:;;=oo=;;@oo%>333",
"332:*..*;;=+.==;:,< .;;23;33;;.31:;;= o=;;@O.%>333",
"221>+.o+@==. .+=;:,1.=;;2<;;; 221:;;#oo&;;#O.*>333",
"221>+...o=@... =;;:1..;;;;;;. 2<,:;=+.o#;;@o.%>233",
"221>%.....@... ;;;:12 ...  ..3<::;=+o o@;;@O.%:333",
"331>%....+@+.. =;;:,<<,. . 112,:;;=o..+&#@+..%>333",
"322>$.....@*+..-;;;:::,1331,:::;;;# .@;=@....+>333",
"331,O$...o*;=oo+-;;;;;:,11,:;;;;;;@. ;;@+....*>323",
"222,=%$..o*;-o .+#;;;;;::::;:;;:;=  .;;@+...+-<233",
"322<,>%o.o*;=+. o@#&=;;;;;;;;===+....;;@..+=>,1333",
"333332>O.o@;;=+  o.o+#;;;;;;=@.o. .+=;;@o.+>222233",
"323322>+.oo@=;=+oo..o@###;=#@   +.+=;=;...+>222232",
"333321>$...+@=;-#=+. .XX o o   @===;==+...+>233333",
"333321>*o.  o#=;;;=+oooooooooo+=;;;;@. ..o@>233333",
"333331,-@o..o+*@@@==#==###&==#=&**@*$...o*-,222333",
"333332<,>*o...oooo#=;;;;;;;;;;=*oooo...$*>,1223333",
"33333333<>%....o..o*;;;;;;;;;;*o......o$>122332333",
"333333332,-%%+%o..oo@@@@*@@@@@oX..$OOO%=,222333333",
"333333333<,>>>>&o..oOooOoOooX$...$*->>>,2333333333",
"33333333322122<>$o...o..X..o.$...@>122222333333333",
"333333333333332,-$$+@$$$+O@@%%$%%-,233332233323332",
"333333333333333<,>>>>>>>>>>>>>>->,1233323233333333",
"33333333333333331111121211111111112323333333333333",
"33333333333333333333333233333333222233333333333333"
};
